<?xml version="1.0" standalone="no"?>
<!DOCTYPE svg PUBLIC "-//W3C//DTD SVG 1.1//EN" "http://www.w3.org/Graphics/SVG/1.1/DTD/svg11.dtd" >
<svg xmlns="http://www.w3.org/2000/svg" xmlns:xlink="http://www.w3.org/1999/xlink" version="1.1">
<metadata>
Created by FontForge 20161003 at Wed Aug 14 10:46:32 2019
 By www-data
Copyright 2001 by Herman Miller. Distribute freely.
</metadata>
<defs>
<font id="ThryomanesNormal" horiz-adv-x="0" >
  <font-face 
    font-family="Thryomanes"
    font-weight="400"
    font-stretch="normal"
    units-per-em="2048"
    panose-1="0 0 5 0 0 0 0 0 0 0"
    ascent="1638"
    descent="-410"
    x-height="915"
    cap-height="1420"
    bbox="-1117 -654 2640 2114"
    underline-thickness="41"
    underline-position="-292"
    unicode-range="U+0020-FB02"
  />
<missing-glyph horiz-adv-x="1024" 
d="M128 0v1741h768v-1741h-768zM256 128h512v1485h-512v-1485z" />
    <glyph glyph-name=".notdef" horiz-adv-x="1024" 
d="M128 0v1741h768v-1741h-768zM256 128h512v1485h-512v-1485z" />
    <glyph glyph-name=".null" 
 />
    <glyph glyph-name="nonmarkingreturn" horiz-adv-x="615" 
 />
    <glyph glyph-name="space" unicode=" " horiz-adv-x="615" 
 />
    <glyph glyph-name="exclam" unicode="!" horiz-adv-x="463" 
d="M325 99q0 -49 -36 -85t-85 -36q-50 0 -86 36t-36 85q0 50 36 85.5t86 35.5q49 0 85 -35.5t36 -85.5zM318 1464q0 -197 -42 -520q-51 -391 -59 -518h-26q-9 127 -60 518q-42 323 -42 520q0 22 47 49q43 25 68 25q24 0 67 -25q47 -27 47 -49z" />
    <glyph glyph-name="quotedbl" unicode="&#x22;" horiz-adv-x="793" 
d="M266 1338q0 -101 -31 -259q-39 -191 -45 -256h-26q-6 65 -44 256q-32 158 -32 259q0 22 33.5 54.5t55.5 32.5t55.5 -32.5t33.5 -54.5zM661 1338q0 -101 -32 -259q-38 -191 -44 -256h-26q-6 65 -45 256q-31 158 -31 259q0 22 33.5 54.5t55.5 32.5t55.5 -32.5t33.5 -54.5z
" />
    <glyph glyph-name="numbersign" unicode="#" horiz-adv-x="1070" 
d="M999 953l-17 -89h-203l-68 -350h203l-18 -90h-203l-82 -424h-89l82 424h-331l-83 -424h-89l82 424h-197l17 90h198l68 350h-198l18 89h197l91 465h89l-90 -465h331l91 465h89l-91 -465h203zM690 864h-332l-68 -350h332z" />
    <glyph glyph-name="dollar" unicode="$" horiz-adv-x="1016" 
d="M964 339q0 -174 -123 -271q-114 -89 -292 -85v-205h-62v210q-17 2 -128 21q-78 14 -129 14q-26 0 -45 -19h-32l-57 351l38 13q33 -135 124 -222q94 -91 229 -107v617q-181 118 -255 194q-130 132 -130 280q0 135 130 219q107 70 255 83v196h62v-194q33 -2 104 -21
q67 -18 104 -18q32 0 48 27h38l64 -422h-45q-40 161 -97 239q-77 108 -216 127v-526q203 -129 277 -201q138 -137 138 -300zM487 881v489h-8q-96 1 -153.5 -59t-57.5 -158q0 -128 219 -272zM811 311q0 88 -93 178q-51 49 -169 127v-580q116 2 189 80t73 195z" />
    <glyph glyph-name="percent" unicode="%" horiz-adv-x="1657" 
d="M1594 329q0 -158 -81.5 -256.5t-210.5 -98.5q-117 0 -202 101t-85 243q0 164 78.5 266t210.5 102q125 0 207.5 -101.5t82.5 -255.5zM687 1076q0 -158 -82 -256t-211 -98q-116 0 -201 101t-85 243q0 163 78 265.5t210 102.5q126 0 208.5 -102t82.5 -256zM1483 262
q0 150 -39 251q-51 135 -159 135q-160 0 -160 -297q0 -123 49 -221q57 -114 151 -114q158 0 158 246zM575 1009q0 150 -38 251q-51 135 -159 135q-160 0 -160 -296q0 -123 48 -221q57 -114 151 -114q158 0 158 245zM1407 1386l-991 -1386l-77 33l971 1379z" />
    <glyph glyph-name="ampersand" unicode="&#x26;" horiz-adv-x="1585" 
d="M1535 247q-29 -148 -116 -210q-81 -58 -236 -58q-133 0 -280 204q-211 -217 -511 -217q-143 0 -246 153q-93 137 -93 287q0 167 328 465q-117 160 -117 270q0 136 85 218t222 82q274 0 274 -230q0 -54 -108 -166q-18 -18 -156 -147l206 -232q115 -134 186 -249
q221 320 221 376q0 65 -113 73l19 51h409l-19 -51q-107 -6 -165 -48q-52 -37 -103 -137q-70 -134 -93 -177q-55 -99 -105 -171q70 -115 116 -153q68 -57 181 -57q142 0 175 149q12 -14 39 -25zM717 1217q0 79 -33.5 113t-112.5 34q-69 0 -120 -63q-47 -60 -47 -130
q0 -57 105 -187q62 53 125 106q83 80 83 127zM850 261q-126 192 -394 515q-218 -224 -218 -381q0 -130 91.5 -219t221.5 -89q141 0 299 174z" />
    <glyph glyph-name="quotesingle" unicode="'" horiz-adv-x="398" 
d="M266 1338q0 -101 -31 -259q-39 -191 -45 -256h-26q-6 65 -44 256q-32 158 -32 259q0 22 33.5 54.5t55.5 32.5t55.5 -32.5t33.5 -54.5z" />
    <glyph glyph-name="parenleft" unicode="(" horiz-adv-x="734" 
d="M637 -388l-24 -48q-253 130 -396 379q-138 241 -138 532t138 532q143 250 396 379l24 -47q-385 -240 -385 -864q0 -623 385 -863z" />
    <glyph glyph-name="parenright" unicode=")" horiz-adv-x="727" 
d="M613 475q0 -290 -138 -532q-143 -249 -396 -379l-23 48q385 240 385 863q0 624 -385 864l23 47q253 -129 396 -379q138 -241 138 -532z" />
    <glyph glyph-name="asterisk" unicode="*" horiz-adv-x="945" 
d="M843 702q-18 -5 -42 -5q-90 0 -145 35q-31 20 -79.5 82t-92.5 91q3 -38 31 -117q27 -74 27 -117q0 -117 -66 -180q-66 63 -66 180q0 43 28 117q29 78 32 117q-45 -29 -96 -90.5t-83 -81.5q-55 -36 -145 -36q-24 0 -42 5q22 89 123 147q37 22 118.5 35t117.5 31
q-34 16 -117 29q-77 13 -114 34q-101 58 -123 147q18 6 42 6q88 0 143 -35q32 -20 82.5 -80.5t93.5 -89.5q-3 38 -32 116q-28 73 -28 116q0 117 66 180q66 -63 66 -180q0 -43 -26 -116q-29 -79 -32 -116q41 30 91 92q47 59 79 79q54 34 142 34q24 0 42 -6q-22 -89 -123 -147
q-37 -21 -111 -34q-81 -14 -114 -29q34 -17 116 -31q77 -14 114 -35q101 -58 123 -147z" />
    <glyph glyph-name="plus" unicode="+" horiz-adv-x="962" 
d="M900 667h-368v-368h-94v368h-368v94h368v368h94v-368h368v-94z" />
    <glyph glyph-name="comma" unicode="," horiz-adv-x="549" 
d="M374 3q0 80 -40 136q-44 64 -121 64q-53 0 -93 -28q-43 -31 -43 -82q0 -43 24 -74q27 -35 67 -35q12 0 33.5 3.5t32.5 3.5q41 0 41 -56q0 -144 -175 -236q11 -36 21 -36q19 0 70 35q47 32 62 50q67 81 86 116q35 62 35 139z" />
    <glyph glyph-name="hyphen" unicode="-" horiz-adv-x="784" 
d="M713 573h-646v125h646v-125z" />
    <glyph glyph-name="hyphen" unicode="&#x2010;" horiz-adv-x="784" 
d="M713 573h-646v125h646v-125z" />
    <glyph glyph-name="period" unicode="." horiz-adv-x="499" 
d="M323 97q0 -47 -33.5 -80.5t-80.5 -33.5q-48 0 -81.5 33.5t-33.5 80.5q0 48 33.5 81.5t81.5 33.5q47 0 80.5 -33.5t33.5 -81.5z" />
    <glyph glyph-name="slash" unicode="/" horiz-adv-x="737" 
d="M723 1400l-624 -1415l-89 19l631 1415z" />
    <glyph glyph-name="zero" unicode="0" horiz-adv-x="1130" 
d="M977 722q0 -243 -103 -460q-128 -271 -345 -271q-225 0 -350 267q-98 209 -98 464q0 243 103 460q128 270 345 270q225 0 349 -266q99 -210 99 -464zM830 677q0 719 -301 719t-301 -630q0 -718 301 -718t301 629z" />
    <glyph glyph-name="one" unicode="1" horiz-adv-x="861" 
d="M728 1h-583v35q212 0 212 171v1056q-54 -32 -107 -64q-64 -36 -113 -49l-19 44q201 100 345 244h60v-1231q0 -103 53 -140q43 -31 152 -31v-35z" />
    <glyph glyph-name="two" unicode="2" horiz-adv-x="1089" 
d="M1007 285q0 -19 -88 -285h-837l-19 59q668 539 668 980q0 258 -234 258q-260 0 -396 -245l-44 19q54 149 184 251q137 108 290 108q141 0 237 -86q100 -90 100 -229q0 -445 -603 -981h547q55 0 105 85t46 85q8 0 23 -8.5t21 -10.5z" />
    <glyph glyph-name="three" unicode="3" horiz-adv-x="925" 
d="M877 474q0 -271 -148 -387q-132 -104 -411 -104q-81 0 -147 28q-86 38 -86 109q0 33 23 55.5t57 22.5q69 0 145.5 -67t152.5 -67q269 0 269 377q0 103 -51 194q-60 107 -156 107q-101 0 -213 -57l-19 51q87 24 208 134q131 119 131 198q0 92 -70 159t-162 67
q-110 0 -295 -176l-31 13q101 154 172 214q106 87 254 87q127 0 218 -80q96 -84 96 -209q0 -107 -66 -178q-44 -48 -160 -110q136 -9 217 -130q72 -108 72 -251z" />
    <glyph glyph-name="four" unicode="4" horiz-adv-x="978" 
d="M979 411h-233v-411h-138v411h-585v63l673 968h50v-905h233v-126zM608 1209l-459 -672h459v672z" />
    <glyph glyph-name="five" unicode="5" horiz-adv-x="964" 
d="M882 477q0 -216 -161 -366q-157 -146 -375 -146q-100 0 -183 35q-109 45 -109 130q0 35 23.5 59t58.5 24q16 0 56 -44q52 -59 85 -83q60 -45 126 -45q123 0 229 160q96 145 96 275q0 137 -106 253q-108 120 -244 120q-58 0 -133 -46q-27 -17 -128 -92l115 707h496
q46 0 57 54l38 -12l-63 -185h-471l-64 -388q95 70 255 70q184 0 298 -151q104 -138 104 -329z" />
    <glyph glyph-name="six" unicode="6" horiz-adv-x="988" 
d="M964 452q0 -189 -138 -331.5t-326 -142.5q-231 0 -363 207q-114 179 -114 422q0 321 229 552q192 193 528 307l19 -45q-504 -178 -596 -672q103 85 151 111q85 48 180 48q169 0 301 -144q129 -141 129 -312zM793 466q0 143 -65 253q-77 131 -209 131q-85 0 -175 -53
q-31 -18 -150 -109q-3 -35 -3 -73q0 -593 323 -593q170 0 235 148q44 101 44 296z" />
    <glyph glyph-name="seven" unicode="7" horiz-adv-x="960" 
d="M962 1349l-504 -1349h-114l479 1281h-529q-61 0 -128 -68q-64 -64 -77 -126l-32 19l83 312h822v-69z" />
    <glyph glyph-name="eight" unicode="8" horiz-adv-x="960" 
d="M912 315q-4 -155 -145 -250q-130 -87 -313 -87q-379 0 -388 343q-3 132 102 244q63 66 206 157q-155 127 -173 145q-97 103 -97 217q0 150 95 248.5t255 108.5q164 9 279.5 -73t115.5 -214q0 -103 -88 -216q-73 -94 -181 -169q170 -126 231 -197q105 -121 101 -257z
M696 1144q0 102 -66 167.5t-169 65.5q-104 0 -166 -73q-57 -69 -57 -175q0 -94 98 -181q2 -2 176 -128q184 155 184 324zM766 315q-8 82 -134 195q-103 83 -205 166q-182 -131 -202 -323q-2 -25 -2 -48q0 -122 64.5 -196t179.5 -74q127 0 218 87t81 193z" />
    <glyph glyph-name="nine" unicode="9" horiz-adv-x="1146" 
d="M1006 806q0 -321 -229 -551q-192 -194 -528 -307l-19 44q504 178 596 672q-103 -84 -151 -111q-85 -47 -180 -47q-169 0 -301 144q-130 141 -130 311q0 189 138.5 332t326.5 143q230 0 363 -208q114 -178 114 -422zM838 799q0 593 -323 593q-170 0 -235 -148
q-44 -101 -44 -297q0 -142 65 -252q76 -131 209 -131q85 0 174 53q31 18 150 108q4 35 4 74z" />
    <glyph glyph-name="colon" unicode=":" horiz-adv-x="475" 
d="M323 97q0 -47 -33.5 -80.5t-80.5 -33.5q-48 0 -81.5 33.5t-33.5 80.5q0 48 33.5 81.5t81.5 33.5q47 0 80.5 -33.5t33.5 -81.5zM323 802q0 -47 -33.5 -80.5t-80.5 -33.5q-48 0 -81.5 33.5t-33.5 80.5q0 48 33.5 81.5t81.5 33.5q47 0 80.5 -33.5t33.5 -81.5z" />
    <glyph glyph-name="semicolon" unicode=";" horiz-adv-x="508" 
d="M374 3q0 -116 -121 -255q-17 -19 -62 -50q-50 -35 -70 -35q-10 0 -21 36q175 92 175 236q0 56 -41 56q-11 0 -32.5 -3.5t-33.5 -3.5q-40 0 -67 35q-24 32 -24 74q0 51 44 82q39 28 92 28q77 0 121 -64q40 -56 40 -136zM323 802q0 -47 -33.5 -80.5t-80.5 -33.5
q-48 0 -81.5 33.5t-33.5 80.5q0 48 33.5 81.5t81.5 33.5q47 0 80.5 -33.5t33.5 -81.5z" />
    <glyph glyph-name="less" unicode="&#x3c;" horiz-adv-x="896" 
d="M868 140l-63 -76l-759 640l759 640l63 -75l-671 -565z" />
    <glyph glyph-name="equal" unicode="=" horiz-adv-x="1044" 
d="M937 855h-830v94h830v-94zM937 478h-830v95h830v-95z" />
    <glyph glyph-name="greater" unicode="&#x3e;" horiz-adv-x="947" 
d="M899 704l-759 -640l-63 76l672 564l-672 565l63 75z" />
    <glyph glyph-name="question" unicode="?" horiz-adv-x="784" 
d="M719 1139q0 -131 -88 -229q-13 -15 -167 -142q-93 -78 -102 -153q-5 -48 -5 -89q0 -108 50 -153l-51 -19q-96 138 -96 261q0 96 67 172q28 32 143 121q69 54 91 107q18 44 18 135q0 92 -46 152q-50 65 -139 65q-52 0 -105 -55q-51 -51 -61 -104q-17 -90 -89 -90
q-60 0 -60 76q0 103 115 177q103 66 213 66q135 0 223.5 -82t88.5 -216zM489 99q0 -50 -35.5 -85.5t-85.5 -35.5t-85.5 35.5t-35.5 85.5t35.5 85.5t85.5 35.5t85.5 -35.5t35.5 -85.5z" />
    <glyph glyph-name="at" unicode="@" horiz-adv-x="1471" 
d="M829 870q-44 125 -141 125q-105 0 -185 -129q-72 -115 -72 -226q0 -219 142 -219q54 0 179 73zM1407 415q-123 -234 -283 -333q-163 -101 -424 -101q-323 0 -521.5 198.5t-198.5 520.5q0 306 188 526q198 232 499 232q293 0 465 -150q182 -157 182 -446q0 -213 -114 -356
q-123 -155 -330 -155q-82 0 -106 81q-110 -79 -201 -79q-126 0 -176.5 48t-50.5 174q0 155 110 310q119 167 268 167q84 0 141 -41l93 55l-103 -498q-10 -46 -10 -95q0 -47 75 -47q153 0 245 147q78 126 78 289q0 234 -159 382q-155 146 -390 146q-290 0 -460 -210
q-157 -194 -157 -490q0 -275 178 -460q181 -188 455 -188q477 0 651 416z" />
    <glyph glyph-name="A" unicode="A" horiz-adv-x="1559" 
d="M1455 0h-586v45h144q65 0 65 70q0 47 -35 140l-105 279q-15 41 -43 41h-394q-31 0 -45 -37q-44 -108 -88 -217q-69 -176 -69 -206q0 -72 80 -72l2 2h131v-45h-494v45h69q85 0 142 150l443 1167q4 9 4 19q0 18 -11 27l6 10h121l476 -1258q29 -77 69 -98q32 -17 118 -17
v-45zM872 686q0 21 -1 26l-159 420q-4 11 -15 18q-10 0 -16 -18q-171 -450 -171 -454q0 -13 11 -13h331q20 0 20 21z" />
    <glyph glyph-name="B" unicode="B" horiz-adv-x="1321" 
d="M1239 381q0 -204 -180 -303q-143 -78 -367 -78h-705l10 37q137 2 178 20q78 34 78 153v1019q0 137 -234 137v46q250 17 621 17q188 0 338 -69q189 -88 189 -248q0 -268 -304 -313q194 -42 279 -130q97 -98 97 -288zM978 1067q0 308 -305 308h-248v-566h187q176 0 253 39
q113 57 113 219zM1044 389q0 172 -80 270q-88 106 -256 106h-283v-565q0 -154 237 -154q159 0 267 91q115 96 115 252z" />
    <glyph glyph-name="C" unicode="C" horiz-adv-x="1365" 
d="M1326 354q-66 -191 -191 -315q-306 -49 -393 -49q-292 0 -495 184q-209 190 -209 479q0 320 207 543q213 228 532 228q209 0 375 -77q53 -24 68 -24q20 0 30 15l31 -2l14 -302h-37q-43 160 -180 252q-130 88 -301 88q-252 0 -408 -206q-142 -188 -142 -448
q0 -271 153 -468q166 -214 430 -214q147 0 284 96q134 94 191 232z" />
    <glyph glyph-name="D" unicode="D" horiz-adv-x="1563" 
d="M1419 754q0 -328 -210 -541t-538 -213h-652v42q102 -1 144 31q49 37 49 135v1056q0 114 -132 114q-23 0 -52 -3v39q160 19 435 19q409 0 648 -132q308 -171 308 -547zM1199 716q0 671 -700 671q-49 0 -111 -4v-1196q0 -148 80 -148h203q269 0 408 213q120 181 120 464z
" />
    <glyph glyph-name="E" unicode="E" horiz-adv-x="1262" 
d="M1159 337l-40 -337h-1126v37q239 3 239 136v1078q0 78 -41 105q-44 29 -174 29v35h1057l11 -307h-37q-24 231 -149 231h-486v-564h387q93 0 120 175h33v-432h-33q-33 187 -120 187h-387v-519q0 -111 85 -111h423q150 0 198 260z" />
    <glyph glyph-name="F" unicode="F" horiz-adv-x="1054" 
d="M1018 1134h-36q0 199 -176 199h-451v-537h373q60 0 95 47q30 41 30 105h28v-390h-28q0 164 -125 164h-373v-543q0 -134 181 -134v-45h-523v45q166 0 166 146v1078q0 109 -166 108v43h981z" />
    <glyph glyph-name="G" unicode="G" horiz-adv-x="1391" 
d="M1394 633q-61 1 -100 -32q-42 -35 -42 -94v-388q-260 -134 -550 -134q-295 0 -490 186q-199 189 -199 482q0 337 196 555q203 226 536 226q174 0 319 -54q60 -23 101 -23q33 0 53 17h18l30 -368h-38q-27 180 -153 281q-123 98 -308 98q-275 0 -429 -221
q-136 -194 -136 -481q0 -258 141 -443q155 -201 406 -201q229 0 340 93v361q0 140 -183 140v40h488v-40z" />
    <glyph glyph-name="H" unicode="H" horiz-adv-x="1624" 
d="M1489 1385q-205 0 -206 -171v-1007q0 -103 53 -140q44 -32 152 -31v-35h-583v35q212 0 212 171v460h-700v-460q0 -103 53 -140q44 -32 152 -31v-35h-583v35q212 0 212 171v1007q0 103 -52 141q-44 30 -153 30v35h577v-35q-205 0 -205 -171l-1 -453h700v453q0 103 -53 141
q-44 31 -152 30v35h577v-35z" />
    <glyph glyph-name="I" unicode="I" horiz-adv-x="758" 
d="M623 1385q-206 0 -206 -171v-1007q0 -103 54 -141q44 -31 151 -30v-35h-583v35q212 0 212 171v1007q0 103 -53 141q-44 31 -152 30v35h577v-35z" />
    <glyph glyph-name="J" unicode="J" horiz-adv-x="800" 
d="M715 1385q-96 0 -134 -37.5t-38 -133.5v-978q0 -271 -85 -471q-114 -270 -350 -270q-210 0 -210 113q0 36 22.5 62.5t58.5 26.5q76 0 109.5 -51.5t123.5 -51.5q93 0 136 136q28 91 28 208v1276q0 103 -53 141q-43 30 -152 30v35h544v-35z" />
    <glyph glyph-name="K" unicode="K" horiz-adv-x="1575" 
d="M1505 2h-646l6 37q29 -7 61 -7q29 0 59 12q38 14 38 38q0 27 -98 130q-65 64 -129 128q-194 202 -379 296v-429q0 -102 54 -140q45 -32 151 -31v-35h-583v35q212 -2 212 171v1007q0 103 -53 141q-45 31 -152 30v35h577v-35q-205 2 -205 -171l-1 -509q140 66 273 219
q80 91 161 182q116 139 116 192q0 69 -165 84l7 37h520v-50l-94 -4q-47 -6 -88 -33q-65 -44 -165 -186q-129 -183 -155 -211q-67 -68 -200 -206q143 -84 345 -313q84 -100 167 -199q133 -152 178 -165q83 -24 188 -13v-37z" />
    <glyph glyph-name="L" unicode="L" horiz-adv-x="1216" 
d="M1198 347l-79 -347h-1126v37q239 3 239 136v1076q0 91 -66 119q-38 15 -149 15v35h635v-32l-15 1q-77 1 -142 -30q-82 -39 -82 -109v-1057q0 -111 85 -111h423q98 0 163 90q53 72 73 181z" />
    <glyph glyph-name="M" unicode="M" horiz-adv-x="1937" 
d="M1850 0h-535v32q50 0 117 47q71 50 68 98l-79 998l-504 -1175h-51l-527 1213l-65 -1070q0 -48 78 -82q65 -29 121 -29l3 -32h-445l-3 32q157 0 165 143l62 1083q0 63 -56 95q-46 26 -113 26l1 46h338l504 -1173l504 1173h317v-46q-12 0 -36 1t-37 1q-99 0 -93 -79
l82 -1195q3 -32 79 -54q60 -17 105 -17v-36z" />
    <glyph glyph-name="N" unicode="N" horiz-adv-x="1577" 
d="M1562 1406q0 -17 -3 -37q-109 -13 -119 -17q-53 -21 -53 -98v-1254h-44l-1074 1204v-1036q0 -130 171 -130q23 0 45 3v-41h-451l-12 41q165 0 165 83v1137q0 50 -60 82q-46 25 -105 32l6 43h318l953 -1116v952q0 61 -62 92q-50 25 -116 23v49h438z" />
    <glyph glyph-name="O" unicode="O" horiz-adv-x="1569" 
d="M1478 755q0 -329 -199 -545q-205 -222 -531 -222q-320 0 -524 179q-215 188 -215 502q0 329 197 545q204 222 530 222q320 0 526 -179q216 -188 216 -502zM1276 681q0 270 -136 470q-155 228 -413 228t-392 -202q-114 -173 -114 -445q0 -268 133 -463q152 -222 408 -222
q260 0 396 193q118 169 118 441z" />
    <glyph glyph-name="P" unicode="P" horiz-adv-x="1187" 
d="M1119 1038q0 -193 -171 -325q-157 -121 -356 -121q-68 0 -182 30l-1 -415q0 -91 71 -138q62 -41 156 -36l7 -28l-1 -10h-608l6 44h11q102 -1 142.5 39.5t40.5 142.5v1029q0 133 -194 132v37q139 19 409 19q301 0 444 -57q226 -90 226 -343zM909 1038q0 145 -88 246
q-92 106 -235 106q-34 0 -88 -8q-67 -9 -88 -11v-695q68 -19 201 -19q157 0 234 116q64 98 64 265z" />
    <glyph glyph-name="Q" unicode="Q" horiz-adv-x="1654" 
d="M1547 -381l-20 -31q-201 6 -367 88q-68 33 -268 169q-163 111 -299 155q-274 89 -414 229q-168 169 -168 433q0 330 206 545q209 219 538 219q324 0 535 -176q225 -188 225 -505q0 -273 -147 -475q-153 -208 -414 -270q60 -27 122 -92q53 -57 106 -113q166 -156 365 -176
zM1307 667q0 271 -141 474q-160 229 -420 229q-264 0 -402 -184q-122 -164 -122 -438q0 -269 142 -476q160 -235 418 -235q264 0 402 188q123 167 123 442z" />
    <glyph glyph-name="R" unicode="R" horiz-adv-x="1346" 
d="M1322 4l-11 -1q-95 -2 -217.5 63.5t-171.5 146.5l-235 387q-48 -8 -95 -8q-69 0 -182 30l-1 -415q0 -91 71 -138q62 -41 156 -36l7 -28l-1 -10h-608l6 44h11q102 -1 142.5 39.5t40.5 142.5v1029q0 134 -194 132v37q139 19 409 19q300 0 443 -57q227 -90 227 -343
q0 -127 -79 -232q-72 -97 -193 -155l303 -470q82 -126 165 -127zM909 1038q0 144 -88 246q-93 106 -235 106q-34 0 -88 -8q-69 -9 -88 -11v-695q68 -19 201 -19q157 0 234 117q64 98 64 264z" />
    <glyph glyph-name="S" unicode="S" horiz-adv-x="1015" 
d="M964 339q0 -174 -121 -269q-110 -87 -289 -87q-54 0 -161.5 20t-162.5 20q-26 0 -45 -19h-32l-57 351l38 13q37 -152 145.5 -242t262.5 -90q118 0 193.5 78t75.5 197t-184 251q-170 119 -341 238q-184 155 -184 330q0 146 151 232q126 72 284 72q39 0 111.5 -19.5
t108.5 -19.5q31 0 48 27h38l64 -422h-45q-47 186 -118 267q-92 103 -265 103q-96 0 -153.5 -60t-57.5 -157q0 -120 181 -246q167 -115 335 -230q180 -154 180 -338z" />
    <glyph glyph-name="T" unicode="T" horiz-adv-x="1341" 
d="M1289 1087l-44 -6q-22 120 -35 160q-36 109 -97 109h-382v-1162q0 -89 66 -119q43 -18 142 -17v-52h-604v39q214 -2 214 149v1162h-377q-97 0 -131 -276h-32l32 389h18q40 -45 97 -45h957q58 0 113 45h13z" />
    <glyph glyph-name="U" unicode="U" horiz-adv-x="1468" 
d="M1472 1416l-1 -51l-2 -2q-110 -17 -131 -28q-51 -27 -51 -116v-791q0 -210 -183 -335q-162 -110 -382 -110q-248 0 -411 141q-172 148 -172 392v753q0 104 -163 100l13 49h489l-6 -49q-176 -16 -176 -113v-778q0 -150 170 -277q158 -118 313 -118q170 0 288 96
q126 103 126 268v734q0 191 -169 188l-13 49z" />
    <glyph glyph-name="V" unicode="V" horiz-adv-x="1550" 
d="M1465 1418l-19 -35q-105 -7 -142 -47q-18 -20 -63 -132l-491 -1232h-77l-504 1239q-35 86 -68 115q-36 33 -124 51l-6 41h600l-25 -48q-103 -13 -121 -17q-88 -20 -88 -62q0 -24 42 -125l383 -926l352 869q51 126 51 169q0 86 -190 102l-15 38h505z" />
    <glyph glyph-name="W" unicode="W" horiz-adv-x="1888" 
d="M1958 1418l-20 -35q-44 0 -94.5 -35t-66.5 -77l-479 -1271h-97l-229 609l-235 -609h-94l-480 1277q-33 87 -188 87l-9 54h1429l-11 -29q-114 0 -163 -128l-169 -443l200 -532q12 -33 26 -33q15 0 26 28l380 1019q7 19 7 32q0 32 -38 40q-17 4 -76 4q-9 0 -47 2
q-31 3 -46 2l-8 38h482zM1131 1298q3 10 3 22q0 63 -52 63h-163q-58 0 -58 -52q0 -11 4 -22l110 -288q17 -46 23 -46q12 0 27 41zM915 743q0 26 -19 74l-185 488q-19 51 -101 65q-32 6 -131 6q-163 0 -163 -73q0 -16 7 -34l372 -994q16 -42 26 -42t25 40l160 426q9 24 9 44z
" />
    <glyph glyph-name="X" unicode="X" horiz-adv-x="1718" 
d="M1634 49l-8 -49h-583v52q129 20 129 69q0 13 -390 525q-409 -538 -409 -550q0 -48 187 -57v-39h-534v46q130 6 135 7q64 13 110 74l452 596l-396 521q-48 63 -124 93q-30 11 -152 39l7 42h621l-3 -11q0 -13 3 -31q-54 -6 -107 -11q-84 -13 -84 -37q0 -21 154 -222
q93 -121 187 -242q90 114 179 229q147 193 147 219q0 52 -156 76q14 21 12 30h477l-6 -36q-175 -44 -232 -119l-362 -477l481 -634q76 -100 263 -100z" />
    <glyph glyph-name="Y" unicode="Y" horiz-adv-x="1295" 
d="M1343 1418l-4 -41q-89 -4 -116 -21t-70 -92l-387 -671v-386q0 -103 53 -141q43 -30 152 -30v-35h-583v35q211 0 211 171v339l-425 722q-34 58 -71 79q-30 16 -104 26l-19 45h547l-9 -49q-190 -15 -190 -50q0 -15 388 -664l367 656q-1 54 -173 64l-28 43h461z" />
    <glyph glyph-name="Z" unicode="Z" horiz-adv-x="1189" 
d="M1162 372l-138 -372h-1005l-3 57l819 1272h-608q-55 0 -92 -110l-42 -158l-43 4l79 391l35 12q31 -50 74 -50h830q-4 -14 -16 -40l-846 -1284h745q45 0 106 117q37 81 74 161h31z" />
    <glyph glyph-name="bracketleft" unicode="[" horiz-adv-x="609" 
d="M576 -483h-465v1903h465v-93h-318v-1718h318v-92z" />
    <glyph glyph-name="backslash" unicode="\" horiz-adv-x="775" 
d="M723 4l-89 -19l-624 1415l82 19z" />
    <glyph glyph-name="bracketright" unicode="]" horiz-adv-x="704" 
d="M527 -483h-464v92h317v1718h-317v93h464v-1903z" />
    <glyph glyph-name="asciicircum" unicode="^" horiz-adv-x="1059" 
d="M958 676l-53 -61l-399 647l-398 -647l-54 61l452 731z" />
    <glyph glyph-name="underscore" unicode="_" horiz-adv-x="984" 
d="M973 -481h-973v101h973v-101z" />
    <glyph glyph-name="grave" unicode="`" horiz-adv-x="516" 
d="M436 1041l-24 -30l-303 372l174 59z" />
    <glyph glyph-name="a" unicode="a" horiz-adv-x="904" 
d="M912 100q-100 -73 -102 -75q-65 -40 -120 -40q-86 0 -118 131q-121 -88 -134 -95q-66 -37 -152 -37q-85 0 -143.5 58.5t-58.5 142.5q0 105 83 172q49 39 175 91l226 93v149q0 79 -56.5 133t-136.5 54q-127 0 -127 -135q0 -9 4 -24t4 -23q0 -37 -56 -66q-49 -26 -90 -26
q-17 0 -17 28q0 133 112 218q102 78 240 78t202 -51q71 -56 71 -190v-515q0 -86 59 -86q37 0 133 56zM569 183l-1 300l-203 -89q-137 -60 -137 -193q0 -57 37 -91t94 -34q59 0 114 33q24 15 96 74z" />
    <glyph glyph-name="b" unicode="b" horiz-adv-x="1105" 
d="M924 477q0 -229 -154 -363q-146 -126 -379 -126q-148 0 -327 45v1225q0 45 -52 71q-46 23 -111 21q-4 0 -8.5 14t-11.5 19q166 17 327 92v-688q144 85 170 98q99 47 188 47q170 0 271 -148q87 -129 87 -307zM763 431q0 144 -70 264q-83 141 -216 141q-55 0 -144 -35
q-94 -37 -125 -76v-524q0 -65 105 -111q85 -38 162 -38q139 0 219 125q69 107 69 254z" />
    <glyph glyph-name="c" unicode="c" horiz-adv-x="913" 
d="M811 246q-124 -264 -393 -264q-173 0 -293 139q-115 133 -115 309q0 220 152 363q149 140 371 140q66 0 154 -41q101 -45 101 -97q0 -95 -90 -95q-56 0 -73 45q-16 42 -31 84q-33 46 -127 46q-151 0 -236 -137q-71 -116 -71 -277q0 -134 94 -250q100 -123 230 -123
q187 0 286 169q41 1 41 -11z" />
    <glyph glyph-name="d" unicode="d" horiz-adv-x="1060" 
d="M1047 98q-70 -24 -141 -49q-81 -31 -134 -63q-9 -6 -19 -6q-18 0 -23 38q-4 27 -2 75q4 66 4 54q-84 -52 -168 -105q-92 -52 -194 -52q-159 0 -263 150q-93 134 -93 299q0 215 126 346q148 153 339 153q158 0 253 -54v397q0 76 -111 76q-1 0 -65 -3v35q155 20 312 103
v-1299q0 -25 20 -46.5t44 -21.5q20 0 58 4t57 4v-35zM732 186v515q-69 98 -128 133q-66 38 -180 38q-143 0 -209 -153q-47 -110 -47 -273q0 -128 79 -239q87 -121 210 -121q85 0 275 100z" />
    <glyph glyph-name="e" unicode="e" horiz-adv-x="883" 
d="M811 246q-124 -264 -393 -264q-173 0 -292 151q-111 141 -111 318q0 201 114 338q122 146 319 146q157 0 254.5 -95t97.5 -253h-646q-5 -42 -5 -86q0 -149 91 -274q100 -139 244 -139q188 0 286 169h8q22 1 33 -11zM647 644q-4 102 -71 166.5t-170 64.5q-85 0 -151 -75
q-58 -66 -79 -156h471z" />
    <glyph glyph-name="f" unicode="f" horiz-adv-x="772" 
d="M901 1318l-100 -94q-32 142 -202 142q-98 0 -176 -59q-84 -64 -84 -160v-237h235v-76h-235v-662q0 -128 141 -128h32q21 1 31 1v-45h-487l-5 29q82 25 97 33q50 27 50 81v691q-28 -3 -175 14v39q124 0 144 23h31v30q0 161 35 232q27 53 144 166q102 98 294 98
q103 0 230 -118z" />
    <glyph glyph-name="g" unicode="g" horiz-adv-x="1052" 
d="M977 753l-242 26q55 -83 55 -187q0 -135 -129 -216q-110 -69 -254 -69q-64 0 -135 14q-134 -71 -134 -127q0 -64 215 -78q310 -21 399 -46q215 -60 215 -237q0 -153 -218 -255q-180 -85 -354 -85q-135 0 -238 35q-147 51 -147 158q0 151 218 307q-4 9 -60 24
q-67 17 -98 38q-52 35 -52 95q0 61 38 93q21 18 86 42q61 23 88 48q-199 65 -199 271q0 144 110 242q106 94 252 94q174 0 274 -92l304 20q1 -34 6 -115zM640 596q0 109 -68 196q-74 94 -180 94q-108 0 -165 -98q-47 -81 -47 -197q0 -231 231 -231q229 0 229 236zM832 -188
q0 104 -137 145q-72 21 -222 28q-66 6 -199 12q-141 -112 -141 -272q0 -149 346 -149q104 0 221 66q132 75 132 170z" />
    <glyph glyph-name="h" unicode="h" horiz-adv-x="1147" 
d="M1058 0h-451v45q138 0 138 135v423q0 85 -39 151q-47 79 -126 79q-103 0 -312 -143v-538q0 -98 154 -107l20 -45h-458l-3 8l5 31q83 0 113 40q26 34 26 122v1066q0 38 -38 61q-31 19 -71 19l-51 -10q0 5 1 15t1 16q0 14 29 24l116 34q62 20 114 56h42v-732
q243 184 409 184q112 0 171 -107q47 -86 47 -208v-488q0 -82 158 -82z" />
    <glyph glyph-name="i" unicode="i" horiz-adv-x="549" 
d="M502 0h-459l-4 8l6 31q71 0 101 20q37 25 37 96v597q0 73 -72 73q-27 0 -63 -9l-25 40q190 53 285 113l37 -27v-790q0 -98 153 -107zM357 1280q0 -43 -30 -73.5t-73 -30.5t-73 30.5t-30 73.5t30 73t73 30t73 -30t30 -73z" />
    <glyph glyph-name="j" unicode="j" horiz-adv-x="743" 
d="M464 -102q0 -158 -131 -299q-103 -111 -260 -111q-81 0 -145 25q-88 33 -89 99q-1 24 25.5 55t52.5 31q23 0 106 -61.5t127 -61.5q74 0 115 59q37 53 37 129v989q0 73 -72 73q-27 0 -63 -9l-25 40q189 53 285 113l37 -27v-1044zM477 1280q0 -43 -30 -73.5t-73 -30.5
t-73 30.5t-30 73.5t30 73t73 30t73 -30t30 -73z" />
    <glyph glyph-name="k" unicode="k" horiz-adv-x="1146" 
d="M1065 49l-4 -49h-475l4 49q105 17 105 45q0 24 -39 66l-370 397v-405q0 -98 154 -107l-6 -45h-432l-4 8l6 31q63 0 102 51q36 46 36 111v1067q0 38 -37 61q-31 19 -72 19l-50 -10q0 5 1 15t1 16q0 14 29 24q58 20 117 39q67 24 113 51h42v-905l215 168q78 62 78 91
q0 41 -113 41l10 39h424l2 -44q-51 0 -122 -18q-78 -20 -111 -47l-262 -214l432 -438q100 -102 226 -107z" />
    <glyph glyph-name="l" unicode="l" horiz-adv-x="535" 
d="M492 45l-6 -45h-432l-4 8l6 31q63 0 101 51q35 46 35 111v1067q0 36 -38 60q-32 20 -71 20l-50 -10q0 5 1 15t1 16q0 14 29 24q78 24 230 90h44v-1331q0 -98 154 -107z" />
    <glyph glyph-name="m" unicode="m" horiz-adv-x="1710" 
d="M1670 0h-443v45q136 0 136 135v455q0 85 -41 149q-48 74 -129 74q-124 0 -295 -125v-602q0 -82 160 -82l5 -49h-442v45q135 0 135 135v455q0 86 -35 148q-43 75 -123 75q-126 0 -309 -135v-571q0 -98 151 -107l-6 -45h-423l-4 8l6 31q62 0 100 51q35 47 35 111v551
q0 36 -62 57q-8 3 -94 22v25q10 11 25 16q79 27 236 97l36 -27v-180q289 186 399 186q67 0 125 -62q49 -53 71 -124q289 186 399 186q107 0 171 -99q56 -86 56 -198v-520q0 -82 154 -82z" />
    <glyph glyph-name="n" unicode="n" horiz-adv-x="1120" 
d="M1097 0h-451v45q138 0 138 135v455q0 87 -36 149q-44 74 -125 74q-129 0 -316 -135v-571q0 -98 154 -107l-6 -45h-432l-4 8l6 31q63 0 102 51q36 46 36 111v551q0 36 -63 57q-8 3 -96 22v25q45 6 143 48q92 40 123 65l37 -27v-180q295 186 407 186q109 0 169 -99
q51 -83 51 -198v-520q0 -82 157 -82z" />
    <glyph glyph-name="o" unicode="o" horiz-adv-x="1008" 
d="M949 456q0 -208 -132.5 -338t-341.5 -130q-189 0 -326.5 133.5t-137.5 321.5q0 215 126.5 350t340.5 135q204 0 337.5 -134t133.5 -338zM768 368q0 198 -62 331q-83 178 -258 178q-157 0 -217 -126q-42 -88 -42 -265q0 -162 79 -292q92 -151 244 -151q256 0 256 325z" />
    <glyph glyph-name="p" unicode="p" horiz-adv-x="1088" 
d="M1004 520q0 -199 -147 -363q-151 -169 -347 -169q-104 0 -203 57v-325q0 -140 214 -156l-2 -49h-519l-12 31l8 14q167 5 167 98v1010q0 83 -27.5 108t-112.5 31l-11 49q57 10 137 49q77 38 123 77l35 -12v-192q214 156 367 156q146 0 243 -138q87 -125 87 -276zM864 461
q0 143 -74 257q-85 130 -222 130q-139 0 -261 -117v-536q127 -125 284 -125q49 0 113 45q55 40 88 87q72 104 72 259z" />
    <glyph glyph-name="q" unicode="q" horiz-adv-x="1106" 
d="M733 220v446q0 7 -21 50q-82 171 -254 171q-125 0 -217 -100q-81 -88 -81 -312q0 -146 82 -266q92 -135 232 -135q65 0 259 146zM1030 -437l-3 -48h-527l4 48q129 1 148 8q46 17 81 111v478q-139 -111 -163 -125q-92 -56 -199 -56q-153 0 -260 144q-99 132 -99 291
q0 228 130 369q141 153 324 153q122 0 307 -79q34 35 55 78h46v-1270q0 -102 156 -102z" />
    <glyph glyph-name="r" unicode="r" horiz-adv-x="761" 
d="M712 893q-3 -57 -62 -154q-124 64 -171 64q-60 0 -106 -58q-35 -53 -69 -106v-496q0 -108 135 -108q13 0 37 1t34 1l4 -37h-495v29q141 4 141 114v586q0 59 -144 90v37q88 10 249 102l39 -8v-236q120 224 214 224q48 0 194 -45z" />
    <glyph glyph-name="s" unicode="s" horiz-adv-x="841" 
d="M700 249q0 -105 -96 -179q-88 -70 -196 -70q-36 0 -107 13.5t-107 13.5q-38 0 -51 -39l-39 8l-10 258l23 4q89 -215 256 -215q194 0 194 175q0 101 -121 157q-112 48 -225 96q-121 74 -121 218q0 104 102 174q90 63 198 63q165 0 249 -50l13 -225l-23 -4q-64 136 -85 161
q-56 68 -162 68q-68 0 -121 -42q-58 -44 -58 -110q0 -81 126 -140q230 -107 234 -110q127 -84 127 -225z" />
    <glyph glyph-name="t" unicode="t" horiz-adv-x="708" 
d="M595 176q-89 -176 -245 -176q-93 0 -156 57q-66 60 -66 152v627h-97l-15 49q109 41 159 123q37 60 66 194h35v-287h319l-42 -79h-277v-566q0 -52 54 -112t106 -60q35 0 87.5 55.5l52.5 55.5q20 0 19 -33z" />
    <glyph glyph-name="u" unicode="u" horiz-adv-x="1160" 
d="M1074 123l-2 -41l-303 -86v180q-187 -186 -407 -186q-218 0 -218 297v442q0 61 -42 96t-104 35l-4 41l298 53v-651q0 -86 55 -146q56 -63 141 -63t281 142v550q0 75 -193 86v33l336 62v-781q0 -75 84 -75q22 0 78 12z" />
    <glyph glyph-name="v" unicode="v" horiz-adv-x="1047" 
d="M1047 915l-4 -36q-51 0 -101 -47q-43 -40 -66 -93l-329 -749h-54l-333 769q-53 120 -176 120v36h456v-36q-146 0 -146 -54q0 -16 247 -608q7 -16 15 -16q11 0 20 20l218 486q21 47 21 82q0 94 -157 94l11 32h378z" />
    <glyph glyph-name="w" unicode="w" horiz-adv-x="1554" 
d="M1552 915l-3 -36q-55 0 -103 -41q-44 -37 -66 -91l-304 -769h-52l-255 642l-261 -642h-51l-318 757q-61 144 -154 144v36h403l-4 -44q-122 0 -122 -56q0 -25 112 -288q67 -155 135 -310q7 -16 15 -16q9 0 18 20l201 476q-42 112 -60 133q-39 49 -130 49v36h432l-4 -36
q-137 0 -137 -54q0 -16 232 -608q7 -16 15 -16q10 0 18 20l198 486q20 49 20 86q0 90 -141 90l11 32h355z" />
    <glyph glyph-name="x" unicode="x" horiz-adv-x="1187" 
d="M1096 0h-449l4 46q51 8 60 11q34 13 34 43q0 35 -105 173q-69 87 -138 175q-253 -291 -253 -336q0 -56 147 -66v-46h-396l-8 33q128 25 197 108l287 341l-229 302q-57 75 -193 75l-3 58h445l-8 -42q-102 0 -102 -39q0 -28 174 -253l157 189q19 23 19 58q0 37 -109 54
l-4 33h419l-4 -29q-121 0 -253 -123q-18 -16 -196 -218q122 -158 311 -390q87 -108 188 -107z" />
    <glyph glyph-name="y" unicode="y" horiz-adv-x="1084" 
d="M1086 885q-111 0 -191 -152q-23 -43 -123 -291q-102 -270 -320 -803q-67 -152 -160 -152q-125 0 -125 65q0 95 138 129q87 22 148 129q21 38 80 190l-342 733q-33 71 -64 99q-36 32 -107 49l-5 36h449l-5 -40q-122 0 -122 -70q0 -18 274 -612q65 158 129 316
q105 259 105 284q0 90 -129 86l1 36h367z" />
    <glyph glyph-name="z" unicode="z" horiz-adv-x="970" 
d="M837 266l-102 -266h-716l-3 57l579 770h-381q-55 0 -91 -85q-21 -68 -41 -136l-43 4l78 344l35 13q31 -50 74 -50h603q-7 -19 -16 -40l-607 -783h456q46 0 90 68q27 52 53 104h32z" />
    <glyph glyph-name="braceleft" unicode="{" horiz-adv-x="662" 
d="M643 -176l-16 -39q-370 46 -370 275q0 68 20 200t20 198q0 89 -68 159q-62 65 -153 88q91 24 153 89q68 70 68 159q0 65 -20 197.5t-20 199.5q0 230 370 276l16 -40q-131 -29 -176 -63q-68 -50 -68 -165q0 -62 35.5 -184t35.5 -185q0 -202 -292 -284q292 -81 292 -283
q0 -64 -35.5 -185.5t-35.5 -183.5q0 -115 68 -165q45 -34 176 -64z" />
    <glyph glyph-name="bar" unicode="|" horiz-adv-x="419" 
d="M242 -481h-78v1899h78v-1899z" />
    <glyph glyph-name="braceright" unicode="}" horiz-adv-x="630" 
d="M578 705q-91 -23 -153 -88q-68 -70 -68 -159q0 -66 20 -198t20 -200q0 -229 -370 -275l-15 39q130 30 175 64q68 50 68 165q0 62 -35 183.5t-35 185.5q0 202 291 283q-291 82 -291 284q0 63 35 185t35 184q0 115 -68 165q-45 34 -175 63l15 40q370 -46 370 -276
q0 -67 -20 -199.5t-20 -197.5q0 -89 68 -159q62 -65 153 -89z" />
    <glyph glyph-name="asciitilde" unicode="~" horiz-adv-x="1093" 
d="M1016 936q-61 -263 -262 -263q-138 0 -284 83.5t-211 83.5q-68 0 -116 -48q-45 -43 -59 -113l-68 27q61 263 263 263q137 0 283.5 -83.5t210.5 -83.5q68 0 117 48q44 43 59 113z" />
    <glyph glyph-name="nonbreakingspace" unicode="&#xa0;" horiz-adv-x="615" 
 />
    <glyph glyph-name="exclamdown" unicode="&#xa1;" horiz-adv-x="476" 
d="M84 926q0 50 35.5 85.5t85.5 35.5t85.5 -35.5t35.5 -85.5t-35.5 -85.5t-85.5 -35.5t-85.5 35.5t-35.5 85.5zM90 -438q0 197 42 519q51 392 60 518h26q8 -126 60 -518q42 -322 42 -519q0 -23 -45.5 -49t-69.5 -26t-68 25q-47 27 -47 50z" />
    <glyph glyph-name="cent" unicode="&#xa2;" horiz-adv-x="917" 
d="M811 246q-124 -264 -393 -264q-53 0 -104 15l-101 -297l-69 16l102 308q-108 56 -173 170q-63 111 -63 236q0 222 152 367.5t371 135.5l14 -1l116 350l84 -23l-118 -345q159 -49 159 -119q0 -95 -90 -95q-54 0 -70 41t-30 82l-240 -701q61 -34 126 -34q187 0 286 169
q33 1 41 -11zM527 869q-26 6 -60 6q-151 0 -236 -137q-71 -117 -71 -277q0 -169 134 -293z" />
    <glyph glyph-name="sterling" unicode="&#xa3;" horiz-adv-x="1027" 
d="M986 260q-43 -140 -96 -204q-74 -91 -198 -91q-82 0 -147 42q-46 30 -114 105q-112 -153 -255 -153q-61 0 -108 43.5t-47 104.5q0 97 76 148q65 43 167 43q67 0 150 -45q3 29 3 58q0 125 -128 362h-244v64h211q-81 163 -81 296q0 191 119 299q115 104 308 104
q94 0 212 -62q134 -70 134 -155q0 -36 -27 -63t-63 -27q-67 0 -88 61q-37 105 -44 114q-47 62 -174 62q-94 0 -168 -55q-82 -60 -82 -150q0 -107 46 -221q22 -56 100 -203h303v-64h-271q59 -124 59 -231q0 -118 -51 -232q178 -110 275 -110q133 0 191 166zM391 155
q-103 106 -193 106q-47 0 -89.5 -49t-42.5 -96q0 -64 39 -88q29 -17 95 -17q134 0 191 144z" />
    <glyph glyph-name="currency" unicode="&#xa4;" horiz-adv-x="1107" 
d="M948 1212l-134 -135q91 -104 91 -243t-91 -243l129 -129l-34 -34l-129 129q-104 -91 -243 -91t-243 92l-129 -129l-33 33l129 129q-92 104 -92 243t92 243l-129 129l33 33l129 -129q104 92 243 92t243 -91l135 134zM828 834q0 121 -85 206t-206 85q-120 0 -205 -85
t-85 -206q0 -120 85 -205t205 -85q121 0 206 85t85 205z" />
    <glyph glyph-name="yen" unicode="&#xa5;" horiz-adv-x="1246" 
d="M1149 1418l-3 -41q-75 -4 -101 -24q-20 -16 -55 -89l-296 -610h388v-63h-418v-175h418v-63h-418v-146q0 -97 38 -134.5t135 -36.5v-35h-490v35q177 0 177 171v146h-408v63h408v130l-22 45h-386v63h355l-304 614q-28 56 -56.5 76t-90.5 29l-17 45h461l-8 -49
q-160 -13 -160 -50q0 -17 326 -664l309 656q-1 55 -146 64l-23 43h387z" />
    <glyph glyph-name="brokenbar" unicode="&#xa6;" horiz-adv-x="407" 
d="M242 711h-78v707h78v-707zM242 -481h-78v708h78v-708z" />
    <glyph glyph-name="section" unicode="&#xa7;" horiz-adv-x="923" 
d="M825 463q0 -86 -76 -186q-61 -81 -147 -144q119 -115 119 -256q0 -98 -85.5 -192t-182.5 -94q-99 0 -177 52q-90 59 -90 153q0 41 22 72q24 36 63 36q74 0 74 -72q0 -14 -7 -38t-7 -36q0 -54 43 -87q39 -29 96 -29q129 0 129 174q0 124 -127 231q-119 93 -237 185
q-127 122 -127 282q0 85 75 186q61 80 147 144q-118 115 -118 256q0 98 85.5 191.5t182.5 93.5q98 0 177 -52q89 -59 89 -152q0 -41 -21 -73q-24 -35 -64 -35q-73 0 -73 72q0 14 7 38t7 36q0 54 -44 87q-39 29 -95 29q-130 0 -130 -175q0 -124 128 -231l236 -184
q128 -122 128 -282zM711 397q0 100 -134 232q-108 93 -215 186q-141 -102 -141 -235q0 -100 135 -232q107 -93 215 -186q140 101 140 235z" />
    <glyph glyph-name="dieresis" unicode="&#xa8;" horiz-adv-x="747" 
d="M597 1280q0 -43 -30 -73.5t-73 -30.5t-73 30.5t-30 73.5t30 73t73 30t73 -30t30 -73zM249 1280q0 -43 -30.5 -73.5t-72.5 -30.5q-43 0 -73.5 30.5t-30.5 73.5t30.5 73t73.5 30q42 0 72.5 -30t30.5 -73z" />
    <glyph glyph-name="copyright" unicode="&#xa9;" horiz-adv-x="1548" 
d="M1400 704q0 -277 -196.5 -473t-473.5 -196q-276 0 -472.5 196t-196.5 473t196.5 473t472.5 196q277 0 473.5 -196t196.5 -473zM1350 704q0 256 -181.5 437.5t-438.5 181.5q-256 0 -437.5 -181.5t-181.5 -437.5t181.5 -437.5t437.5 -181.5q257 0 438.5 181.5t181.5 437.5z
M1062 511q-38 -111 -112 -183q-176 -29 -229 -29q-170 0 -289 107q-122 111 -122 280q0 186 121 317q125 133 310 133q122 0 219 -45q31 -14 40 -14q11 0 17 9l18 -1l8 -177h-21q-25 93 -105 147q-76 51 -176 51q-147 0 -238 -120q-83 -110 -83 -261q0 -158 90 -273
q97 -125 250 -125q87 0 165.5 55t112.5 136z" />
    <glyph glyph-name="ordfeminine" unicode="&#xaa;" horiz-adv-x="791" 
d="M666 817q-106 -78 -151 -78q-59 0 -80 89q-79 -58 -89 -64q-47 -26 -105 -26q-57 0 -97 39.5t-40 97.5q0 70 56 116q34 27 119 62l154 63v101q0 54 -38.5 90.5t-92.5 36.5q-86 0 -86 -92q0 -5 2.5 -15.5t2.5 -15.5q0 -26 -38 -46q-33 -17 -61 -17q-12 0 -12 19
q0 90 76 148q70 52 163 52q185 0 185 -163v-349q0 -58 40 -58q26 0 90 38zM651 409h-564v69h564v-69zM433 873v204q-75 -32 -150 -65q-82 -48 -82 -127q0 -84 89 -84q55 0 143 72z" />
    <glyph glyph-name="guillemotleft" unicode="&#xab;" horiz-adv-x="1018" 
d="M902 228l-32 -56l-389 482l389 483l32 -57l-233 -426zM480 228l-32 -56l-389 482l389 483l32 -57l-233 -426z" />
    <glyph glyph-name="logicalnot" unicode="&#xac;" horiz-adv-x="1216" 
d="M1022 466h-88v351h-890v100h978v-451z" />
    <glyph glyph-name="registered" unicode="&#xae;" horiz-adv-x="1548" 
d="M1400 704q0 -277 -196.5 -473t-473.5 -196q-276 0 -472.5 196t-196.5 473t196.5 473t472.5 196q277 0 473.5 -196t196.5 -473zM1350 704q0 256 -181.5 437.5t-438.5 181.5q-256 0 -437.5 -181.5t-181.5 -437.5t181.5 -437.5t437.5 -181.5q257 0 438.5 181.5t181.5 437.5z
M1156 279h-6q-96 -3 -173 60q-59 48 -119 146q-47 81 -93 162q-30 -5 -59 -5q-43 0 -112 19l-1 -256q0 -56 44 -85q39 -26 96 -23l5 -17l-1 -6h-376l4 27h7q63 0 88 24.5t25 87.5v635q0 83 -120 81v24q86 11 253 11q185 0 273 -35q140 -56 140 -212q0 -158 -168 -238
l187 -290q50 -78 102 -79zM902 917q0 89 -56 153.5t-144 64.5q25 0 -108 -12v-429q42 -12 124 -12q184 0 184 235z" />
    <glyph glyph-name="overscore" unicode="&#xaf;" horiz-adv-x="1025" 
d="M973 1418h-973v102h973v-102z" />
    <glyph glyph-name="degree" unicode="&#xb0;" horiz-adv-x="866" 
d="M736 1074q0 -131 -93 -224t-225 -93q-131 0 -224 93t-93 224q0 132 93 225t224 93q132 0 225 -93t93 -225zM622 1072q0 84 -59.5 143.5t-144.5 59.5q-84 0 -143.5 -59.5t-59.5 -143.5q0 -85 59.5 -144.5t143.5 -59.5q85 0 144.5 59.5t59.5 144.5z" />
    <glyph glyph-name="plusminus" unicode="&#xb1;" horiz-adv-x="1009" 
d="M937 667h-368v-368h-94v368h-368v94h368v368h94v-368h368v-94zM937 121h-830v94h830v-94z" />
    <glyph glyph-name="twosuperior" unicode="&#xb2;" horiz-adv-x="656" 
d="M573 807q0 -10 -48 -155h-454l-10 32q362 294 362 533q0 141 -127 141q-141 0 -215 -134l-24 11q29 81 100 136q75 59 158 59q76 0 129.5 -48t53.5 -123q0 -242 -328 -534h297q30 0 57.5 46.5t24.5 46.5q-11 0 24 -11z" />
    <glyph glyph-name="threesuperior" unicode="&#xb3;" horiz-adv-x="608" 
d="M496 923q0 -151 -83 -216q-73 -59 -230 -59q-130 0 -130 77q0 44 44 44q39 0 82 -37.5t85 -37.5q151 0 151 211q0 58 -28 108q-34 60 -88 60q-56 0 -119 -31l-11 28q49 14 117 75q73 67 73 111q0 52 -39 89t-91 37q-62 0 -165 -98l-18 7q57 87 97 120q59 49 142 49
q71 0 123.5 -46t52.5 -116q0 -60 -37 -99q-25 -27 -90 -62q77 -5 122 -73q40 -61 40 -141z" />
    <glyph glyph-name="acute" unicode="&#xb4;" horiz-adv-x="620" 
d="M487 1383l-304 -372l-24 30l154 401z" />
    <glyph glyph-name="mu1" unicode="&#xb5;" horiz-adv-x="1192" 
d="M1089 130q-22 -53 -89 -105q-70 -53 -125 -53q-75 0 -97 71q-12 39 -9 133q-187 -186 -407 -186q-49 0 -87 16q22 -255 22 -323q0 -64 -19 -123q-27 -82 -76 -82q-39 0 -66 87q-20 67 -20 118q0 78 13 230q14 156 15 231q0 64 3 255q2 159 2 255t-24 142q-35 64 -127 64
l-4 41l298 53v-651q0 -86 55 -146q56 -63 141 -63q86 0 281 142v550q0 76 -193 86v33l336 62v-781q0 -86 61 -86q14 0 42 35q30 39 45 43z" />
    <glyph glyph-name="paragraph" unicode="&#xb6;" horiz-adv-x="1022" 
d="M1023 1350h-189v-1831h-79v1831h-173v-1831h-78v1068q-243 7 -363 95q-141 105 -141 338q0 187 176 300q153 98 351 98h496v-68z" />
    <glyph glyph-name="middot" unicode="&#xb7;" horiz-adv-x="639" 
d="M456 790q0 -43 -30.5 -73.5t-72.5 -30.5q-43 0 -73.5 30.5t-30.5 73.5q0 42 30.5 72.5t73.5 30.5q42 0 72.5 -30.5t30.5 -72.5z" />
    <glyph glyph-name="middot" unicode="&#x2219;" horiz-adv-x="639" 
d="M456 790q0 -43 -30.5 -73.5t-72.5 -30.5q-43 0 -73.5 30.5t-30.5 73.5q0 42 30.5 72.5t73.5 30.5q42 0 72.5 -30.5t30.5 -72.5z" />
    <glyph glyph-name="cedilla" unicode="&#xb8;" horiz-adv-x="633" 
d="M526 -226q0 -80 -89 -128q-75 -41 -163 -41q-84 0 -142 30v29q50 -15 124 -15q53 0 99 28q54 33 54 83q0 77 -99 77q-37 0 -69 -9l124 194h55l-58 -101q64 -8 111 -44q53 -42 53 -103z" />
    <glyph glyph-name="onesuperior" unicode="&#xb9;" horiz-adv-x="544" 
d="M450 656h-317v19q115 0 115 93v575q-39 -25 -120 -62l-10 24q109 55 188 133h33v-670q0 -57 30 -77q23 -16 81 -16v-19z" />
    <glyph glyph-name="ordmasculine" unicode="&#xba;" horiz-adv-x="776" 
d="M682 1074q0 -141 -89.5 -228.5t-230.5 -87.5q-127 0 -220 90t-93 217q0 145 85.5 236.5t229.5 91.5q137 0 227.5 -91t90.5 -228zM651 409h-564v69h564v-69zM560 1014q0 134 -42 224q-56 120 -174 120q-107 0 -147 -86q-28 -59 -28 -178q0 -110 53 -197q62 -102 165 -102
q173 0 173 219z" />
    <glyph glyph-name="guillemotright" unicode="&#xbb;" horiz-adv-x="988" 
d="M940 654l-389 -482l-32 56l233 426l-233 426l32 57zM518 654l-389 -482l-32 56l233 426l-233 426l32 57z" />
    <glyph glyph-name="onequarter" unicode="&#xbc;" horiz-adv-x="1206" 
d="M324 663h-314v18q114 0 114 93v569q-38 -24 -118 -60l-11 23q109 54 187 132h32v-664q0 -57 30 -77q23 -16 80 -16v-18zM1153 222h-127v-224h-75v224h-318v34l366 527h27v-493h127v-68zM951 656l-250 -366h250v366zM897 1400l-624 -1415l-90 19l631 1415z" />
    <glyph glyph-name="onehalf" unicode="&#xbd;" horiz-adv-x="1305" 
d="M324 663h-314v18q114 0 114 93v569q-38 -24 -118 -60l-11 23q109 54 187 132h32v-664q0 -57 30 -77q23 -16 80 -16v-18zM897 1400l-624 -1415l-90 19l631 1415zM1207 149q0 -11 -46 -149h-436l-9 31q347 281 347 511q0 134 -121 134q-136 0 -207 -128l-23 10
q28 78 96 131q72 56 151 56q74 0 125 -45.5t51 -118.5q0 -232 -315 -511h286q28 0 54.5 44t23.5 44q-10 0 23 -9z" />
    <glyph glyph-name="threequarters" unicode="&#xbe;" horiz-adv-x="1277" 
d="M1224 222h-126v-224h-76v224h-318v34l366 527h28v-493h126v-68zM1022 656l-249 -366h249v366zM968 1400l-624 -1415l-90 19l631 1415zM476 949q0 -143 -78 -205q-70 -55 -217 -55q-124 0 -124 73q0 41 42 41q37 0 77.5 -35.5t80.5 -35.5q143 0 143 199q0 55 -27 103
q-32 57 -83 57q-53 0 -113 -30l-10 27q46 13 110 71q70 63 70 105q0 48 -37 83.5t-86 35.5q-59 0 -156 -93l-17 7q54 82 91 113q56 46 135 46q67 0 116.5 -43t49.5 -110q0 -88 -120 -152q73 -5 115 -69q38 -57 38 -133z" />
    <glyph glyph-name="questiondown" unicode="&#xbf;" horiz-adv-x="749" 
d="M29 -208q0 131 88 229q13 15 167 142q93 78 102 153q5 49 5 89q0 108 -50 153l51 19q96 -138 96 -261q0 -96 -67 -172q-29 -32 -143 -121q-69 -53 -91 -107q-18 -44 -18 -135q0 -92 46 -152q50 -65 139 -65q51 0 105 55q50 51 61 104q17 90 89 90q60 0 60 -76
q0 -103 -116 -177q-102 -66 -212 -66q-135 0 -222 81q-90 83 -90 217zM258 832q0 50 36 85.5t86 35.5q49 0 85 -35.5t36 -85.5t-36 -85.5t-85 -35.5q-50 0 -86 35.5t-36 85.5z" />
    <glyph glyph-name="Agrave" unicode="&#xc0;" horiz-adv-x="1559" 
d="M1455 0h-586v45h144q65 0 65 70q0 47 -35 140l-105 279q-15 41 -43 41h-394q-31 0 -45 -37q-44 -108 -88 -217q-69 -176 -69 -206q0 -72 80 -72l2 2h131v-45h-494v45h69q85 0 142 150l443 1167q4 9 4 19q0 18 -11 27l6 10h121l476 -1258q29 -77 69 -98q32 -17 118 -17
v-45zM872 686q0 21 -1 26l-159 420q-4 11 -15 18q-10 0 -16 -18q-171 -450 -171 -454q0 -13 11 -13h331q20 0 20 21zM851 1448l-24 -30l-303 372l174 59z" />
    <glyph glyph-name="Aacute" unicode="&#xc1;" horiz-adv-x="1559" 
d="M1455 0h-586v45h144q65 0 65 70q0 47 -35 140l-105 279q-15 41 -43 41h-394q-31 0 -45 -37q-44 -108 -88 -217q-69 -176 -69 -206q0 -72 80 -72l2 2h131v-45h-494v45h69q85 0 142 150l443 1167q4 9 4 19q0 18 -11 27l6 10h121l476 -1258q29 -77 69 -98q32 -17 118 -17
v-45zM872 686q0 21 -1 26l-159 420q-4 11 -15 18q-10 0 -16 -18q-171 -450 -171 -454q0 -13 11 -13h331q20 0 20 21zM934 1790l-304 -372l-24 30l154 401z" />
    <glyph glyph-name="Acircumflex" unicode="&#xc2;" horiz-adv-x="1557" 
d="M1455 0h-586v45h144q65 0 65 70q0 47 -35 140l-105 279q-15 41 -43 41h-394q-31 0 -45 -37q-44 -108 -88 -217q-69 -176 -69 -206q0 -72 80 -72l2 2h131v-45h-494v45h69q85 0 142 150l443 1167q4 9 4 19q0 18 -11 27l6 10h121l476 -1258q29 -77 69 -98q32 -17 118 -17
v-45zM872 686q0 21 -1 26l-159 420q-4 11 -15 18q-10 0 -16 -18q-171 -450 -171 -454q0 -13 11 -13h331q20 0 20 21zM1027 1484l-48 -12l-254 195l-206 -207l-42 18l237 337l70 -12z" />
    <glyph glyph-name="Atilde" unicode="&#xc3;" horiz-adv-x="1553" 
d="M1455 0h-586v45h144q65 0 65 70q0 47 -35 140l-105 279q-15 41 -43 41h-394q-31 0 -45 -37q-44 -108 -88 -217q-69 -176 -69 -206q0 -72 80 -72l2 2h131v-45h-494v45h69q85 0 142 150l443 1167q4 9 4 19q0 18 -11 27l6 10h121l476 -1258q29 -77 69 -98q32 -17 118 -17
v-45zM872 686q0 21 -1 26l-159 420q-4 11 -15 18q-10 0 -16 -18q-171 -450 -171 -454q0 -13 11 -13h331q20 0 20 21zM1059 1749q-38 -218 -160 -218q-88 0 -175 69t-127 69q-87 0 -107 -133l-42 22q38 218 161 218q88 0 174.5 -69t127.5 -69q86 0 107 133z" />
    <glyph glyph-name="Adieresis" unicode="&#xc4;" horiz-adv-x="1559" 
d="M1455 0h-586v45h144q65 0 65 70q0 47 -35 140l-105 279q-15 41 -43 41h-394q-31 0 -45 -37q-44 -108 -88 -217q-69 -176 -69 -206q0 -72 80 -72l2 2h131v-45h-494v45h69q85 0 142 150l443 1167q4 9 4 19q0 18 -11 27l6 10h121l476 -1258q29 -77 69 -98q32 -17 118 -17
v-45zM872 686q0 21 -1 26l-159 420q-4 11 -15 18q-10 0 -16 -18q-171 -450 -171 -454q0 -13 11 -13h331q20 0 20 21zM1010 1651q0 -43 -30 -73.5t-73 -30.5t-73 30.5t-30 73.5t30 73t73 30t73 -30t30 -73zM662 1651q0 -43 -30.5 -73.5t-72.5 -30.5q-43 0 -73.5 30.5
t-30.5 73.5t30.5 73t73.5 30q42 0 72.5 -30t30.5 -73z" />
    <glyph glyph-name="Aring" unicode="&#xc5;" horiz-adv-x="1560" 
d="M1455 0h-586v45h144q65 0 65 70q0 47 -35 140l-105 279q-15 41 -43 41h-394q-31 0 -45 -37q-44 -108 -88 -217q-69 -176 -69 -206q0 -72 80 -72l2 2h131v-45h-494v45h69q85 0 142 150l443 1167q4 9 4 19q0 18 -11 27l6 10h121l476 -1258q29 -77 69 -98q32 -17 118 -17
v-45zM872 686q0 21 -1 26l-159 420q-4 11 -15 18q-10 0 -16 -18q-171 -450 -171 -454q0 -13 11 -13h331q20 0 20 21zM924 1527q0 -82 -58 -140t-139 -58q-82 0 -140 58t-58 140t58 140t140 58q81 0 139 -58t58 -140zM853 1526q0 52 -37 89.5t-89 37.5q-53 0 -90 -37.5
t-37 -89.5q0 -53 37 -90t90 -37q52 0 89 37t37 90z" />
    <glyph glyph-name="AE" unicode="&#xc6;" horiz-adv-x="1771" 
d="M1661 335l-38 -337h-1057v37l45 2l2 8q177 -9 177 126v394q-4 10 -16 10h-282q-20 0 -42 -37q-228 -382 -228 -449q0 -47 41 -46l2 2h93l-12 -45h-352l12 45h49q61 0 141 150l591 1097q-10 62 -77 81q-36 10 -121 10v35h992l10 -307h-34q-23 232 -141 232h-456v-565h363
q87 0 113 175h31v-431h-31q-31 186 -113 186h-363v-519q0 -111 80 -111h397q141 0 186 261zM790 697l-4 453q-8 -2 -17 -18q-62 -105 -243 -454q0 -8 4 -13h237q23 0 23 32z" />
    <glyph glyph-name="Ccedilla" unicode="&#xc7;" horiz-adv-x="1407" 
d="M1326 354q-66 -191 -191 -315q-306 -49 -393 -49q-292 0 -495 184q-209 190 -209 479q0 320 207 543q213 228 532 228q209 0 375 -77q53 -24 68 -24q20 0 30 15l31 -2l14 -302h-37q-43 160 -180 252q-130 88 -301 88q-252 0 -408 -206q-142 -188 -142 -448
q0 -271 153 -468q166 -214 430 -214q147 0 284 96q134 94 191 232zM863 -226q0 -80 -89 -128q-75 -41 -163 -41q-84 0 -142 30v29q50 -15 124 -15q53 0 99 28q54 33 54 83q0 77 -99 77q-37 0 -69 -9l124 194h55l-58 -101q64 -8 111 -44q53 -42 53 -103z" />
    <glyph glyph-name="Egrave" unicode="&#xc8;" horiz-adv-x="1261" 
d="M1159 337l-40 -337h-1126v37q239 3 239 136v1078q0 78 -41 105q-44 29 -174 29v35h1057l11 -307h-37q-24 231 -149 231h-486v-564h387q93 0 120 175h33v-432h-33q-33 187 -120 187h-387v-519q0 -111 85 -111h423q150 0 198 260zM724 1448l-24 -30l-303 372l174 59z" />
    <glyph glyph-name="Eacute" unicode="&#xc9;" horiz-adv-x="1255" 
d="M1159 337l-40 -337h-1126v37q239 3 239 136v1078q0 78 -41 105q-44 29 -174 29v35h1057l11 -307h-37q-24 231 -149 231h-486v-564h387q93 0 120 175h33v-432h-33q-33 187 -120 187h-387v-519q0 -111 85 -111h423q150 0 198 260zM882 1790l-304 -372l-24 30l154 401z" />
    <glyph glyph-name="Ecircumflex" unicode="&#xca;" horiz-adv-x="1260" 
d="M1159 337l-40 -337h-1126v37q239 3 239 136v1078q0 78 -41 105q-44 29 -174 29v35h1057l11 -307h-37q-24 231 -149 231h-486v-564h387q93 0 120 175h33v-432h-33q-33 187 -120 187h-387v-519q0 -111 85 -111h423q150 0 198 260zM921 1484l-48 -12l-254 195l-206 -207
l-42 18l237 337l70 -12z" />
    <glyph glyph-name="Edieresis" unicode="&#xcb;" horiz-adv-x="1259" 
d="M1159 337l-40 -337h-1126v37q239 3 239 136v1078q0 78 -41 105q-44 29 -174 29v35h1057l11 -307h-37q-24 231 -149 231h-486v-564h387q93 0 120 175h33v-432h-33q-33 187 -120 187h-387v-519q0 -111 85 -111h423q150 0 198 260zM884 1651q0 -43 -30 -73.5t-73 -30.5
t-73 30.5t-30 73.5t30 73t73 30t73 -30t30 -73zM536 1651q0 -43 -30.5 -73.5t-72.5 -30.5q-43 0 -73.5 30.5t-30.5 73.5t30.5 73t73.5 30q42 0 72.5 -30t30.5 -73z" />
    <glyph glyph-name="Igrave" unicode="&#xcc;" horiz-adv-x="756" 
d="M623 1385q-206 0 -206 -171v-1007q0 -103 54 -141q44 -31 151 -30v-35h-583v35q212 0 212 171v1007q0 103 -53 141q-44 31 -152 30v35h577v-35zM437 1448l-24 -30l-303 372l174 59z" />
    <glyph glyph-name="Iacute" unicode="&#xcd;" horiz-adv-x="760" 
d="M623 1385q-206 0 -206 -171v-1007q0 -103 54 -141q44 -31 151 -30v-35h-583v35q212 0 212 171v1007q0 103 -53 141q-44 31 -152 30v35h577v-35zM547 1790l-304 -372l-24 30l154 401z" />
    <glyph glyph-name="Icircumflex" unicode="&#xce;" horiz-adv-x="761" 
d="M623 1385q-206 0 -206 -171v-1007q0 -103 54 -141q44 -31 151 -30v-35h-583v35q212 0 212 171v1007q0 103 -53 141q-44 31 -152 30v35h577v-35zM626 1484l-48 -12l-254 195l-206 -207l-42 18l237 337l70 -12z" />
    <glyph glyph-name="Idieresis" unicode="&#xcf;" horiz-adv-x="761" 
d="M623 1385q-206 0 -206 -171v-1007q0 -103 54 -141q44 -31 151 -30v-35h-583v35q212 0 212 171v1007q0 103 -53 141q-44 31 -152 30v35h577v-35zM609 1651q0 -43 -30 -73.5t-73 -30.5t-73 30.5t-30 73.5t30 73t73 30t73 -30t30 -73zM261 1651q0 -43 -30.5 -73.5
t-72.5 -30.5q-43 0 -73.5 30.5t-30.5 73.5t30.5 73t73.5 30q42 0 72.5 -30t30.5 -73z" />
    <glyph glyph-name="Eth" unicode="&#xd0;" horiz-adv-x="1562" 
d="M1419 754q0 -328 -210 -541t-538 -213h-652v42q102 -1 144 31q49 37 49 135v503h-155v75h155v478q0 114 -132 114q-23 0 -52 -3v39q160 19 435 19q409 0 648 -132q308 -171 308 -547zM1199 716q0 671 -700 671q-49 0 -111 -4v-597h441v-75h-441v-524q0 -148 80 -148h203
q269 0 408 213q120 181 120 464z" />
    <glyph glyph-name="Ntilde" unicode="&#xd1;" horiz-adv-x="1577" 
d="M1562 1406q0 -17 -3 -37q-109 -13 -119 -17q-53 -21 -53 -98v-1254h-44l-1074 1204v-1036q0 -130 171 -130q23 0 45 3v-41h-451l-12 41q165 0 165 83v1137q0 50 -60 82q-46 25 -105 32l6 43h318l953 -1116v952q0 61 -62 92q-50 25 -116 23v49h438zM1127 1749
q-38 -218 -160 -218q-88 0 -175 69t-127 69q-87 0 -107 -133l-42 22q38 218 161 218q88 0 174.5 -69t127.5 -69q86 0 107 133z" />
    <glyph glyph-name="Ograve" unicode="&#xd2;" horiz-adv-x="1618" 
d="M1478 755q0 -329 -199 -545q-205 -222 -531 -222q-320 0 -524 179q-215 188 -215 502q0 329 197 545q204 222 530 222q320 0 526 -179q216 -188 216 -502zM1276 681q0 270 -136 470q-155 228 -413 228t-392 -202q-114 -173 -114 -445q0 -268 133 -463q152 -222 408 -222
q260 0 396 193q118 169 118 441zM829 1448l-24 -30l-303 372l174 59z" />
    <glyph glyph-name="Oacute" unicode="&#xd3;" horiz-adv-x="1619" 
d="M1478 755q0 -329 -199 -545q-205 -222 -531 -222q-320 0 -524 179q-215 188 -215 502q0 329 197 545q204 222 530 222q320 0 526 -179q216 -188 216 -502zM1276 681q0 270 -136 470q-155 228 -413 228t-392 -202q-114 -173 -114 -445q0 -268 133 -463q152 -222 408 -222
q260 0 396 193q118 169 118 441zM979 1790l-304 -372l-24 30l154 401z" />
    <glyph glyph-name="Ocircumflex" unicode="&#xd4;" horiz-adv-x="1618" 
d="M1478 755q0 -329 -199 -545q-205 -222 -531 -222q-320 0 -524 179q-215 188 -215 502q0 329 197 545q204 222 530 222q320 0 526 -179q216 -188 216 -502zM1276 681q0 270 -136 470q-155 228 -413 228t-392 -202q-114 -173 -114 -445q0 -268 133 -463q152 -222 408 -222
q260 0 396 193q118 169 118 441zM1011 1484l-48 -12l-254 195l-206 -207l-42 18l237 337l70 -12z" />
    <glyph glyph-name="Otilde" unicode="&#xd5;" horiz-adv-x="1618" 
d="M1478 755q0 -329 -199 -545q-205 -222 -531 -222q-320 0 -524 179q-215 188 -215 502q0 329 197 545q204 222 530 222q320 0 526 -179q216 -188 216 -502zM1276 681q0 270 -136 470q-155 228 -413 228t-392 -202q-114 -173 -114 -445q0 -268 133 -463q152 -222 408 -222
q260 0 396 193q118 169 118 441zM1029 1749q-38 -218 -160 -218q-88 0 -175 69t-127 69q-87 0 -107 -133l-42 22q38 218 161 218q88 0 174.5 -69t127.5 -69q86 0 107 133z" />
    <glyph glyph-name="Odieresis" unicode="&#xd6;" horiz-adv-x="1618" 
d="M1478 755q0 -329 -199 -545q-205 -222 -531 -222q-320 0 -524 179q-215 188 -215 502q0 329 197 545q204 222 530 222q320 0 526 -179q216 -188 216 -502zM1276 681q0 270 -136 470q-155 228 -413 228t-392 -202q-114 -173 -114 -445q0 -268 133 -463q152 -222 408 -222
q260 0 396 193q118 169 118 441zM1008 1651q0 -43 -30 -73.5t-73 -30.5t-73 30.5t-30 73.5t30 73t73 30t73 -30t30 -73zM660 1651q0 -43 -30.5 -73.5t-72.5 -30.5q-43 0 -73.5 30.5t-30.5 73.5t30.5 73t73.5 30q42 0 72.5 -30t30.5 -73z" />
    <glyph glyph-name="multiply" unicode="&#xd7;" horiz-adv-x="991" 
d="M847 369l-45 -47l-309 325l-310 -325l-44 47l309 325l-309 307l44 51l310 -306l309 306l45 -51l-310 -307z" />
    <glyph glyph-name="Oslash" unicode="&#xd8;" horiz-adv-x="1622" 
d="M1478 755q0 -329 -199 -545q-205 -222 -531 -222q-269 0 -462 131l-138 -164l-58 51l135 160q-216 187 -216 503q0 329 197 544q204 223 530 223q264 0 456 -126l129 152l58 -45l-128 -151q227 -188 227 -511zM1101 1202q-149 177 -374 177q-258 0 -392 -202
q-114 -173 -114 -445q0 -246 115 -435zM1276 681q0 262 -130 461l-765 -910q148 -185 381 -185q260 0 396 194q118 169 118 440z" />
    <glyph glyph-name="Ugrave" unicode="&#xd9;" horiz-adv-x="1468" 
d="M1472 1416l-1 -51l-2 -2q-110 -17 -131 -28q-51 -27 -51 -116v-791q0 -210 -183 -335q-162 -110 -382 -110q-248 0 -411 141q-172 148 -172 392v753q0 104 -163 100l13 49h489l-6 -49q-176 -16 -176 -113v-778q0 -150 170 -277q158 -118 313 -118q170 0 288 96
q126 103 126 268v734q0 191 -169 188l-13 49zM860 1448l-24 -30l-303 372l174 59z" />
    <glyph glyph-name="Uacute" unicode="&#xda;" horiz-adv-x="1457" 
d="M1472 1416l-1 -51l-2 -2q-110 -17 -131 -28q-51 -27 -51 -116v-791q0 -210 -183 -335q-162 -110 -382 -110q-248 0 -411 141q-172 148 -172 392v753q0 104 -163 100l13 49h489l-6 -49q-176 -16 -176 -113v-778q0 -150 170 -277q158 -118 313 -118q170 0 288 96
q126 103 126 268v734q0 191 -169 188l-13 49zM989 1790l-304 -372l-24 30l154 401z" />
    <glyph glyph-name="Ucircumflex" unicode="&#xdb;" horiz-adv-x="1468" 
d="M1472 1416l-1 -51l-2 -2q-110 -17 -131 -28q-51 -27 -51 -116v-791q0 -210 -183 -335q-162 -110 -382 -110q-248 0 -411 141q-172 148 -172 392v753q0 104 -163 100l13 49h489l-6 -49q-176 -16 -176 -113v-778q0 -150 170 -277q158 -118 313 -118q170 0 288 96
q126 103 126 268v734q0 191 -169 188l-13 49zM1028 1484l-48 -12l-254 195l-206 -207l-42 18l237 337l70 -12z" />
    <glyph glyph-name="Udieresis" unicode="&#xdc;" horiz-adv-x="1457" 
d="M1472 1416l-1 -51l-2 -2q-110 -17 -131 -28q-51 -27 -51 -116v-791q0 -210 -183 -335q-162 -110 -382 -110q-248 0 -411 141q-172 148 -172 392v753q0 104 -163 100l13 49h489l-6 -49q-176 -16 -176 -113v-778q0 -150 170 -277q158 -118 313 -118q170 0 288 96
q126 103 126 268v734q0 191 -169 188l-13 49zM1006 1651q0 -43 -30 -73.5t-73 -30.5t-73 30.5t-30 73.5t30 73t73 30t73 -30t30 -73zM658 1651q0 -43 -30.5 -73.5t-72.5 -30.5q-43 0 -73.5 30.5t-30.5 73.5t30.5 73t73.5 30q42 0 72.5 -30t30.5 -73z" />
    <glyph glyph-name="Yacute" unicode="&#xdd;" horiz-adv-x="1253" 
d="M1343 1418l-4 -41q-89 -4 -116 -21t-70 -92l-387 -671v-386q0 -103 53 -141q43 -30 152 -30v-35h-583v35q211 0 211 171v339l-425 722q-34 58 -71 79q-30 16 -104 26l-19 45h547l-9 -49q-190 -15 -190 -50q0 -15 388 -664l367 656q-1 54 -173 64l-28 43h461zM918 1790
l-304 -372l-24 30l154 401z" />
    <glyph glyph-name="Thorn" unicode="&#xde;" horiz-adv-x="1161" 
d="M1047 675q0 -203 -184 -299q-143 -73 -371 -73q-37 0 -75 2v-98q0 -103 54 -141q44 -31 151 -30v-35h-583v35q212 -1 212 171v1007q0 103 -53 141q-45 31 -152 30v35h577v-35q-121 0 -164 -47.5t-43 -167.5q0 -19 1 -58t1 -57q272 -3 413 -62q216 -89 216 -318zM834 711
q0 161 -137 223q-82 38 -279 52l-1 -605q241 11 310 53q107 63 107 277z" />
    <glyph glyph-name="germandbls" unicode="&#xdf;" horiz-adv-x="1066" 
d="M974 433q0 -163 -110 -301q-117 -148 -275 -148q-146 0 -146 152q0 36 26.5 71.5t61.5 35.5q83 0 83 -72q0 -19 -23.5 -43.5t-23.5 -25.5q0 -18 31 -34q27 -14 47 -14q116 0 153 128q18 65 18 224q0 314 -305 314q-32 0 -68 -3l6 63q253 77 253 348q0 100 -47 161
q-52 67 -149 67q-120 0 -157 -112q-20 -60 -20 -211v-1033h-310v41l12 -1q44 -2 85.5 25t41.5 71v954q0 138 88 238q91 104 227 104q147 0 254 -66q127 -77 127 -213q0 -112 -76 -222.5t-184 -150.5q47 11 89 11q141 0 220 -111q71 -99 71 -247z" />
    <glyph glyph-name="agrave" unicode="&#xe0;" horiz-adv-x="967" 
d="M912 100q-100 -73 -102 -75q-65 -40 -120 -40q-86 0 -118 131q-121 -88 -134 -95q-66 -37 -152 -37q-85 0 -143.5 58.5t-58.5 142.5q0 105 83 172q49 39 175 91l226 93v149q0 79 -56.5 133t-136.5 54q-127 0 -127 -135q0 -9 4 -24t4 -23q0 -37 -56 -66q-49 -26 -90 -26
q-17 0 -17 28q0 133 112 218q102 78 240 78t202 -51q71 -56 71 -190v-515q0 -86 59 -86q37 0 133 56zM569 183l-1 300l-203 -89q-137 -60 -137 -193q0 -57 37 -91t94 -34q59 0 114 33q24 15 96 74zM465 1041l-24 -30l-303 372l174 59z" />
    <glyph glyph-name="aacute" unicode="&#xe1;" horiz-adv-x="968" 
d="M912 100q-100 -73 -102 -75q-65 -40 -120 -40q-86 0 -118 131q-121 -88 -134 -95q-66 -37 -152 -37q-85 0 -143.5 58.5t-58.5 142.5q0 105 83 172q49 39 175 91l226 93v149q0 79 -56.5 133t-136.5 54q-127 0 -127 -135q0 -9 4 -24t4 -23q0 -37 -56 -66q-49 -26 -90 -26
q-17 0 -17 28q0 133 112 218q102 78 240 78t202 -51q71 -56 71 -190v-515q0 -86 59 -86q37 0 133 56zM569 183l-1 300l-203 -89q-137 -60 -137 -193q0 -57 37 -91t94 -34q59 0 114 33q24 15 96 74zM664 1383l-304 -372l-24 30l154 401z" />
    <glyph glyph-name="acircumflex" unicode="&#xe2;" horiz-adv-x="964" 
d="M912 100q-100 -73 -102 -75q-65 -40 -120 -40q-86 0 -118 131q-121 -88 -134 -95q-66 -37 -152 -37q-85 0 -143.5 58.5t-58.5 142.5q0 105 83 172q49 39 175 91l226 93v149q0 79 -56.5 133t-136.5 54q-127 0 -127 -135q0 -9 4 -24t4 -23q0 -37 -56 -66q-49 -26 -90 -26
q-17 0 -17 28q0 133 112 218q102 78 240 78t202 -51q71 -56 71 -190v-515q0 -86 59 -86q37 0 133 56zM569 183l-1 300l-203 -89q-137 -60 -137 -193q0 -57 37 -91t94 -34q59 0 114 33q24 15 96 74zM685 1076l-48 -12l-254 195l-206 -207l-42 18l237 337l70 -12z" />
    <glyph glyph-name="atilde" unicode="&#xe3;" horiz-adv-x="970" 
d="M912 100q-100 -73 -102 -75q-65 -40 -120 -40q-86 0 -118 131q-121 -88 -134 -95q-66 -37 -152 -37q-85 0 -143.5 58.5t-58.5 142.5q0 105 83 172q49 39 175 91l226 93v149q0 79 -56.5 133t-136.5 54q-127 0 -127 -135q0 -9 4 -24t4 -23q0 -37 -56 -66q-49 -26 -90 -26
q-17 0 -17 28q0 133 112 218q102 78 240 78t202 -51q71 -56 71 -190v-515q0 -86 59 -86q37 0 133 56zM569 183l-1 300l-203 -89q-137 -60 -137 -193q0 -57 37 -91t94 -34q59 0 114 33q24 15 96 74zM736 1381q-38 -218 -160 -218q-88 0 -175 69t-127 69q-87 0 -107 -133
l-42 22q38 218 161 218q88 0 174.5 -69t127.5 -69q86 0 107 133z" />
    <glyph glyph-name="adieresis" unicode="&#xe4;" horiz-adv-x="977" 
d="M912 100q-100 -73 -102 -75q-65 -40 -120 -40q-86 0 -118 131q-121 -88 -134 -95q-66 -37 -152 -37q-85 0 -143.5 58.5t-58.5 142.5q0 105 83 172q49 39 175 91l226 93v149q0 79 -56.5 133t-136.5 54q-127 0 -127 -135q0 -9 4 -24t4 -23q0 -37 -56 -66q-49 -26 -90 -26
q-17 0 -17 28q0 133 112 218q102 78 240 78t202 -51q71 -56 71 -190v-515q0 -86 59 -86q37 0 133 56zM569 183l-1 300l-203 -89q-137 -60 -137 -193q0 -57 37 -91t94 -34q59 0 114 33q24 15 96 74zM707 1280q0 -43 -30 -73.5t-73 -30.5t-73 30.5t-30 73.5t30 73t73 30
t73 -30t30 -73zM359 1280q0 -43 -30.5 -73.5t-72.5 -30.5q-43 0 -73.5 30.5t-30.5 73.5t30.5 73t73.5 30q42 0 72.5 -30t30.5 -73z" />
    <glyph glyph-name="aring" unicode="&#xe5;" horiz-adv-x="977" 
d="M912 100q-100 -73 -102 -75q-65 -40 -120 -40q-86 0 -118 131q-121 -88 -134 -95q-66 -37 -152 -37q-85 0 -143.5 58.5t-58.5 142.5q0 105 83 172q49 39 175 91l226 93v149q0 79 -56.5 133t-136.5 54q-127 0 -127 -135q0 -9 4 -24t4 -23q0 -37 -56 -66q-49 -26 -90 -26
q-17 0 -17 28q0 133 112 218q102 78 240 78t202 -51q71 -56 71 -190v-515q0 -86 59 -86q37 0 133 56zM569 183l-1 300l-203 -89q-137 -60 -137 -193q0 -57 37 -91t94 -34q59 0 114 33q24 15 96 74zM603 1252q0 -82 -58 -140t-139 -58q-82 0 -140 58t-58 140t58 140t140 58
q81 0 139 -58t58 -140zM532 1251q0 52 -37 89.5t-89 37.5q-53 0 -90 -37.5t-37 -89.5q0 -53 37 -90t90 -37q52 0 89 37t37 90z" />
    <glyph glyph-name="ae" unicode="&#xe6;" horiz-adv-x="1369" 
d="M1321 246q-119 -264 -378 -264q-223 0 -324 164q-222 -162 -365 -162q-85 0 -144 58.5t-59 142.5q0 104 83 172q50 39 176 91l226 93v149q0 79 -56.5 133t-136.5 54q-127 0 -127 -135q0 -8 4 -23.5t4 -23.5q0 -37 -56 -67q-49 -25 -90 -25q-18 0 -18 20q0 138 110 224
q101 80 242 80q101 0 148 -24q55 -28 101 -115q136 147 311 147q153 0 245 -96.5t92 -251.5h-620q-4 -42 -4 -86q0 -146 86 -272q95 -141 235 -141q181 0 275 169h8q20 1 32 -11zM1163 644q-3 100 -67.5 165.5t-163.5 65.5q-83 0 -147 -77q-54 -65 -74 -154h452zM589 194
q-46 118 -50.5 141.5t-2.5 147.5l-203 -89q-138 -60 -138 -193q0 -57 37 -91t94 -34q119 0 263 118z" />
    <glyph glyph-name="ccedilla" unicode="&#xe7;" horiz-adv-x="908" 
d="M811 246q-124 -264 -393 -264q-173 0 -293 139q-115 133 -115 309q0 220 152 363q149 140 371 140q66 0 154 -41q101 -45 101 -97q0 -95 -90 -95q-56 0 -73 45q-16 42 -31 84q-33 46 -127 46q-151 0 -236 -137q-71 -116 -71 -277q0 -134 94 -250q100 -123 230 -123
q187 0 286 169q41 1 41 -11zM635 -226q0 -80 -89 -128q-75 -41 -163 -41q-84 0 -142 30v29q50 -15 124 -15q53 0 99 28q54 33 54 83q0 77 -99 77q-37 0 -69 -9l124 194h55l-58 -101q64 -8 111 -44q53 -42 53 -103z" />
    <glyph glyph-name="egrave" unicode="&#xe8;" horiz-adv-x="849" 
d="M811 246q-124 -264 -393 -264q-173 0 -292 151q-111 141 -111 318q0 201 114 338q122 146 319 146q157 0 254.5 -95t97.5 -253h-646q-5 -42 -5 -86q0 -149 91 -274q100 -139 244 -139q188 0 286 169h8q22 1 33 -11zM647 644q-4 102 -71 166.5t-170 64.5q-85 0 -151 -75
q-58 -66 -79 -156h471zM515 1041l-24 -30l-303 372l174 59z" />
    <glyph glyph-name="eacute" unicode="&#xe9;" horiz-adv-x="852" 
d="M811 246q-124 -264 -393 -264q-173 0 -292 151q-111 141 -111 318q0 201 114 338q122 146 319 146q157 0 254.5 -95t97.5 -253h-646q-5 -42 -5 -86q0 -149 91 -274q100 -139 244 -139q188 0 286 169h8q22 1 33 -11zM647 644q-4 102 -71 166.5t-170 64.5q-85 0 -151 -75
q-58 -66 -79 -156h471zM676 1383l-304 -372l-24 30l154 401z" />
    <glyph glyph-name="ecircumflex" unicode="&#xea;" horiz-adv-x="853" 
d="M811 246q-124 -264 -393 -264q-173 0 -292 151q-111 141 -111 318q0 201 114 338q122 146 319 146q157 0 254.5 -95t97.5 -253h-646q-5 -42 -5 -86q0 -149 91 -274q100 -139 244 -139q188 0 286 169h8q22 1 33 -11zM647 644q-4 102 -71 166.5t-170 64.5q-85 0 -151 -75
q-58 -66 -79 -156h471zM721 1076l-48 -12l-254 195l-206 -207l-42 18l237 337l70 -12z" />
    <glyph glyph-name="edieresis" unicode="&#xeb;" horiz-adv-x="848" 
d="M811 246q-124 -264 -393 -264q-173 0 -292 151q-111 141 -111 318q0 201 114 338q122 146 319 146q157 0 254.5 -95t97.5 -253h-646q-5 -42 -5 -86q0 -149 91 -274q100 -139 244 -139q188 0 286 169h8q22 1 33 -11zM647 644q-4 102 -71 166.5t-170 64.5q-85 0 -151 -75
q-58 -66 -79 -156h471zM713 1279q0 -43 -30 -73.5t-73 -30.5t-73 30.5t-30 73.5t30 73t73 30t73 -30t30 -73zM365 1279q0 -43 -30.5 -73.5t-72.5 -30.5q-43 0 -73.5 30.5t-30.5 73.5t30.5 73t73.5 30q42 0 72.5 -30t30.5 -73z" />
    <glyph glyph-name="igrave" unicode="&#xec;" horiz-adv-x="550" 
d="M502 0h-459l-4 8l6 31q71 0 101 20q37 25 37 96v597q0 73 -72 73q-27 0 -63 -9l-25 40q190 53 285 113l37 -27v-790q0 -98 153 -107zM395 1041l-24 -30l-303 372l174 59z" />
    <glyph glyph-name="iacute" unicode="&#xed;" horiz-adv-x="641" 
d="M502 0h-459l-4 8l6 31q71 0 101 20q37 25 37 96v597q0 73 -72 73q-27 0 -63 -9l-25 40q190 53 285 113l37 -27v-790q0 -98 153 -107zM457 1383l-304 -372l-24 30l154 401z" />
    <glyph glyph-name="icircumflex" unicode="&#xee;" horiz-adv-x="642" 
d="M502 0h-459l-4 8l6 31q71 0 101 20q37 25 37 96v597q0 73 -72 73q-27 0 -63 -9l-25 40q190 53 285 113l37 -27v-790q0 -98 153 -107zM539 1076l-48 -12l-254 195l-206 -207l-42 18l237 337l70 -12z" />
    <glyph glyph-name="idieresis" unicode="&#xef;" horiz-adv-x="642" 
d="M502 0h-459l-4 8l6 31q71 0 101 20q37 25 37 96v597q0 73 -72 73q-27 0 -63 -9l-25 40q190 53 285 113l37 -27v-790q0 -98 153 -107zM542 1279q0 -43 -30 -73.5t-73 -30.5t-73 30.5t-30 73.5t30 73t73 30t73 -30t30 -73zM194 1279q0 -43 -30.5 -73.5t-72.5 -30.5
q-43 0 -73.5 30.5t-30.5 73.5t30.5 73t73.5 30q42 0 72.5 -30t30.5 -73z" />
    <glyph glyph-name="eth" unicode="&#xf0;" horiz-adv-x="1083" 
d="M949 456q0 -208 -132.5 -338t-341.5 -130q-188 0 -326 133.5t-138 321.5q0 215 125 348q129 137 342 137q98 0 185 -34q-72 155 -191 280l-257 -136l-32 58l241 125q-77 73 -183 149l32 51q127 -56 244 -151l240 125l38 -51l-225 -119q168 -152 269 -347
q110 -212 110 -422zM768 368q0 198 -62 331q-83 178 -258 178q-157 0 -217 -126q-42 -88 -42 -265q0 -162 79 -292q92 -151 244 -151q256 0 256 325z" />
    <glyph glyph-name="ntilde" unicode="&#xf1;" horiz-adv-x="1147" 
d="M1097 0h-451v45q138 0 138 135v455q0 87 -36 149q-44 74 -125 74q-129 0 -316 -135v-571q0 -98 154 -107l-6 -45h-432l-4 8l6 31q63 0 102 51q36 46 36 111v551q0 36 -63 57q-8 3 -96 22v25q45 6 143 48q92 40 123 65l37 -27v-180q295 186 407 186q109 0 169 -99
q51 -83 51 -198v-520q0 -82 157 -82zM837 1381q-38 -218 -160 -218q-88 0 -175 69t-127 69q-87 0 -107 -133l-42 22q38 218 161 218q88 0 174.5 -69t127.5 -69q86 0 107 133z" />
    <glyph glyph-name="ograve" unicode="&#xf2;" horiz-adv-x="989" 
d="M949 456q0 -208 -132.5 -338t-341.5 -130q-189 0 -326.5 133.5t-137.5 321.5q0 215 126.5 350t340.5 135q204 0 337.5 -134t133.5 -338zM768 368q0 198 -62 331q-83 178 -258 178q-157 0 -217 -126q-42 -88 -42 -265q0 -162 79 -292q92 -151 244 -151q256 0 256 325z
M575 1041l-24 -30l-303 372l174 59z" />
    <glyph glyph-name="oacute" unicode="&#xf3;" horiz-adv-x="992" 
d="M949 456q0 -208 -132.5 -338t-341.5 -130q-189 0 -326.5 133.5t-137.5 321.5q0 215 126.5 350t340.5 135q204 0 337.5 -134t133.5 -338zM768 368q0 198 -62 331q-83 178 -258 178q-157 0 -217 -126q-42 -88 -42 -265q0 -162 79 -292q92 -151 244 -151q256 0 256 325z
M682 1383l-304 -372l-24 30l154 401z" />
    <glyph glyph-name="ocircumflex" unicode="&#xf4;" horiz-adv-x="989" 
d="M949 456q0 -208 -132.5 -338t-341.5 -130q-189 0 -326.5 133.5t-137.5 321.5q0 215 126.5 350t340.5 135q204 0 337.5 -134t133.5 -338zM768 368q0 198 -62 331q-83 178 -258 178q-157 0 -217 -126q-42 -88 -42 -265q0 -162 79 -292q92 -151 244 -151q256 0 256 325z
M768 1076l-48 -12l-254 195l-206 -207l-42 18l237 337l70 -12z" />
    <glyph glyph-name="otilde" unicode="&#xf5;" horiz-adv-x="989" 
d="M949 456q0 -208 -132.5 -338t-341.5 -130q-189 0 -326.5 133.5t-137.5 321.5q0 215 126.5 350t340.5 135q204 0 337.5 -134t133.5 -338zM768 368q0 198 -62 331q-83 178 -258 178q-157 0 -217 -126q-42 -88 -42 -265q0 -162 79 -292q92 -151 244 -151q256 0 256 325z
M807 1381q-38 -218 -160 -218q-88 0 -175 69t-127 69q-87 0 -107 -133l-42 22q38 218 161 218q88 0 174.5 -69t127.5 -69q86 0 107 133z" />
    <glyph glyph-name="odieresis" unicode="&#xf6;" horiz-adv-x="989" 
d="M949 456q0 -208 -132.5 -338t-341.5 -130q-189 0 -326.5 133.5t-137.5 321.5q0 215 126.5 350t340.5 135q204 0 337.5 -134t133.5 -338zM768 368q0 198 -62 331q-83 178 -258 178q-157 0 -217 -126q-42 -88 -42 -265q0 -162 79 -292q92 -151 244 -151q256 0 256 325z
M744 1279q0 -43 -30 -73.5t-73 -30.5t-73 30.5t-30 73.5t30 73t73 30t73 -30t30 -73zM396 1279q0 -43 -30.5 -73.5t-72.5 -30.5q-43 0 -73.5 30.5t-30.5 73.5t30.5 73t73.5 30q42 0 72.5 -30t30.5 -73z" />
    <glyph glyph-name="divide" unicode="&#xf7;" horiz-adv-x="886" 
d="M509 1029q0 -39 -27.5 -67t-66.5 -28t-67 28t-28 67t28 66.5t67 27.5t66.5 -27.5t27.5 -66.5zM840 692h-839v83h839v-83zM509 444q0 -39 -27.5 -66.5t-66.5 -27.5t-67 27.5t-28 66.5t28 67t67 28t66.5 -28t27.5 -67z" />
    <glyph glyph-name="oslash" unicode="&#xf8;" horiz-adv-x="1074" 
d="M949 456q0 -208 -132.5 -338t-341.5 -130q-143 0 -263 82l-115 -146l-68 25l130 163q-148 135 -148 331q0 215 125 348q129 137 342 137q152 0 270 -79l111 138l67 -18l-127 -160q150 -136 150 -353zM674 756q-82 121 -226 121q-157 0 -217 -126q-42 -88 -42 -265
q0 -139 61 -260zM768 368q0 194 -60 327l-420 -530q89 -122 224 -122q256 0 256 325z" />
    <glyph glyph-name="ugrave" unicode="&#xf9;" horiz-adv-x="1132" 
d="M1074 123l-2 -41l-303 -86v180q-187 -186 -407 -186q-218 0 -218 297v442q0 61 -42 96t-104 35l-4 41l298 53v-651q0 -86 55 -146q56 -63 141 -63t281 142v550q0 75 -193 86v33l336 62v-781q0 -75 84 -75q22 0 78 12zM542 1041l-24 -30l-303 372l174 59z" />
    <glyph glyph-name="uacute" unicode="&#xfa;" horiz-adv-x="1131" 
d="M1074 123l-2 -41l-303 -86v180q-187 -186 -407 -186q-218 0 -218 297v442q0 61 -42 96t-104 35l-4 41l298 53v-651q0 -86 55 -146q56 -63 141 -63t281 142v550q0 75 -193 86v33l336 62v-781q0 -75 84 -75q22 0 78 12zM793 1383l-304 -372l-24 30l154 401z" />
    <glyph glyph-name="ucircumflex" unicode="&#xfb;" horiz-adv-x="1143" 
d="M1074 123l-2 -41l-303 -86v180q-187 -186 -407 -186q-218 0 -218 297v442q0 61 -42 96t-104 35l-4 41l298 53v-651q0 -86 55 -146q56 -63 141 -63t281 142v550q0 75 -193 86v33l336 62v-781q0 -75 84 -75q22 0 78 12zM813 1076l-48 -12l-254 195l-206 -207l-42 18
l237 337l70 -12z" />
    <glyph glyph-name="udieresis" unicode="&#xfc;" horiz-adv-x="1133" 
d="M1074 123l-2 -41l-303 -86v180q-187 -186 -407 -186q-218 0 -218 297v442q0 61 -42 96t-104 35l-4 41l298 53v-651q0 -86 55 -146q56 -63 141 -63t281 142v550q0 75 -193 86v33l336 62v-781q0 -75 84 -75q22 0 78 12zM778 1279q0 -43 -30 -73.5t-73 -30.5t-73 30.5
t-30 73.5t30 73t73 30t73 -30t30 -73zM430 1279q0 -43 -30.5 -73.5t-72.5 -30.5q-43 0 -73.5 30.5t-30.5 73.5t30.5 73t73.5 30q42 0 72.5 -30t30.5 -73z" />
    <glyph glyph-name="yacute" unicode="&#xfd;" horiz-adv-x="1050" 
d="M1086 885q-111 0 -191 -152q-23 -43 -123 -291q-102 -270 -320 -803q-67 -152 -160 -152q-125 0 -125 65q0 95 138 129q87 22 148 129q21 38 80 190l-342 733q-33 71 -64 99q-36 32 -107 49l-5 36h449l-5 -40q-122 0 -122 -70q0 -18 274 -612q65 158 129 316
q105 259 105 284q0 90 -129 86l1 36h367zM820 1383l-304 -372l-24 30l154 401z" />
    <glyph glyph-name="thorn" unicode="&#xfe;" horiz-adv-x="1071" 
d="M1004 520q0 -199 -147 -363q-151 -169 -347 -169q-104 0 -203 57v-325q0 -140 214 -156l-2 -49h-519l-12 31l8 14q167 5 167 98v1543q0 80 -29 101q-20 14 -111 21l-11 49q57 10 137 49q77 38 123 77l35 -12v-674q168 122 367 122q146 0 243 -138q87 -125 87 -276z
M864 461q0 143 -74 257q-85 130 -222 130q-139 0 -261 -117v-536q127 -125 284 -125q49 0 113 45q55 40 88 87q72 104 72 259z" />
    <glyph glyph-name="ydieresis" unicode="&#xff;" horiz-adv-x="1025" 
d="M1086 885q-111 0 -191 -152q-23 -43 -123 -291q-102 -270 -320 -803q-67 -152 -160 -152q-125 0 -125 65q0 95 138 129q87 22 148 129q21 38 80 190l-342 733q-33 71 -64 99q-36 32 -107 49l-5 36h449l-5 -40q-122 0 -122 -70q0 -18 274 -612q65 158 129 316
q105 259 105 284q0 90 -129 86l1 36h367zM804 1280q0 -43 -30 -73.5t-73 -30.5t-73 30.5t-30 73.5t30 73t73 30t73 -30t30 -73zM456 1280q0 -43 -30.5 -73.5t-72.5 -30.5q-43 0 -73.5 30.5t-30.5 73.5t30.5 73t73.5 30q42 0 72.5 -30t30.5 -73z" />
    <glyph glyph-name="Amacron" unicode="&#x100;" horiz-adv-x="1559" 
d="M1455 0h-586v45h144q65 0 65 70q0 47 -35 140l-105 279q-15 41 -43 41h-394q-31 0 -45 -37q-44 -108 -88 -217q-69 -176 -69 -206q0 -72 80 -72l2 2h131v-45h-494v45h69q85 0 142 150l443 1167q4 9 4 19q0 18 -11 27l6 10h121l476 -1258q29 -77 69 -98q32 -17 118 -17
v-45zM872 686q0 21 -1 26l-159 420q-4 11 -15 18q-10 0 -16 -18q-171 -450 -171 -454q0 -13 11 -13h331q20 0 20 21zM966 1607h-467v94h467v-94z" />
    <glyph glyph-name="amacron" unicode="&#x101;" horiz-adv-x="967" 
d="M912 100q-100 -73 -102 -75q-65 -40 -120 -40q-86 0 -118 131q-121 -88 -134 -95q-66 -37 -152 -37q-85 0 -143.5 58.5t-58.5 142.5q0 105 83 172q49 39 175 91l226 93v149q0 79 -56.5 133t-136.5 54q-127 0 -127 -135q0 -9 4 -24t4 -23q0 -37 -56 -66q-49 -26 -90 -26
q-17 0 -17 28q0 133 112 218q102 78 240 78t202 -51q71 -56 71 -190v-515q0 -86 59 -86q37 0 133 56zM569 183l-1 300l-203 -89q-137 -60 -137 -193q0 -57 37 -91t94 -34q59 0 114 33q24 15 96 74zM633 1218h-467v94h467v-94z" />
    <glyph glyph-name="Abreve" unicode="&#x102;" horiz-adv-x="1552" 
d="M1455 0h-586v45h144q65 0 65 70q0 47 -35 140l-105 279q-15 41 -43 41h-394q-31 0 -45 -37q-44 -108 -88 -217q-69 -176 -69 -206q0 -72 80 -72l2 2h131v-45h-494v45h69q85 0 142 150l443 1167q4 9 4 19q0 18 -11 27l6 10h121l476 -1258q29 -77 69 -98q32 -17 118 -17
v-45zM872 686q0 21 -1 26l-159 420q-4 11 -15 18q-10 0 -16 -18q-171 -450 -171 -454q0 -13 11 -13h331q20 0 20 21zM1025 1807q0 -111 -80 -195t-184 -84t-184 84t-80 195l34 30q0 -64 65 -133q72 -78 165 -78q96 0 167 78q64 68 64 133z" />
    <glyph glyph-name="abreve" unicode="&#x103;" horiz-adv-x="977" 
d="M912 100q-100 -73 -102 -75q-65 -40 -120 -40q-86 0 -118 131q-121 -88 -134 -95q-66 -37 -152 -37q-85 0 -143.5 58.5t-58.5 142.5q0 105 83 172q49 39 175 91l226 93v149q0 79 -56.5 133t-136.5 54q-127 0 -127 -135q0 -9 4 -24t4 -23q0 -37 -56 -66q-49 -26 -90 -26
q-17 0 -17 28q0 133 112 218q102 78 240 78t202 -51q71 -56 71 -190v-515q0 -86 59 -86q37 0 133 56zM569 183l-1 300l-203 -89q-137 -60 -137 -193q0 -57 37 -91t94 -34q59 0 114 33q24 15 96 74zM680 1406q0 -111 -80 -195t-184 -84t-184 84t-80 195l34 30q0 -64 65 -133
q72 -78 165 -78q96 0 167 78q64 68 64 133z" />
    <glyph glyph-name="Aogonek" unicode="&#x104;" horiz-adv-x="1566" 
d="M1455 0h-586v45h144q65 0 65 70q0 47 -35 140l-105 279q-15 41 -43 41h-394q-31 0 -45 -37q-44 -108 -88 -217q-69 -176 -69 -206q0 -72 80 -72l2 2h131v-45h-494v45h69q85 0 142 150l443 1167q4 9 4 19q0 18 -11 27l6 10h121l476 -1258q29 -77 69 -98q32 -17 118 -17
v-45zM872 686q0 21 -1 26l-159 420q-4 11 -15 18q-10 0 -16 -18q-171 -450 -171 -454q0 -13 11 -13h331q20 0 20 21zM1493 -300q-108 -73 -225 -73q-99 0 -163 47q-72 53 -72 149q0 93 74 209l54 -7q-43 -66 -43 -128q0 -85 72 -137q65 -46 153 -46q60 0 117 22z" />
    <glyph glyph-name="aogonek" unicode="&#x105;" horiz-adv-x="983" 
d="M912 100q-100 -73 -102 -75q-65 -40 -120 -40q-86 0 -118 131q-121 -88 -134 -95q-66 -37 -152 -37q-85 0 -143.5 58.5t-58.5 142.5q0 105 83 172q49 39 175 91l226 93v149q0 79 -56.5 133t-136.5 54q-127 0 -127 -135q0 -9 4 -24t4 -23q0 -37 -56 -66q-49 -26 -90 -26
q-17 0 -17 28q0 133 112 218q102 78 240 78t202 -51q71 -56 71 -190v-515q0 -86 59 -86q37 0 133 56zM569 183l-1 300l-203 -89q-137 -60 -137 -193q0 -57 37 -91t94 -34q59 0 114 33q24 15 96 74zM1040 -300q-108 -73 -225 -73q-99 0 -163 47q-72 53 -72 149q0 93 74 209
l54 -7q-43 -66 -43 -128q0 -85 72 -137q65 -46 153 -46q60 0 117 22z" />
    <glyph glyph-name="Cacute" unicode="&#x106;" horiz-adv-x="1358" 
d="M1326 354q-66 -191 -191 -315q-306 -49 -393 -49q-292 0 -495 184q-209 190 -209 479q0 320 207 543q213 228 532 228q209 0 375 -77q53 -24 68 -24q20 0 30 15l31 -2l14 -302h-37q-43 160 -180 252q-130 88 -301 88q-252 0 -408 -206q-142 -188 -142 -448
q0 -271 153 -468q166 -214 430 -214q147 0 284 96q134 94 191 232zM962 1790l-304 -372l-24 30l154 401z" />
    <glyph glyph-name="cacute" unicode="&#x107;" horiz-adv-x="897" 
d="M811 246q-124 -264 -393 -264q-173 0 -293 139q-115 133 -115 309q0 220 152 363q149 140 371 140q66 0 154 -41q101 -45 101 -97q0 -95 -90 -95q-56 0 -73 45q-16 42 -31 84q-33 46 -127 46q-151 0 -236 -137q-71 -116 -71 -277q0 -134 94 -250q100 -123 230 -123
q187 0 286 169q41 1 41 -11zM665 1383l-304 -372l-24 30l154 401z" />
    <glyph glyph-name="Ccircumflex" unicode="&#x108;" horiz-adv-x="1399" 
d="M1326 354q-66 -191 -191 -315q-306 -49 -393 -49q-292 0 -495 184q-209 190 -209 479q0 320 207 543q213 228 532 228q209 0 375 -77q53 -24 68 -24q20 0 30 15l31 -2l14 -302h-37q-43 160 -180 252q-130 88 -301 88q-252 0 -408 -206q-142 -188 -142 -448
q0 -271 153 -468q166 -214 430 -214q147 0 284 96q134 94 191 232zM1069 1513l-48 -12l-254 195l-206 -207l-42 18l237 337l70 -12z" />
    <glyph glyph-name="ccircumflex" unicode="&#x109;" horiz-adv-x="897" 
d="M811 246q-124 -264 -393 -264q-173 0 -293 139q-115 133 -115 309q0 220 152 363q149 140 371 140q66 0 154 -41q101 -45 101 -97q0 -95 -90 -95q-56 0 -73 45q-16 42 -31 84q-33 46 -127 46q-151 0 -236 -137q-71 -116 -71 -277q0 -134 94 -250q100 -123 230 -123
q187 0 286 169q41 1 41 -11zM700 1076l-48 -12l-254 195l-206 -207l-42 18l237 337l70 -12z" />
    <glyph glyph-name="Cdot" unicode="&#x10a;" horiz-adv-x="1391" 
d="M1326 354q-66 -191 -191 -315q-306 -49 -393 -49q-292 0 -495 184q-209 190 -209 479q0 320 207 543q213 228 532 228q209 0 375 -77q53 -24 68 -24q20 0 30 15l31 -2l14 -302h-37q-43 160 -180 252q-130 88 -301 88q-252 0 -408 -206q-142 -188 -142 -448
q0 -271 153 -468q166 -214 430 -214q147 0 284 96q134 94 191 232zM831 1652q0 -43 -30.5 -73.5t-73.5 -30.5q-42 0 -72.5 30.5t-30.5 73.5q0 42 30.5 72.5t72.5 30.5q43 0 73.5 -30.5t30.5 -72.5z" />
    <glyph glyph-name="cdot" unicode="&#x10b;" horiz-adv-x="870" 
d="M811 246q-124 -264 -393 -264q-173 0 -293 139q-115 133 -115 309q0 220 152 363q149 140 371 140q66 0 154 -41q101 -45 101 -97q0 -95 -90 -95q-56 0 -73 45q-16 42 -31 84q-33 46 -127 46q-151 0 -236 -137q-71 -116 -71 -277q0 -134 94 -250q100 -123 230 -123
q187 0 286 169q41 1 41 -11zM547 1280q0 -43 -30.5 -73.5t-73.5 -30.5q-42 0 -72.5 30.5t-30.5 73.5q0 42 30.5 72.5t72.5 30.5q43 0 73.5 -30.5t30.5 -72.5z" />
    <glyph glyph-name="Ccaron" unicode="&#x10c;" horiz-adv-x="1391" 
d="M1326 354q-66 -191 -191 -315q-306 -49 -393 -49q-292 0 -495 184q-209 190 -209 479q0 320 207 543q213 228 532 228q209 0 375 -77q53 -24 68 -24q20 0 30 15l31 -2l14 -302h-37q-43 160 -180 252q-130 88 -301 88q-252 0 -408 -206q-142 -188 -142 -448
q0 -271 153 -468q166 -214 430 -214q147 0 284 96q134 94 191 232zM1038 1809l-242 -319l-71 -12l-236 337l42 17l206 -206l254 195z" />
    <glyph glyph-name="ccaron" unicode="&#x10d;" horiz-adv-x="900" 
d="M811 246q-124 -264 -393 -264q-173 0 -293 139q-115 133 -115 309q0 220 152 363q149 140 371 140q66 0 154 -41q101 -45 101 -97q0 -95 -90 -95q-56 0 -73 45q-16 42 -31 84q-33 46 -127 46q-151 0 -236 -137q-71 -116 -71 -277q0 -134 94 -250q100 -123 230 -123
q187 0 286 169q41 1 41 -11zM741 1401l-242 -319l-71 -12l-236 337l42 17l206 -206l254 195z" />
    <glyph glyph-name="Dcaron" unicode="&#x10e;" horiz-adv-x="1560" 
d="M1419 754q0 -328 -210 -541t-538 -213h-652v42q102 -1 144 31q49 37 49 135v1056q0 114 -132 114q-23 0 -52 -3v39q160 19 435 19q409 0 648 -132q308 -171 308 -547zM1199 716q0 671 -700 671q-49 0 -111 -4v-1196q0 -148 80 -148h203q269 0 408 213q120 181 120 464z
M1023 1809l-242 -319l-71 -12l-236 337l42 17l206 -206l254 195z" />
    <glyph glyph-name="dcaron" unicode="&#x10f;" horiz-adv-x="1359" 
d="M1047 98q-70 -24 -141 -49q-81 -31 -134 -63q-9 -6 -19 -6q-18 0 -23 38q-4 27 -2 75q4 66 4 54q-84 -52 -168 -105q-92 -52 -194 -52q-159 0 -263 150q-93 134 -93 299q0 215 126 346q148 153 339 153q158 0 253 -54v397q0 76 -111 76q-1 0 -65 -3v35q155 20 312 103
v-1299q0 -25 20 -46.5t44 -21.5q20 0 58 4t57 4v-35zM732 186v515q-69 98 -128 133q-66 38 -180 38q-143 0 -209 -153q-47 -110 -47 -273q0 -128 79 -239q87 -121 210 -121q85 0 275 100zM1276 1233q0 -77 -34 -139q-20 -35 -86 -115q-16 -19 -63 -51q-51 -34 -69 -34
q-10 0 -21 35q174 92 174 236q0 57 -40 57q-11 0 -33 -4t-33 -4q-41 0 -68 35q-24 32 -24 74q0 51 44 83q39 28 93 28q76 0 121 -64q39 -57 39 -137z" />
    <glyph glyph-name="Dslash" unicode="&#x110;" horiz-adv-x="1562" 
d="M1419 754q0 -328 -210 -541t-538 -213h-652v42q102 -1 144 31q49 37 49 135v503h-155v75h155v478q0 114 -132 114q-23 0 -52 -3v39q160 19 435 19q409 0 648 -132q308 -171 308 -547zM1199 716q0 671 -700 671q-49 0 -111 -4v-597h441v-75h-441v-524q0 -148 80 -148h203
q269 0 408 213q120 181 120 464z" />
    <glyph glyph-name="dcroat" unicode="&#x111;" horiz-adv-x="1115" 
d="M1047 98q-70 -24 -141 -49q-81 -31 -134 -63q-9 -6 -19 -6q-18 0 -23 38q-4 27 -2 75q4 66 4 54q-84 -52 -168 -105q-92 -52 -194 -52q-159 0 -263 150q-93 134 -93 299q0 215 126 346q148 153 339 153q158 0 253 -54v222h-314v85h314v90q0 76 -111 76q-1 0 -65 -3v35
q155 20 312 103v-301h169v-85h-169v-913q0 -25 20 -46.5t44 -21.5q20 0 58 4t57 4v-35zM732 186v515q-69 98 -128 133q-66 38 -180 38q-143 0 -209 -153q-47 -110 -47 -273q0 -128 79 -239q87 -121 210 -121q85 0 275 100z" />
    <glyph glyph-name="Emacron" unicode="&#x112;" horiz-adv-x="1260" 
d="M1159 337l-40 -337h-1126v37q239 3 239 136v1078q0 78 -41 105q-44 29 -174 29v35h1057l11 -307h-37q-24 231 -149 231h-486v-564h387q93 0 120 175h33v-432h-33q-33 187 -120 187h-387v-519q0 -111 85 -111h423q150 0 198 260zM859 1607h-467v94h467v-94z" />
    <glyph glyph-name="emacron" unicode="&#x113;" horiz-adv-x="839" 
d="M811 246q-124 -264 -393 -264q-173 0 -292 151q-111 141 -111 318q0 201 114 338q122 146 319 146q157 0 254.5 -95t97.5 -253h-646q-5 -42 -5 -86q0 -149 91 -274q100 -139 244 -139q188 0 286 169h8q22 1 33 -11zM647 644q-4 102 -71 166.5t-170 64.5q-85 0 -151 -75
q-58 -66 -79 -156h471zM676 1218h-467v94h467v-94z" />
    <glyph glyph-name="Ebreve" unicode="&#x114;" horiz-adv-x="1259" 
d="M1159 337l-40 -337h-1126v37q239 3 239 136v1078q0 78 -41 105q-44 29 -174 29v35h1057l11 -307h-37q-24 231 -149 231h-486v-564h387q93 0 120 175h33v-432h-33q-33 187 -120 187h-387v-519q0 -111 85 -111h423q150 0 198 260zM914 1818q0 -111 -80 -195t-184 -84
t-184 84t-80 195l34 30q0 -64 65 -133q72 -78 165 -78q96 0 167 78q64 68 64 133z" />
    <glyph glyph-name="ebreve" unicode="&#x115;" horiz-adv-x="891" 
d="M811 246q-124 -264 -393 -264q-173 0 -292 151q-111 141 -111 318q0 201 114 338q122 146 319 146q157 0 254.5 -95t97.5 -253h-646q-5 -42 -5 -86q0 -149 91 -274q100 -139 244 -139q188 0 286 169h8q22 1 33 -11zM647 644q-4 102 -71 166.5t-170 64.5q-85 0 -151 -75
q-58 -66 -79 -156h471zM727 1406q0 -111 -80 -195t-184 -84t-184 84t-80 195l34 30q0 -64 65 -133q72 -78 165 -78q96 0 167 78q64 68 64 133z" />
    <glyph glyph-name="Edot" unicode="&#x116;" horiz-adv-x="1260" 
d="M1159 337l-40 -337h-1126v37q239 3 239 136v1078q0 78 -41 105q-44 29 -174 29v35h1057l11 -307h-37q-24 231 -149 231h-486v-564h387q93 0 120 175h33v-432h-33q-33 187 -120 187h-387v-519q0 -111 85 -111h423q150 0 198 260zM723 1652q0 -43 -30.5 -73.5t-73.5 -30.5
q-42 0 -72.5 30.5t-30.5 73.5q0 42 30.5 72.5t72.5 30.5q43 0 73.5 -30.5t30.5 -72.5z" />
    <glyph glyph-name="edot" unicode="&#x117;" horiz-adv-x="838" 
d="M811 246q-124 -264 -393 -264q-173 0 -292 151q-111 141 -111 318q0 201 114 338q122 146 319 146q157 0 254.5 -95t97.5 -253h-646q-5 -42 -5 -86q0 -149 91 -274q100 -139 244 -139q188 0 286 169h8q22 1 33 -11zM647 644q-4 102 -71 166.5t-170 64.5q-85 0 -151 -75
q-58 -66 -79 -156h471zM527 1280q0 -43 -30.5 -73.5t-73.5 -30.5q-42 0 -72.5 30.5t-30.5 73.5q0 42 30.5 72.5t72.5 30.5q43 0 73.5 -30.5t30.5 -72.5z" />
    <glyph glyph-name="Eogonek" unicode="&#x118;" horiz-adv-x="1261" 
d="M1159 337l-40 -337h-1126v37q239 3 239 136v1078q0 78 -41 105q-44 29 -174 29v35h1057l11 -307h-37q-24 231 -149 231h-486v-564h387q93 0 120 175h33v-432h-33q-33 187 -120 187h-387v-519q0 -111 85 -111h423q150 0 198 260zM1011 -300q-108 -73 -225 -73
q-99 0 -163 47q-72 53 -72 149q0 93 74 209l54 -7q-43 -66 -43 -128q0 -85 72 -137q65 -46 153 -46q60 0 117 22z" />
    <glyph glyph-name="eogonek" unicode="&#x119;" horiz-adv-x="859" 
d="M811 246q-124 -264 -393 -264q-173 0 -292 151q-111 141 -111 318q0 201 114 338q122 146 319 146q157 0 254.5 -95t97.5 -253h-646q-5 -42 -5 -86q0 -149 91 -274q100 -139 244 -139q188 0 286 169h8q22 1 33 -11zM647 644q-4 102 -71 166.5t-170 64.5q-85 0 -151 -75
q-58 -66 -79 -156h471zM782 -300q-108 -73 -225 -73q-99 0 -163 47q-72 53 -72 149q0 93 74 209l54 -7q-43 -66 -43 -128q0 -85 72 -137q65 -46 153 -46q60 0 117 22z" />
    <glyph glyph-name="Ecaron" unicode="&#x11a;" horiz-adv-x="1260" 
d="M1159 337l-40 -337h-1126v37q239 3 239 136v1078q0 78 -41 105q-44 29 -174 29v35h1057l11 -307h-37q-24 231 -149 231h-486v-564h387q93 0 120 175h33v-432h-33q-33 187 -120 187h-387v-519q0 -111 85 -111h423q150 0 198 260zM931 1809l-242 -319l-71 -12l-236 337
l42 17l206 -206l254 195z" />
    <glyph glyph-name="ecaron" unicode="&#x11b;" horiz-adv-x="864" 
d="M811 246q-124 -264 -393 -264q-173 0 -292 151q-111 141 -111 318q0 201 114 338q122 146 319 146q157 0 254.5 -95t97.5 -253h-646q-5 -42 -5 -86q0 -149 91 -274q100 -139 244 -139q188 0 286 169h8q22 1 33 -11zM647 644q-4 102 -71 166.5t-170 64.5q-85 0 -151 -75
q-58 -66 -79 -156h471zM707 1401l-242 -319l-71 -12l-236 337l42 17l206 -206l254 195z" />
    <glyph glyph-name="Gcircumflex" unicode="&#x11c;" horiz-adv-x="1364" 
d="M1394 633q-61 1 -100 -32q-42 -35 -42 -94v-388q-260 -134 -550 -134q-295 0 -490 186q-199 189 -199 482q0 337 196 555q203 226 536 226q174 0 319 -54q60 -23 101 -23q33 0 53 17h18l30 -368h-38q-27 180 -153 281q-123 98 -308 98q-275 0 -429 -221
q-136 -194 -136 -481q0 -258 141 -443q155 -201 406 -201q229 0 340 93v361q0 140 -183 140v40h488v-40zM1014 1513l-48 -12l-254 195l-206 -207l-42 18l237 337l70 -12z" />
    <glyph glyph-name="gcircumflex" unicode="&#x11d;" horiz-adv-x="1041" 
d="M977 753l-242 26q55 -83 55 -187q0 -135 -129 -216q-110 -69 -254 -69q-64 0 -135 14q-134 -71 -134 -127q0 -64 215 -78q310 -21 399 -46q215 -60 215 -237q0 -153 -218 -255q-180 -85 -354 -85q-135 0 -238 35q-147 51 -147 158q0 151 218 307q-4 9 -60 24
q-67 17 -98 38q-52 35 -52 95q0 61 38 93q21 18 86 42q61 23 88 48q-199 65 -199 271q0 144 110 242q106 94 252 94q174 0 274 -92l304 20q1 -34 6 -115zM640 596q0 109 -68 196q-74 94 -180 94q-108 0 -165 -98q-47 -81 -47 -197q0 -231 231 -231q229 0 229 236zM832 -188
q0 104 -137 145q-72 21 -222 28q-66 6 -199 12q-141 -112 -141 -272q0 -149 346 -149q104 0 221 66q132 75 132 170zM692 1076l-48 -12l-254 195l-206 -207l-42 18l237 337l70 -12z" />
    <glyph glyph-name="Gbreve" unicode="&#x11e;" horiz-adv-x="1364" 
d="M1394 633q-61 1 -100 -32q-42 -35 -42 -94v-388q-260 -134 -550 -134q-295 0 -490 186q-199 189 -199 482q0 337 196 555q203 226 536 226q174 0 319 -54q60 -23 101 -23q33 0 53 17h18l30 -368h-38q-27 180 -153 281q-123 98 -308 98q-275 0 -429 -221
q-136 -194 -136 -481q0 -258 141 -443q155 -201 406 -201q229 0 340 93v361q0 140 -183 140v40h488v-40zM1029 1804q0 -111 -80 -195t-184 -84t-184 84t-80 195l34 30q0 -64 65 -133q72 -78 165 -78q96 0 167 78q64 68 64 133z" />
    <glyph glyph-name="gbreve" unicode="&#x11f;" horiz-adv-x="1037" 
d="M977 753l-242 26q55 -83 55 -187q0 -135 -129 -216q-110 -69 -254 -69q-64 0 -135 14q-134 -71 -134 -127q0 -64 215 -78q310 -21 399 -46q215 -60 215 -237q0 -153 -218 -255q-180 -85 -354 -85q-135 0 -238 35q-147 51 -147 158q0 151 218 307q-4 9 -60 24
q-67 17 -98 38q-52 35 -52 95q0 61 38 93q21 18 86 42q61 23 88 48q-199 65 -199 271q0 144 110 242q106 94 252 94q174 0 274 -92l304 20q1 -34 6 -115zM640 596q0 109 -68 196q-74 94 -180 94q-108 0 -165 -98q-47 -81 -47 -197q0 -231 231 -231q229 0 229 236zM832 -188
q0 104 -137 145q-72 21 -222 28q-66 6 -199 12q-141 -112 -141 -272q0 -149 346 -149q104 0 221 66q132 75 132 170zM712 1406q0 -111 -80 -195t-184 -84t-184 84t-80 195l34 30q0 -64 65 -133q72 -78 165 -78q96 0 167 78q64 68 64 133z" />
    <glyph glyph-name="Gdot" unicode="&#x120;" horiz-adv-x="1364" 
d="M1394 633q-61 1 -100 -32q-42 -35 -42 -94v-388q-260 -134 -550 -134q-295 0 -490 186q-199 189 -199 482q0 337 196 555q203 226 536 226q174 0 319 -54q60 -23 101 -23q33 0 53 17h18l30 -368h-38q-27 180 -153 281q-123 98 -308 98q-275 0 -429 -221
q-136 -194 -136 -481q0 -258 141 -443q155 -201 406 -201q229 0 340 93v361q0 140 -183 140v40h488v-40zM836 1652q0 -43 -30.5 -73.5t-73.5 -30.5q-42 0 -72.5 30.5t-30.5 73.5q0 42 30.5 72.5t72.5 30.5q43 0 73.5 -30.5t30.5 -72.5z" />
    <glyph glyph-name="gdot" unicode="&#x121;" horiz-adv-x="1024" 
d="M977 753l-242 26q55 -83 55 -187q0 -135 -129 -216q-110 -69 -254 -69q-64 0 -135 14q-134 -71 -134 -127q0 -64 215 -78q310 -21 399 -46q215 -60 215 -237q0 -153 -218 -255q-180 -85 -354 -85q-135 0 -238 35q-147 51 -147 158q0 151 218 307q-4 9 -60 24
q-67 17 -98 38q-52 35 -52 95q0 61 38 93q21 18 86 42q61 23 88 48q-199 65 -199 271q0 144 110 242q106 94 252 94q174 0 274 -92l304 20q1 -34 6 -115zM640 596q0 109 -68 196q-74 94 -180 94q-108 0 -165 -98q-47 -81 -47 -197q0 -231 231 -231q229 0 229 236zM832 -188
q0 104 -137 145q-72 21 -222 28q-66 6 -199 12q-141 -112 -141 -272q0 -149 346 -149q104 0 221 66q132 75 132 170zM515 1280q0 -43 -30.5 -73.5t-73.5 -30.5q-42 0 -72.5 30.5t-30.5 73.5q0 42 30.5 72.5t72.5 30.5q43 0 73.5 -30.5t30.5 -72.5z" />
    <glyph glyph-name="Gcedilla" unicode="&#x122;" horiz-adv-x="1363" 
d="M1394 633q-61 1 -100 -32q-42 -35 -42 -94v-388q-260 -134 -550 -134q-295 0 -490 186q-199 189 -199 482q0 337 196 555q203 226 536 226q174 0 319 -54q60 -23 101 -23q33 0 53 17h18l30 -368h-38q-27 180 -153 281q-123 98 -308 98q-275 0 -429 -221
q-136 -194 -136 -481q0 -258 141 -443q155 -201 406 -201q229 0 340 93v361q0 140 -183 140v40h488v-40zM839 -245q0 60 -29 101q-33 48 -90 48q-39 0 -68 -21q-33 -23 -33 -61q0 -31 19 -56t49 -25q8 0 24.5 3t24.5 3q30 0 30 -42q0 -106 -129 -175q8 -26 15 -26
q14 0 52 26q35 23 46 37q49 60 64 85q25 46 25 103z" />
    <glyph glyph-name="gcedilla" unicode="&#x123;" horiz-adv-x="1052" 
d="M977 753l-242 26q55 -83 55 -187q0 -135 -129 -216q-110 -69 -254 -69q-64 0 -135 14q-134 -71 -134 -127q0 -64 215 -78q310 -21 399 -46q215 -60 215 -237q0 -153 -218 -255q-180 -85 -354 -85q-135 0 -238 35q-147 51 -147 158q0 151 218 307q-4 9 -60 24
q-67 17 -98 38q-52 35 -52 95q0 61 38 93q21 18 86 42q61 23 88 48q-199 65 -199 271q0 144 110 242q106 94 252 94q174 0 274 -92l304 20q1 -34 6 -115zM640 596q0 109 -68 196q-74 94 -180 94q-108 0 -165 -98q-47 -81 -47 -197q0 -231 231 -231q229 0 229 236zM832 -188
q0 104 -137 145q-72 21 -222 28q-66 6 -199 12q-141 -112 -141 -272q0 -149 346 -149q104 0 221 66q132 75 132 170zM329 1192q0 -59 29 -101q33 -47 90 -47q39 0 68 21q33 23 33 61q0 31 -19 55.5t-49 24.5q-8 0 -24.5 -2.5t-24.5 -2.5q-30 0 -30 42q0 106 129 174
q-8 26 -15 26q-14 0 -50.5 -24.5t-47.5 -37.5q-49 -60 -64 -86q-25 -46 -25 -103z" />
    <glyph glyph-name="Hcircumflex" unicode="&#x124;" horiz-adv-x="1609" 
d="M1489 1385q-205 0 -206 -171v-1007q0 -103 53 -140q44 -32 152 -31v-35h-583v35q212 0 212 171v460h-700v-460q0 -103 53 -140q44 -32 152 -31v-35h-583v35q212 0 212 171v1007q0 103 -52 141q-44 30 -153 30v35h577v-35q-205 0 -205 -171l-1 -453h700v453q0 103 -53 141
q-44 31 -152 30v35h577v-35zM1061 1513l-48 -12l-254 195l-206 -207l-42 18l237 337l70 -12z" />
    <glyph glyph-name="hcircumflex" unicode="&#x125;" horiz-adv-x="1181" 
d="M1058 0h-451v45q138 0 138 135v423q0 85 -39 151q-47 79 -126 79q-103 0 -312 -143v-538q0 -98 154 -107l20 -45h-458l-3 8l5 31q83 0 113 40q26 34 26 122v1066q0 38 -38 61q-31 19 -71 19l-51 -10q0 5 1 15t1 16q0 14 29 24l116 34q62 20 114 56h42v-732
q243 184 409 184q112 0 171 -107q47 -86 47 -208v-488q0 -82 158 -82zM840 1239l-48 -12l-254 195l-206 -207l-42 18l237 337l70 -12z" />
    <glyph glyph-name="Hbar" unicode="&#x126;" horiz-adv-x="1613" 
d="M1489 1385q-132 0 -174 -59q-32 -45 -32 -176h179v-76h-179v-867q0 -103 53 -141q45 -31 152 -30v-35h-583v35q212 0 212 171v460h-700v-460q0 -103 54 -141q44 -31 151 -30v-35h-583v35q212 0 212 171v867h-194v76h194v64q0 103 -53 141q-44 31 -152 30v35h577v-35
q-132 0 -173 -59q-32 -45 -32 -176h699v64q0 103 -53 141q-45 31 -152 30v35h577v-35zM1117 1074h-699l-1 -313h700v313z" />
    <glyph glyph-name="hbar" unicode="&#x127;" horiz-adv-x="1164" 
d="M1058 0h-451v45q138 0 138 135v423q0 85 -39 151q-47 79 -126 79q-103 0 -312 -143v-538q0 -98 154 -107l20 -45h-458l-3 8l5 31q83 0 113 40q26 34 26 122v910h-120v83h120v73q0 38 -38 61q-31 19 -71 19l-51 -10q0 5 1 15t1 16q0 14 29 24l116 34q62 20 114 56h42v-288
h334v-83h-334v-361q243 184 409 184q112 0 171 -107q47 -86 47 -208v-488q0 -82 158 -82z" />
    <glyph glyph-name="Itilde" unicode="&#x128;" horiz-adv-x="761" 
d="M623 1385q-206 0 -206 -171v-1007q0 -103 54 -141q44 -31 151 -30v-35h-583v35q212 0 212 171v1007q0 103 -53 141q-44 31 -152 30v35h577v-35zM637 1775q-38 -218 -160 -218q-88 0 -175 69t-127 69q-87 0 -107 -133l-42 22q38 218 161 218q88 0 174.5 -69t127.5 -69
q86 0 107 133z" />
    <glyph glyph-name="itilde" unicode="&#x129;" horiz-adv-x="688" 
d="M503 0h-459l-4 8l6 31q71 0 101 20q37 25 37 96v597q0 73 -72 73q-27 0 -63 -9l-25 40q190 53 285 113l37 -27v-790q0 -98 153 -107zM581 1381q-38 -218 -160 -218q-88 0 -175 69t-127 69q-87 0 -107 -133l-42 22q38 218 161 218q88 0 174.5 -69t127.5 -69q86 0 107 133z
" />
    <glyph glyph-name="Imacron" unicode="&#x12a;" horiz-adv-x="759" 
d="M623 1385q-206 0 -206 -171v-1007q0 -103 54 -141q44 -31 151 -30v-35h-583v35q212 0 212 171v1007q0 103 -53 141q-44 31 -152 30v35h577v-35zM574 1607h-467v94h467v-94z" />
    <glyph glyph-name="imacron" unicode="&#x12b;" horiz-adv-x="640" 
d="M503 0h-459l-4 8l6 31q71 0 101 20q37 25 37 96v597q0 73 -72 73q-27 0 -63 -9l-25 40q190 53 285 113l37 -27v-790q0 -98 153 -107zM508 1218h-467v94h467v-94z" />
    <glyph glyph-name="Ibreve" unicode="&#x12c;" horiz-adv-x="760" 
d="M623 1385q-206 0 -206 -171v-1007q0 -103 54 -141q44 -31 151 -30v-35h-583v35q212 0 212 171v1007q0 103 -53 141q-44 31 -152 30v35h577v-35zM629 1818q0 -111 -80 -195t-184 -84t-184 84t-80 195l34 30q0 -64 65 -133q72 -78 165 -78q96 0 167 78q64 68 64 133z" />
    <glyph glyph-name="ibreve" unicode="&#x12d;" horiz-adv-x="686" 
d="M503 0h-459l-4 8l6 31q71 0 101 20q37 25 37 96v597q0 73 -72 73q-27 0 -63 -9l-25 40q190 53 285 113l37 -27v-790q0 -98 153 -107zM573 1406q0 -111 -80 -195t-184 -84t-184 84t-80 195l34 30q0 -64 65 -133q72 -78 165 -78q96 0 167 78q64 68 64 133z" />
    <glyph glyph-name="Iogonek" unicode="&#x12e;" horiz-adv-x="756" 
d="M623 1385q-206 0 -206 -171v-1007q0 -103 54 -141q44 -31 151 -30v-35h-583v35q212 0 212 171v1007q0 103 -53 141q-44 31 -152 30v35h577v-35zM688 -300q-108 -73 -225 -73q-99 0 -163 47q-72 53 -72 149q0 93 74 209l54 -7q-43 -66 -43 -128q0 -85 72 -137
q65 -46 153 -46q60 0 117 22z" />
    <glyph glyph-name="iogonek" unicode="&#x12f;" horiz-adv-x="613" 
d="M502 0h-459l-4 8l6 31q71 0 101 20q37 25 37 96v597q0 73 -72 73q-27 0 -63 -9l-25 40q190 53 285 113l37 -27v-790q0 -98 153 -107zM357 1280q0 -43 -30 -73.5t-73 -30.5t-73 30.5t-30 73.5t30 73t73 30t73 -30t30 -73zM657 -300q-108 -73 -225 -73q-99 0 -163 47
q-72 53 -72 149q0 93 74 209l54 -7q-43 -66 -43 -128q0 -85 72 -137q65 -46 153 -46q60 0 117 22z" />
    <glyph glyph-name="Idotaccent" unicode="&#x130;" horiz-adv-x="756" 
d="M623 1385q-206 0 -206 -171v-1007q0 -103 54 -141q44 -31 151 -30v-35h-583v35q212 0 212 171v1007q0 103 -53 141q-44 31 -152 30v35h577v-35zM438 1652q0 -43 -30.5 -73.5t-73.5 -30.5q-42 0 -72.5 30.5t-30.5 73.5q0 42 30.5 72.5t72.5 30.5q43 0 73.5 -30.5
t30.5 -72.5z" />
    <glyph glyph-name="dotlessi" unicode="&#x131;" horiz-adv-x="642" 
d="M502 0h-459l-4 8l6 31q71 0 101 20q37 25 37 96v597q0 73 -72 73q-27 0 -63 -9l-25 40q190 53 285 113l37 -27v-790q0 -98 153 -107z" />
    <glyph glyph-name="IJ" unicode="&#x132;" horiz-adv-x="1482" 
d="M623 1385q-206 0 -206 -171v-1007q0 -103 54 -141q44 -31 151 -30v-35h-583v35q212 0 212 171v1007q0 103 -53 141q-44 31 -152 30v35h577v-35zM1329 1385q-96 0 -134 -37.5t-38 -133.5v-978q0 -271 -85 -471q-114 -270 -350 -270q-210 0 -210 113q0 36 22.5 62.5
t58.5 26.5q76 0 109.5 -51.5t123.5 -51.5q93 0 136 136q28 91 28 208v1276q0 103 -53 141q-43 30 -152 30v35h544v-35z" />
    <glyph glyph-name="ij" unicode="&#x133;" horiz-adv-x="1272" 
d="M526 0h-459l-4 8l6 31q71 0 101 20q37 25 37 96v597q0 73 -72 73q-27 0 -63 -9l-25 40q190 53 285 113l37 -27v-790q0 -98 153 -107zM381 1280q0 -43 -30 -73.5t-73 -30.5t-73 30.5t-30 73.5t30 73t73 30t73 -30t30 -73zM993 -102q0 -158 -131 -299q-103 -111 -260 -111
q-81 0 -145 25q-88 33 -89 99q-1 24 25.5 55t52.5 31q23 0 106 -61.5t127 -61.5q74 0 115 59q37 53 37 129v989q0 73 -72 73q-27 0 -63 -9l-25 40q189 53 285 113l37 -27v-1044zM1006 1280q0 -43 -30 -73.5t-73 -30.5t-73 30.5t-30 73.5t30 73t73 30t73 -30t30 -73z" />
    <glyph glyph-name="Jcircumflex" unicode="&#x134;" horiz-adv-x="833" 
d="M715 1385q-96 0 -134 -37.5t-38 -133.5v-978q0 -271 -85 -471q-114 -270 -350 -270q-210 0 -210 113q0 36 22.5 62.5t58.5 26.5q76 0 109.5 -51.5t123.5 -51.5q93 0 136 136q28 91 28 208v1276q0 103 -53 141q-43 30 -152 30v35h544v-35zM736 1513l-48 -12l-254 195
l-206 -207l-42 18l237 337l70 -12z" />
    <glyph glyph-name="jcircumflex" unicode="&#x135;" horiz-adv-x="743" 
d="M488 -102q0 -158 -131 -299q-103 -111 -260 -111q-81 0 -145 25q-88 33 -89 99q-1 24 25.5 55t52.5 31q23 0 106 -61.5t127 -61.5q74 0 115 59q37 53 37 129v989q0 73 -72 73q-27 0 -63 -9l-25 40q189 53 285 113l37 -27v-1044zM643 1109l-47 -12l-254 195l-206 -207
l-42 18l236 336l71 -11z" />
    <glyph glyph-name="Kcedilla" unicode="&#x136;" horiz-adv-x="1574" 
d="M1505 2h-646l6 37q29 -7 61 -7q29 0 59 12q38 14 38 38q0 27 -98 130q-65 64 -129 128q-194 202 -379 296v-429q0 -102 54 -140q45 -32 151 -31v-35h-583v35q212 -2 212 171v1007q0 103 -53 141q-45 31 -152 30v35h577v-35q-205 2 -205 -171l-1 -509q140 66 273 219
q80 91 161 182q116 139 116 192q0 69 -165 84l7 37h520v-50l-94 -4q-47 -6 -88 -33q-65 -44 -165 -186q-129 -183 -155 -211q-67 -68 -200 -206q143 -84 345 -313q84 -100 167 -199q133 -152 178 -165q83 -24 188 -13v-37zM839 -245q0 60 -29 101q-33 48 -90 48
q-39 0 -68 -21q-33 -23 -33 -61q0 -31 19 -56t49 -25q8 0 24.5 3t24.5 3q30 0 30 -42q0 -106 -129 -175q8 -26 15 -26q14 0 52 26q35 23 46 37q49 60 64 85q25 46 25 103z" />
    <glyph glyph-name="kcedilla" unicode="&#x137;" horiz-adv-x="1141" 
d="M1065 49l-4 -49h-475l4 49q105 17 105 45q0 24 -39 66l-370 397v-405q0 -98 154 -107l-6 -45h-432l-4 8l6 31q63 0 102 51q36 46 36 111v1067q0 38 -37 61q-31 19 -72 19l-50 -10q0 5 1 15t1 16q0 14 29 24q58 20 117 39q67 24 113 51h42v-905l215 168q78 62 78 91
q0 41 -113 41l10 39h424l2 -44q-51 0 -122 -18q-78 -20 -111 -47l-262 -214l432 -438q100 -102 226 -107zM639 -245q0 60 -29 101q-33 48 -90 48q-39 0 -68 -21q-33 -23 -33 -61q0 -31 19 -56t49 -25q8 0 24.5 3t24.5 3q30 0 30 -42q0 -106 -129 -175q8 -26 15 -26
q14 0 51 26q35 23 47 37q49 60 63 85q26 46 26 103z" />
    <glyph glyph-name="kgreenlandic" unicode="&#x138;" horiz-adv-x="1129" 
d="M1055 1h-448l4 25q21 -5 43 -5q67 0 67 32q0 15 -157 167q-135 130 -263 191v-277q0 -68 40 -93q31 -18 102 -18v-22h-404v22q147 -1 147 111v650q0 68 -40 93q-31 19 -102 18v23h400v-23q-142 1 -142 -111l-1 -328q97 42 189 141q56 59 112 117q80 90 80 124
q0 45 -114 55l4 24h361v-32q-33 -2 -65 -3q-33 -4 -61 -22q-45 -28 -115 -120q-89 -118 -107 -136q-46 -44 -139 -133q99 -54 239 -202q58 -64 116 -129q92 -98 123 -106q58 -16 131 -8v-25z" />
    <glyph glyph-name="Lacute" unicode="&#x139;" horiz-adv-x="1217" 
d="M1198 347l-79 -347h-1126v37q239 3 239 136v1076q0 91 -66 119q-38 15 -149 15v35h635v-32l-15 1q-77 1 -142 -30q-82 -39 -82 -109v-1057q0 -111 85 -111h423q98 0 163 90q53 72 73 181zM681 1790l-304 -372l-24 30l154 401z" />
    <glyph glyph-name="lacute" unicode="&#x13a;" horiz-adv-x="536" 
d="M492 45l-6 -45h-432l-4 8l6 31q63 0 101 51q35 46 35 111v1067q0 36 -38 60q-32 20 -71 20l-50 -10q0 5 1 15t1 16q0 14 29 24q78 24 230 90h44v-1331q0 -98 154 -107zM401 1790l-304 -372l-24 30l154 401z" />
    <glyph glyph-name="Lcedilla" unicode="&#x13b;" horiz-adv-x="1218" 
d="M1198 347l-79 -347h-1126v37q239 3 239 136v1076q0 91 -66 119q-38 15 -149 15v35h635v-32l-15 1q-77 1 -142 -30q-82 -39 -82 -109v-1057q0 -111 85 -111h423q98 0 163 90q53 72 73 181zM770 -245q0 60 -29 101q-33 48 -90 48q-39 0 -70 -22t-31 -60q0 -31 19 -56
t49 -25q8 0 24.5 3t24.5 3q29 0 29 -42q0 -106 -129 -175q9 -26 16 -26q14 0 51 26q35 23 47 37q49 60 63 85q26 46 26 103z" />
    <glyph glyph-name="lcedilla" unicode="&#x13c;" horiz-adv-x="527" 
d="M492 45l-6 -45h-432l-4 8l6 31q63 0 101 51q35 46 35 111v1067q0 36 -38 60q-32 20 -71 20l-50 -10q0 5 1 15t1 16q0 14 29 24q78 24 230 90h44v-1331q0 -98 154 -107zM393 -245q0 60 -29 101q-33 48 -90 48q-39 0 -70 -22t-31 -60q0 -31 19 -56t49 -25q8 0 24 3t25 3
q29 0 29 -42q0 -106 -129 -175q9 -26 16 -26q14 0 51 26q35 23 47 37q49 60 63 85q26 46 26 103z" />
    <glyph glyph-name="Lcaron" unicode="&#x13d;" horiz-adv-x="1247" 
d="M1198 347l-79 -347h-1126v37q239 3 239 136v1076q0 91 -66 119q-38 15 -149 15v35h635v-32l-15 1q-77 1 -142 -30q-82 -39 -82 -109v-1057q0 -111 85 -111h423q98 0 163 90q53 72 73 181zM1116 1233q0 -77 -34 -139q-20 -35 -86 -115q-16 -19 -63 -51q-51 -34 -69 -34
q-10 0 -21 35q174 92 174 236q0 57 -40 57q-11 0 -33 -4t-33 -4q-41 0 -68 35q-24 32 -24 74q0 51 44 83q39 28 93 28q76 0 121 -64q39 -57 39 -137z" />
    <glyph glyph-name="lcaron" unicode="&#x13e;" horiz-adv-x="879" 
d="M492 45l-6 -45h-432l-4 8l6 31q63 0 101 51q35 46 35 111v1067q0 36 -38 60q-32 20 -71 20l-50 -10q0 5 1 15t1 16q0 14 29 24q78 24 230 90h44v-1331q0 -98 154 -107zM803 1233q0 -77 -34 -139q-20 -35 -86 -115q-16 -19 -63 -51q-51 -34 -69 -34q-10 0 -21 35
q174 92 174 236q0 57 -40 57q-11 0 -33 -4t-33 -4q-41 0 -68 35q-24 32 -24 74q0 51 44 83q39 28 93 28q76 0 121 -64q39 -57 39 -137z" />
    <glyph glyph-name="Ldot" unicode="&#x13f;" horiz-adv-x="1254" 
d="M1198 347l-79 -347h-1126v37q239 3 239 136v1076q0 91 -66 119q-38 15 -149 15v35h635v-32l-15 1q-77 1 -142 -30q-82 -39 -82 -109v-1057q0 -111 85 -111h423q98 0 163 90q53 72 73 181zM910 715q0 -43 -30.5 -73.5t-73.5 -30.5q-42 0 -72.5 30.5t-30.5 73.5
q0 42 30.5 72.5t72.5 30.5q43 0 73.5 -30.5t30.5 -72.5z" />
    <glyph glyph-name="ldot" unicode="&#x140;" horiz-adv-x="835" 
d="M492 45l-6 -45h-432l-4 8l6 31q63 0 101 51q35 46 35 111v1067q0 36 -38 60q-32 20 -71 20l-50 -10q0 5 1 15t1 16q0 14 29 24q78 24 230 90h44v-1331q0 -98 154 -107zM684 697q0 -43 -30.5 -73.5t-73.5 -30.5q-42 0 -72.5 30.5t-30.5 73.5q0 42 30.5 72.5t72.5 30.5
q43 0 73.5 -30.5t30.5 -72.5z" />
    <glyph glyph-name="Lslash" unicode="&#x141;" horiz-adv-x="1225" 
d="M1198 347l-79 -347h-1126v37q239 1 239 136v402l-202 -166l-19 76l221 186v580q0 92 -68 119q-38 15 -147 15v35h635v-32q-148 -28 -152 -30q-87 -30 -87 -108v-425l213 180l31 -81l-244 -201v-532q0 -111 85 -111h423q97 0 163 90q53 72 73 181z" />
    <glyph glyph-name="lslash" unicode="&#x142;" horiz-adv-x="733" 
d="M609 940l-185 -140v-648q0 -98 154 -107l-6 -45h-432l-4 8l6 31q62 0 102 51q36 46 36 111l-1 490l-154 -117l-18 71l172 125l-1 498q0 36 -38 60q-32 20 -71 20l-50 -10q2 44 2 31q0 13 29 24q78 24 229 90h45v-607l161 117z" />
    <glyph glyph-name="Nacute" unicode="&#x143;" horiz-adv-x="1567" 
d="M1562 1406q0 -17 -3 -37q-109 -13 -119 -17q-53 -21 -53 -98v-1254h-44l-1074 1204v-1036q0 -130 171 -130q23 0 45 3v-41h-451l-12 41q165 0 165 83v1137q0 50 -60 82q-46 25 -105 32l6 43h318l953 -1116v952q0 61 -62 92q-50 25 -116 23v49h438zM1013 1790l-304 -372
l-24 30l154 401z" />
    <glyph glyph-name="nacute" unicode="&#x144;" horiz-adv-x="1154" 
d="M1097 0h-451v45q138 0 138 135v455q0 87 -36 149q-44 74 -125 74q-129 0 -316 -135v-571q0 -98 154 -107l-6 -45h-432l-4 8l6 31q63 0 102 51q36 46 36 111v551q0 36 -63 57q-8 3 -96 22v25q45 6 143 48q92 40 123 65l37 -27v-180q295 186 407 186q109 0 169 -99
q51 -83 51 -198v-520q0 -82 157 -82zM796 1383l-304 -372l-24 30l154 401z" />
    <glyph glyph-name="Ncedilla" unicode="&#x145;" horiz-adv-x="1559" 
d="M1562 1406q0 -17 -3 -37q-109 -13 -119 -17q-53 -21 -53 -98v-1254h-44l-1074 1204v-1036q0 -130 171 -130q23 0 45 3v-41h-451l-12 41q165 0 165 83v1137q0 50 -60 82q-46 25 -105 32l6 43h318l953 -1116v952q0 61 -62 92q-50 25 -116 23v49h438zM839 -245q0 60 -29 101
q-33 48 -90 48q-39 0 -68 -21q-33 -23 -33 -61q0 -31 19 -56t49 -25q8 0 24.5 3t24.5 3q30 0 30 -42q0 -106 -129 -175q8 -26 15 -26q14 0 52 26q35 23 46 37q49 60 64 85q25 46 25 103z" />
    <glyph glyph-name="ncedilla" unicode="&#x146;" horiz-adv-x="1175" 
d="M1097 0h-451v45q138 0 138 135v455q0 87 -36 149q-44 74 -125 74q-129 0 -316 -135v-571q0 -98 154 -107l-6 -45h-432l-4 8l6 31q63 0 102 51q36 46 36 111v551q0 36 -63 57q-8 3 -96 22v25q45 6 143 48q92 40 123 65l37 -27v-180q295 186 407 186q109 0 169 -99
q51 -83 51 -198v-520q0 -82 157 -82zM662 -245q0 60 -29 101q-33 48 -90 48q-39 0 -68 -21q-33 -23 -33 -61q0 -31 19 -56t49 -25q8 0 24.5 3t24.5 3q30 0 30 -42q0 -106 -129 -175q8 -26 15 -26q14 0 52 26q35 23 46 37q49 60 64 85q25 46 25 103z" />
    <glyph glyph-name="Ncaron" unicode="&#x147;" horiz-adv-x="1577" 
d="M1562 1406q0 -17 -3 -37q-109 -13 -119 -17q-53 -21 -53 -98v-1254h-44l-1074 1204v-1036q0 -130 171 -130q23 0 45 3v-41h-451l-12 41q165 0 165 83v1137q0 50 -60 82q-46 25 -105 32l6 43h318l953 -1116v952q0 61 -62 92q-50 25 -116 23v49h438zM1109 1809l-242 -319
l-71 -12l-236 337l42 17l206 -206l254 195z" />
    <glyph glyph-name="ncaron" unicode="&#x148;" horiz-adv-x="1192" 
d="M1097 0h-451v45q138 0 138 135v455q0 87 -36 149q-44 74 -125 74q-129 0 -316 -135v-571q0 -98 154 -107l-6 -45h-432l-4 8l6 31q63 0 102 51q36 46 36 111v551q0 36 -63 57q-8 3 -96 22v25q45 6 143 48q92 40 123 65l37 -27v-180q295 186 407 186q109 0 169 -99
q51 -83 51 -198v-520q0 -82 157 -82zM810 1401l-242 -319l-71 -12l-236 337l42 17l206 -206l254 195z" />
    <glyph glyph-name="napostrophe" unicode="&#x149;" horiz-adv-x="1346" 
d="M351 1233q0 -77 -34 -139q-20 -35 -86 -115q-16 -19 -63 -51q-51 -34 -69 -34q-10 0 -21 35q174 92 174 236q0 57 -40 57q-11 0 -33 -4t-33 -4q-41 0 -68 35q-24 32 -24 74q0 51 44 83q39 28 93 28q76 0 121 -64q39 -57 39 -137zM1260 0h-451v45q138 0 138 135v455
q0 87 -36 149q-44 74 -125 74q-129 0 -316 -135v-571q0 -98 154 -107l-6 -45h-432l-4 8l6 31q63 0 102 51q36 46 36 111v551q0 36 -63 57q-8 3 -96 22v25q45 6 143 48q92 40 123 65l37 -27v-180q295 186 407 186q109 0 169 -99q51 -83 51 -198v-520q0 -82 157 -82z" />
    <glyph glyph-name="Eng" unicode="&#x14a;" horiz-adv-x="1449" 
d="M1302 726q0 -266 -84 -474q-113 -279 -338 -279q-256 0 -274 152q31 77 102 77q67 0 125.5 -80t91.5 -80q193 0 193 584q0 216 -100 436q-122 270 -310 270q-81 0 -198 -77q-92 -61 -168 -140v-963q0 -103 154 -107l-6 -45h-432l-3 8l5 31q61 0 102 51q37 48 37 111v1036
q0 59 -160 80v24q143 27 267 113l36 -27v-235q68 83 185 158q131 83 222 83q217 0 392 -250q161 -230 161 -457z" />
    <glyph glyph-name="eng" unicode="&#x14b;" horiz-adv-x="1108" 
d="M934 131q0 -183 -18 -282q-30 -168 -117 -250q-120 -111 -260 -111q-79 0 -142 25q-84 33 -92 99q29 86 77 86q26 0 107.5 -61.5t126.5 -61.5q168 0 168 236v824q0 86 -37 148q-44 75 -124 75q-129 0 -316 -135v-571q0 -99 154 -107l-6 -45h-432l-4 8l6 31q62 0 102 51
q36 47 36 111v551q0 48 -159 79v25q48 7 137.5 45t128.5 68l37 -27v-180q294 186 407 186q108 0 168 -98q52 -84 52 -199v-520z" />
    <glyph glyph-name="Omacron" unicode="&#x14c;" horiz-adv-x="1618" 
d="M1478 755q0 -329 -199 -545q-205 -222 -531 -222q-320 0 -524 179q-215 188 -215 502q0 329 197 545q204 222 530 222q320 0 526 -179q216 -188 216 -502zM1276 681q0 270 -136 470q-155 228 -413 228t-392 -202q-114 -173 -114 -445q0 -268 133 -463q152 -222 408 -222
q260 0 396 193q118 169 118 441zM972 1607h-467v94h467v-94z" />
    <glyph glyph-name="omacron" unicode="&#x14d;" horiz-adv-x="984" 
d="M949 456q0 -208 -132.5 -338t-341.5 -130q-189 0 -326.5 133.5t-137.5 321.5q0 215 126.5 350t340.5 135q204 0 337.5 -134t133.5 -338zM768 368q0 198 -62 331q-83 178 -258 178q-157 0 -217 -126q-42 -88 -42 -265q0 -162 79 -292q92 -151 244 -151q256 0 256 325z
M721 1218h-467v94h467v-94z" />
    <glyph glyph-name="Obreve" unicode="&#x14e;" horiz-adv-x="1618" 
d="M1478 755q0 -329 -199 -545q-205 -222 -531 -222q-320 0 -524 179q-215 188 -215 502q0 329 197 545q204 222 530 222q320 0 526 -179q216 -188 216 -502zM1276 681q0 270 -136 470q-155 228 -413 228t-392 -202q-114 -173 -114 -445q0 -268 133 -463q152 -222 408 -222
q260 0 396 193q118 169 118 441zM1028 1818q0 -111 -80 -195t-184 -84t-184 84t-80 195l34 30q0 -64 65 -133q72 -78 165 -78q96 0 167 78q64 68 64 133z" />
    <glyph glyph-name="obreve" unicode="&#x14f;" horiz-adv-x="1014" 
d="M949 456q0 -208 -132.5 -338t-341.5 -130q-189 0 -326.5 133.5t-137.5 321.5q0 215 126.5 350t340.5 135q204 0 337.5 -134t133.5 -338zM768 368q0 198 -62 331q-83 178 -258 178q-157 0 -217 -126q-42 -88 -42 -265q0 -162 79 -292q92 -151 244 -151q256 0 256 325z
M769 1406q0 -111 -80 -195t-184 -84t-184 84t-80 195l34 30q0 -64 65 -133q72 -78 165 -78q96 0 167 78q64 68 64 133z" />
    <glyph glyph-name="Odblacute" unicode="&#x150;" horiz-adv-x="1618" 
d="M1478 755q0 -329 -199 -545q-205 -222 -531 -222q-320 0 -524 179q-215 188 -215 502q0 329 197 545q204 222 530 222q320 0 526 -179q216 -188 216 -502zM1276 681q0 270 -136 470q-155 228 -413 228t-392 -202q-114 -173 -114 -445q0 -268 133 -463q152 -222 408 -222
q260 0 396 193q118 169 118 441zM1147 1790l-304 -372l-24 30l154 401zM851 1790l-303 -372l-24 30l154 401z" />
    <glyph glyph-name="odblacute" unicode="&#x151;" horiz-adv-x="1031" 
d="M949 456q0 -208 -132.5 -338t-341.5 -130q-189 0 -326.5 133.5t-137.5 321.5q0 215 126.5 350t340.5 135q204 0 337.5 -134t133.5 -338zM768 368q0 198 -62 331q-83 178 -258 178q-157 0 -217 -126q-42 -88 -42 -265q0 -162 79 -292q92 -151 244 -151q256 0 256 325z
M888 1383l-304 -372l-24 30l154 401zM592 1383l-303 -372l-24 30l154 401z" />
    <glyph glyph-name="OE" unicode="&#x152;" horiz-adv-x="1764" 
d="M1653 336l-35 -336h-947q-287 0 -459 197q-165 188 -165 478q0 305 157 513q174 230 471 230h906l9 -307h-31q-20 232 -126 232h-409v-564h326q79 0 101 175h28v-431h-28q-27 186 -101 186h-326v-519q0 -110 72 -110h356q126 0 166 260zM871 173v1076q0 50 -12 77
q-37 23 -95 26q10 0 -102 0q-233 0 -344 -203q-88 -159 -88 -411q0 -251 106 -445q130 -235 361 -235q76 0 141 23q33 31 33 92z" />
    <glyph glyph-name="oe" unicode="&#x153;" horiz-adv-x="1476" 
d="M1415 246q-112 -264 -354 -264q-177 0 -286 187q-119 -181 -348 -181q-177 0 -299 141q-118 134 -118 314q0 206 105 339q115 146 316 146q219 0 341 -183q110 190 316 190q147 0 234 -102q82 -95 82 -246h-565q0 -24 -5.5 -71t-5.5 -70q0 -129 80 -238q87 -120 212 -120
q170 0 257 169h8q19 1 30 -11zM1267 644q-3 98 -60 163q-61 68 -157 68q-79 0 -139 -79q-50 -65 -68 -152h424zM691 368q0 191 -52 323q-74 186 -235 186q-146 0 -199 -133q-35 -86 -35 -258q0 -155 68 -285q82 -158 223 -158q230 0 230 325z" />
    <glyph glyph-name="Racute" unicode="&#x154;" horiz-adv-x="1369" 
d="M1322 4l-11 -1q-95 -2 -217.5 63.5t-171.5 146.5l-235 387q-48 -8 -95 -8q-69 0 -182 30l-1 -415q0 -91 71 -138q62 -41 156 -36l7 -28l-1 -10h-608l6 44h11q102 -1 142.5 39.5t40.5 142.5v1029q0 134 -194 132v37q139 19 409 19q300 0 443 -57q227 -90 227 -343
q0 -127 -79 -232q-72 -97 -193 -155l303 -470q82 -126 165 -127zM909 1038q0 144 -88 246q-93 106 -235 106q-34 0 -88 -8q-69 -9 -88 -11v-695q68 -19 201 -19q157 0 234 117q64 98 64 264zM885 1790l-304 -372l-24 30l154 401z" />
    <glyph glyph-name="racute" unicode="&#x155;" horiz-adv-x="761" 
d="M712 893q-3 -57 -62 -154q-124 64 -171 64q-60 0 -106 -58q-35 -53 -69 -106v-496q0 -108 135 -108q13 0 37 1t34 1l4 -37h-495v29q141 4 141 114v586q0 59 -144 90v37q88 10 249 102l39 -8v-236q120 224 214 224q48 0 194 -45zM608 1383l-304 -372l-24 30l154 401z" />
    <glyph glyph-name="Rcedilla" unicode="&#x156;" horiz-adv-x="1369" 
d="M1322 4l-11 -1q-95 -2 -217.5 63.5t-171.5 146.5l-235 387q-48 -8 -95 -8q-69 0 -182 30l-1 -415q0 -91 71 -138q62 -41 156 -36l7 -28l-1 -10h-608l6 44h11q102 -1 142.5 39.5t40.5 142.5v1029q0 134 -194 132v37q139 19 409 19q300 0 443 -57q227 -90 227 -343
q0 -127 -79 -232q-72 -97 -193 -155l303 -470q82 -126 165 -127zM909 1038q0 144 -88 246q-93 106 -235 106q-34 0 -88 -8q-69 -9 -88 -11v-695q68 -19 201 -19q157 0 234 117q64 98 64 264zM839 -245q0 60 -29 101q-33 48 -90 48q-39 0 -68 -21q-33 -23 -33 -61
q0 -31 19 -56t49 -25q8 0 24.5 3t24.5 3q30 0 30 -42q0 -106 -129 -175q8 -26 15 -26q14 0 52 26q35 23 46 37q49 60 64 85q25 46 25 103z" />
    <glyph glyph-name="rcedilla" unicode="&#x157;" horiz-adv-x="725" 
d="M712 893q-3 -57 -62 -154q-124 64 -171 64q-60 0 -106 -58q-35 -53 -69 -106v-496q0 -108 135 -108q13 0 37 1t34 1l4 -37h-495v29q141 4 141 114v586q0 59 -144 90v37q88 10 249 102l39 -8v-236q120 224 214 224q48 0 194 -45zM354 -245q0 60 -29 101q-33 48 -89 48
q-40 0 -69 -21q-33 -23 -33 -61q0 -31 19 -56t49 -25q9 0 25 3t24 3q30 0 30 -42q0 -106 -129 -175q8 -26 15 -26q14 0 52 26q35 23 46 37q49 60 64 85q25 46 25 103z" />
    <glyph glyph-name="Rcaron" unicode="&#x158;" horiz-adv-x="1361" 
d="M1322 4l-11 -1q-95 -2 -217.5 63.5t-171.5 146.5l-235 387q-48 -8 -95 -8q-69 0 -182 30l-1 -415q0 -91 71 -138q62 -41 156 -36l7 -28l-1 -10h-608l6 44h11q102 -1 142.5 39.5t40.5 142.5v1029q0 134 -194 132v37q139 19 409 19q300 0 443 -57q227 -90 227 -343
q0 -127 -79 -232q-72 -97 -193 -155l303 -470q82 -126 165 -127zM909 1038q0 144 -88 246q-93 106 -235 106q-34 0 -88 -8q-69 -9 -88 -11v-695q68 -19 201 -19q157 0 234 117q64 98 64 264zM861 1809l-242 -319l-71 -12l-236 337l42 17l206 -206l254 195z" />
    <glyph glyph-name="rcaron" unicode="&#x159;" horiz-adv-x="760" 
d="M712 893q-3 -57 -62 -154q-124 64 -171 64q-60 0 -106 -58q-35 -53 -69 -106v-496q0 -108 135 -108q13 0 37 1t34 1l4 -37h-495v29q141 4 141 114v586q0 59 -144 90v37q88 10 249 102l39 -8v-236q120 224 214 224q48 0 194 -45zM651 1401l-242 -319l-71 -12l-236 337
l42 17l206 -206l254 195z" />
    <glyph glyph-name="Sacute" unicode="&#x15a;" horiz-adv-x="1015" 
d="M964 339q0 -174 -121 -269q-110 -87 -289 -87q-54 0 -161.5 20t-162.5 20q-26 0 -45 -19h-32l-57 351l38 13q37 -152 145.5 -242t262.5 -90q118 0 193.5 78t75.5 197t-184 251q-170 119 -341 238q-184 155 -184 330q0 146 151 232q126 72 284 72q39 0 111.5 -19.5
t108.5 -19.5q31 0 48 27h38l64 -422h-45q-47 186 -118 267q-92 103 -265 103q-96 0 -153.5 -60t-57.5 -157q0 -120 181 -246q167 -115 335 -230q180 -154 180 -338zM751 1790l-304 -372l-24 30l154 401z" />
    <glyph glyph-name="sacute" unicode="&#x15b;" horiz-adv-x="758" 
d="M700 249q0 -105 -96 -179q-88 -70 -196 -70q-36 0 -107 13.5t-107 13.5q-38 0 -51 -39l-39 8l-10 258l23 4q89 -215 256 -215q194 0 194 175q0 101 -121 157q-112 48 -225 96q-121 74 -121 218q0 104 102 174q90 63 198 63q165 0 249 -50l13 -225l-23 -4q-64 136 -85 161
q-56 68 -162 68q-68 0 -121 -42q-58 -44 -58 -110q0 -81 126 -140q230 -107 234 -110q127 -84 127 -225zM627 1383l-304 -372l-24 30l154 401z" />
    <glyph glyph-name="Scircumflex" unicode="&#x15c;" horiz-adv-x="1015" 
d="M964 339q0 -174 -121 -269q-110 -87 -289 -87q-54 0 -161.5 20t-162.5 20q-26 0 -45 -19h-32l-57 351l38 13q37 -152 145.5 -242t262.5 -90q118 0 193.5 78t75.5 197t-184 251q-170 119 -341 238q-184 155 -184 330q0 146 151 232q126 72 284 72q39 0 111.5 -19.5
t108.5 -19.5q31 0 48 27h38l64 -422h-45q-47 186 -118 267q-92 103 -265 103q-96 0 -153.5 -60t-57.5 -157q0 -120 181 -246q167 -115 335 -230q180 -154 180 -338zM788 1513l-48 -12l-254 195l-206 -207l-42 18l237 337l70 -12z" />
    <glyph glyph-name="scircumflex" unicode="&#x15d;" horiz-adv-x="772" 
d="M700 249q0 -105 -96 -179q-88 -70 -196 -70q-36 0 -107 13.5t-107 13.5q-38 0 -51 -39l-39 8l-10 258l23 4q89 -215 256 -215q194 0 194 175q0 101 -121 157q-112 48 -225 96q-121 74 -121 218q0 104 102 174q90 63 198 63q165 0 249 -50l13 -225l-23 -4q-64 136 -85 161
q-56 68 -162 68q-68 0 -121 -42q-58 -44 -58 -110q0 -81 126 -140q230 -107 234 -110q127 -84 127 -225zM684 1076l-48 -12l-254 195l-206 -207l-42 18l237 337l70 -12z" />
    <glyph glyph-name="Scedilla" unicode="&#x15e;" horiz-adv-x="1015" 
d="M964 339q0 -174 -121 -269q-110 -87 -289 -87q-54 0 -161.5 20t-162.5 20q-26 0 -45 -19h-32l-57 351l38 13q37 -152 145.5 -242t262.5 -90q118 0 193.5 78t75.5 197t-184 251q-170 119 -341 238q-184 155 -184 330q0 146 151 232q126 72 284 72q39 0 111.5 -19.5
t108.5 -19.5q31 0 48 27h38l64 -422h-45q-47 186 -118 267q-92 103 -265 103q-96 0 -153.5 -60t-57.5 -157q0 -120 181 -246q167 -115 335 -230q180 -154 180 -338zM721 -226q0 -80 -89 -128q-75 -41 -163 -41q-84 0 -142 30v29q50 -15 124 -15q53 0 99 28q54 33 54 83
q0 77 -99 77q-37 0 -69 -9l124 194h55l-58 -101q64 -8 111 -44q53 -42 53 -103z" />
    <glyph glyph-name="scedilla" unicode="&#x15f;" horiz-adv-x="796" 
d="M700 249q0 -105 -96 -179q-88 -70 -196 -70q-36 0 -107 13.5t-107 13.5q-38 0 -51 -39l-39 8l-10 258l23 4q89 -215 256 -215q194 0 194 175q0 101 -121 157q-112 48 -225 96q-121 74 -121 218q0 104 102 174q90 63 198 63q165 0 249 -50l13 -225l-23 -4q-64 136 -85 161
q-56 68 -162 68q-68 0 -121 -42q-58 -44 -58 -110q0 -81 126 -140q230 -107 234 -110q127 -84 127 -225zM525 -226q0 -80 -89 -128q-75 -41 -163 -41q-84 0 -142 30v29q50 -15 124 -15q53 0 99 28q54 33 54 83q0 77 -99 77q-37 0 -69 -9l124 194h55l-58 -101q64 -8 111 -44
q53 -42 53 -103z" />
    <glyph glyph-name="Scaron" unicode="&#x160;" horiz-adv-x="1015" 
d="M964 339q0 -174 -121 -269q-110 -87 -289 -87q-54 0 -161.5 20t-162.5 20q-26 0 -45 -19h-32l-57 351l38 13q37 -152 145.5 -242t262.5 -90q118 0 193.5 78t75.5 197t-184 251q-170 119 -341 238q-184 155 -184 330q0 146 151 232q126 72 284 72q39 0 111.5 -19.5
t108.5 -19.5q31 0 48 27h38l64 -422h-45q-47 186 -118 267q-92 103 -265 103q-96 0 -153.5 -60t-57.5 -157q0 -120 181 -246q167 -115 335 -230q180 -154 180 -338zM780 1809l-242 -319l-71 -12l-236 337l42 17l206 -206l254 195z" />
    <glyph glyph-name="scaron" unicode="&#x161;" horiz-adv-x="767" 
d="M700 249q0 -105 -96 -179q-88 -70 -196 -70q-36 0 -107 13.5t-107 13.5q-38 0 -51 -39l-39 8l-10 258l23 4q89 -215 256 -215q194 0 194 175q0 101 -121 157q-112 48 -225 96q-121 74 -121 218q0 104 102 174q90 63 198 63q165 0 249 -50l13 -225l-23 -4q-64 136 -85 161
q-56 68 -162 68q-68 0 -121 -42q-58 -44 -58 -110q0 -81 126 -140q230 -107 234 -110q127 -84 127 -225zM676 1401l-242 -319l-71 -12l-236 337l42 17l206 -206l254 195z" />
    <glyph glyph-name="Tcedilla" unicode="&#x162;" horiz-adv-x="1336" 
d="M1289 1087l-44 -6q-22 120 -35 160q-36 109 -97 109h-382v-1162q0 -89 66 -119q43 -18 142 -17v-52h-604v39q214 -2 214 149v1162h-377q-97 0 -131 -276h-32l32 389h18q40 -45 97 -45h957q58 0 113 45h13zM804 -226q0 -80 -89 -128q-75 -41 -163 -41q-84 0 -142 30v29
q50 -15 124 -15q53 0 99 28q54 33 54 83q0 77 -99 77q-37 0 -69 -9l124 194h55l-58 -101q64 -8 111 -44q53 -42 53 -103z" />
    <glyph glyph-name="tcedilla" unicode="&#x163;" horiz-adv-x="675" 
d="M595 176q-89 -176 -245 -176q-93 0 -156 57q-66 60 -66 152v627h-97l-15 49q109 41 159 123q37 60 66 194h35v-287h319l-42 -79h-277v-566q0 -52 54 -112t106 -60q35 0 87.5 55.5l52.5 55.5q20 0 19 -33zM481 -226q0 -80 -89 -128q-75 -41 -163 -41q-84 0 -142 30v29
q50 -15 124 -15q53 0 99 28q54 33 54 83q0 77 -99 77q-37 0 -69 -9l124 194h55l-58 -101q64 -8 111 -44q53 -42 53 -103z" />
    <glyph glyph-name="Tcaron" unicode="&#x164;" horiz-adv-x="1351" 
d="M1289 1087l-44 -6q-22 120 -35 160q-36 109 -97 109h-382v-1162q0 -89 66 -119q43 -18 142 -17v-52h-604v39q214 -2 214 149v1162h-377q-97 0 -131 -276h-32l32 389h18q40 -45 97 -45h957q58 0 113 45h13zM914 1809l-242 -319l-71 -12l-236 337l42 17l206 -206l254 195z
" />
    <glyph glyph-name="tcaron" unicode="&#x165;" horiz-adv-x="933" 
d="M595 176q-89 -176 -245 -176q-93 0 -156 57q-66 60 -66 152v627h-97l-15 49q109 41 159 123q37 60 66 194h35v-287h319l-42 -79h-277v-566q0 -52 54 -112t106 -60q35 0 87.5 55.5l52.5 55.5q20 0 19 -33zM857 1233q0 -77 -34 -139q-20 -35 -86 -115q-16 -19 -63 -51
q-51 -34 -69 -34q-10 0 -21 35q174 92 174 236q0 57 -40 57q-11 0 -33 -4t-33 -4q-41 0 -68 35q-24 32 -24 74q0 51 44 83q39 28 93 28q76 0 121 -64q39 -57 39 -137z" />
    <glyph glyph-name="Tbar" unicode="&#x166;" horiz-adv-x="1346" 
d="M1289 1087l-44 -6q-22 120 -35 160q-36 109 -97 109h-382v-589h341v-88h-341v-485q0 -89 66 -119q43 -18 142 -17v-52h-604v39q214 -2 214 149v485h-343v88h343v589h-377q-97 0 -131 -276h-32l32 389h18q40 -45 97 -45h957q58 0 113 45h13z" />
    <glyph glyph-name="tbar" unicode="&#x167;" horiz-adv-x="714" 
d="M595 176q-89 -176 -245 -176q-93 0 -157 58.5t-64 150.5v300h-123v89h123l-1 238h-97l-15 49q109 41 159 123q37 60 66 194h35v-287h319l-42 -79h-277v-238h249v-89h-249v-239q0 -52 54 -112t106 -60q35 0 87.5 55.5l52.5 55.5q20 0 19 -33z" />
    <glyph glyph-name="Utilde" unicode="&#x168;" horiz-adv-x="1457" 
d="M1472 1416l-1 -51l-2 -2q-110 -17 -131 -28q-51 -27 -51 -116v-791q0 -210 -183 -335q-162 -110 -382 -110q-248 0 -411 141q-172 148 -172 392v753q0 104 -163 100l13 49h489l-6 -49q-176 -16 -176 -113v-778q0 -150 170 -277q158 -118 313 -118q170 0 288 96
q126 103 126 268v734q0 191 -169 188l-13 49zM1070 1779q-38 -218 -160 -218q-88 0 -175 69t-127 69q-87 0 -107 -133l-42 22q38 218 161 218q88 0 174.5 -69t127.5 -69q86 0 107 133z" />
    <glyph glyph-name="utilde" unicode="&#x169;" horiz-adv-x="1134" 
d="M1075 123l-2 -41l-303 -86v180q-187 -186 -407 -186q-218 0 -218 297v442q0 61 -42 96t-104 35l-4 41l298 53v-651q0 -86 55 -146q56 -63 141 -63t281 142v550q0 75 -193 86v33l336 62v-781q0 -75 84 -75q22 0 78 12zM808 1381q-38 -218 -160 -218q-88 0 -175 69t-127 69
q-87 0 -107 -133l-42 22q38 218 161 218q88 0 174.5 -69t127.5 -69q86 0 107 133z" />
    <glyph glyph-name="Umacron" unicode="&#x16a;" horiz-adv-x="1469" 
d="M1473 1416l-1 -51l-2 -2q-110 -17 -131 -28q-51 -27 -51 -116v-791q0 -210 -183 -335q-162 -110 -382 -110q-248 0 -411 141q-172 148 -172 392v753q0 104 -163 100l13 49h489l-6 -49q-176 -16 -176 -113v-778q0 -150 170 -277q158 -118 313 -118q170 0 288 96
q126 103 126 268v734q0 191 -169 188l-13 49zM1019 1607h-467v94h467v-94z" />
    <glyph glyph-name="umacron" unicode="&#x16b;" horiz-adv-x="1127" 
d="M1075 123l-2 -41l-303 -86v180q-187 -186 -407 -186q-218 0 -218 297v442q0 61 -42 96t-104 35l-4 41l298 53v-651q0 -86 55 -146q56 -63 141 -63t281 142v550q0 75 -193 86v33l336 62v-781q0 -75 84 -75q22 0 78 12zM742 1218h-467v94h467v-94z" />
    <glyph glyph-name="Ubreve" unicode="&#x16c;" horiz-adv-x="1469" 
d="M1473 1416l-1 -51l-2 -2q-110 -17 -131 -28q-51 -27 -51 -116v-791q0 -210 -183 -335q-162 -110 -382 -110q-248 0 -411 141q-172 148 -172 392v753q0 104 -163 100l13 49h489l-6 -49q-176 -16 -176 -113v-778q0 -150 170 -277q158 -118 313 -118q170 0 288 96
q126 103 126 268v734q0 191 -169 188l-13 49zM1028 1818q0 -111 -80 -195t-184 -84t-184 84t-80 195l34 30q0 -64 65 -133q72 -78 165 -78q96 0 167 78q64 68 64 133z" />
    <glyph glyph-name="ubreve" unicode="&#x16d;" horiz-adv-x="1133" 
d="M1075 123l-2 -41l-303 -86v180q-187 -186 -407 -186q-218 0 -218 297v442q0 61 -42 96t-104 35l-4 41l298 53v-651q0 -86 55 -146q56 -63 141 -63t281 142v550q0 75 -193 86v33l336 62v-781q0 -75 84 -75q22 0 78 12zM801 1406q0 -111 -80 -195t-184 -84t-184 84t-80 195
l34 30q0 -64 65 -133q72 -78 165 -78q96 0 167 78q64 68 64 133z" />
    <glyph glyph-name="Uring" unicode="&#x16e;" horiz-adv-x="1456" 
d="M1472 1416l-1 -51l-2 -2q-110 -17 -131 -28q-51 -27 -51 -116v-791q0 -210 -183 -335q-162 -110 -382 -110q-248 0 -411 141q-172 148 -172 392v753q0 104 -163 100l13 49h489l-6 -49q-176 -16 -176 -113v-778q0 -150 170 -277q158 -118 313 -118q170 0 288 96
q126 103 126 268v734q0 191 -169 188l-13 49zM976 1640q0 -82 -58 -140t-139 -58q-82 0 -140 58t-58 140t58 140t140 58q81 0 139 -58t58 -140zM905 1639q0 52 -37 89.5t-89 37.5q-53 0 -90 -37.5t-37 -89.5q0 -53 37 -90t90 -37q52 0 89 37t37 90z" />
    <glyph glyph-name="uring" unicode="&#x16f;" horiz-adv-x="1131" 
d="M1074 123l-2 -41l-303 -86v180q-187 -186 -407 -186q-218 0 -218 297v442q0 61 -42 96t-104 35l-4 41l298 53v-651q0 -86 55 -146q56 -63 141 -63t281 142v550q0 75 -193 86v33l336 62v-781q0 -75 84 -75q22 0 78 12zM683 1250q0 -82 -58 -140t-139 -58q-82 0 -140 58
t-58 140t58 140t140 58q81 0 139 -58t58 -140zM612 1249q0 52 -37 89.5t-89 37.5q-53 0 -90 -37.5t-37 -89.5q0 -53 37 -90t90 -37q52 0 89 37t37 90z" />
    <glyph glyph-name="Udblacute" unicode="&#x170;" horiz-adv-x="1468" 
d="M1472 1416l-1 -51l-2 -2q-110 -17 -131 -28q-51 -27 -51 -116v-791q0 -210 -183 -335q-162 -110 -382 -110q-248 0 -411 141q-172 148 -172 392v753q0 104 -163 100l13 49h489l-6 -49q-176 -16 -176 -113v-778q0 -150 170 -277q158 -118 313 -118q170 0 288 96
q126 103 126 268v734q0 191 -169 188l-13 49zM1129 1790l-304 -372l-24 30l154 401zM833 1790l-303 -372l-24 30l154 401z" />
    <glyph glyph-name="udblacute" unicode="&#x171;" horiz-adv-x="1137" 
d="M1074 123l-2 -41l-303 -86v180q-187 -186 -407 -186q-218 0 -218 297v442q0 61 -42 96t-104 35l-4 41l298 53v-651q0 -86 55 -146q56 -63 141 -63t281 142v550q0 75 -193 86v33l336 62v-781q0 -75 84 -75q22 0 78 12zM876 1383l-304 -372l-24 30l154 401zM580 1383
l-303 -372l-24 30l154 401z" />
    <glyph glyph-name="Uogonek" unicode="&#x172;" horiz-adv-x="1456" 
d="M1472 1416l-1 -51l-2 -2q-110 -17 -131 -28q-51 -27 -51 -116v-791q0 -210 -183 -335q-162 -110 -382 -110q-248 0 -411 141q-172 148 -172 392v753q0 104 -163 100l13 49h489l-6 -49q-176 -16 -176 -113v-778q0 -150 170 -277q158 -118 313 -118q170 0 288 96
q126 103 126 268v734q0 191 -169 188l-13 49zM945 -300q-108 -73 -225 -73q-99 0 -163 47q-72 53 -72 149q0 93 74 209l54 -7q-43 -66 -43 -128q0 -85 72 -137q65 -46 153 -46q60 0 117 22z" />
    <glyph glyph-name="uogonek" unicode="&#x173;" horiz-adv-x="1160" 
d="M1074 123l-2 -41l-303 -86v180q-187 -186 -407 -186q-218 0 -218 297v442q0 61 -42 96t-104 35l-4 41l298 53v-651q0 -86 55 -146q56 -63 141 -63t281 142v550q0 75 -193 86v33l336 62v-781q0 -75 84 -75q22 0 78 12zM1204 -300q-108 -73 -225 -73q-99 0 -163 47
q-72 53 -72 149q0 93 74 209l54 -7q-43 -66 -43 -128q0 -85 72 -137q65 -46 153 -46q60 0 117 22z" />
    <glyph glyph-name="Wcircumflex" unicode="&#x174;" horiz-adv-x="2102" 
d="M1958 1418l-20 -35q-44 0 -94.5 -35t-66.5 -77l-479 -1271h-97l-229 609l-235 -609h-94l-480 1277q-33 87 -188 87l-9 54h1429l-11 -29q-114 0 -163 -128l-169 -443l200 -532q12 -33 26 -33q15 0 26 28l380 1019q7 19 7 32q0 32 -38 40q-17 4 -76 4q-9 0 -47 2
q-31 3 -46 2l-8 38h482zM1131 1298q3 10 3 22q0 63 -52 63h-163q-58 0 -58 -52q0 -11 4 -22l110 -288q17 -46 23 -46q12 0 27 41zM915 743q0 26 -19 74l-185 488q-19 51 -101 65q-32 6 -131 6q-163 0 -163 -73q0 -16 7 -34l372 -994q16 -42 26 -42t25 40l160 426q9 24 9 44z
M1212 1513l-48 -12l-254 195l-206 -207l-42 18l237 337l70 -12z" />
    <glyph glyph-name="wcircumflex" unicode="&#x175;" horiz-adv-x="1500" 
d="M1552 915l-3 -36q-55 0 -103 -41q-44 -37 -66 -91l-304 -769h-52l-255 642l-261 -642h-51l-318 757q-61 144 -154 144v36h403l-4 -44q-122 0 -122 -56q0 -25 112 -288q67 -155 135 -310q7 -16 15 -16q9 0 18 20l201 476q-42 112 -60 133q-39 49 -130 49v36h432l-4 -36
q-137 0 -137 -54q0 -16 232 -608q7 -16 15 -16q10 0 18 20l198 486q20 49 20 86q0 90 -141 90l11 32h355zM1050 1076l-48 -12l-254 195l-206 -207l-42 18l237 337l70 -12z" />
    <glyph glyph-name="Ycircumflex" unicode="&#x176;" horiz-adv-x="1253" 
d="M1343 1418l-4 -41q-89 -4 -116 -21t-70 -92l-387 -671v-386q0 -103 53 -141q43 -30 152 -30v-35h-583v35q211 0 211 171v339l-425 722q-34 58 -71 79q-30 16 -104 26l-19 45h547l-9 -49q-190 -15 -190 -50q0 -15 388 -664l367 656q-1 54 -173 64l-28 43h461zM985 1513
l-48 -12l-254 195l-206 -207l-42 18l237 337l70 -12z" />
    <glyph glyph-name="ycircumflex" unicode="&#x177;" horiz-adv-x="1007" 
d="M1086 885q-111 0 -191 -152q-23 -43 -123 -291q-102 -270 -320 -803q-67 -152 -160 -152q-125 0 -125 65q0 95 138 129q87 22 148 129q21 38 80 190l-342 733q-33 71 -64 99q-36 32 -107 49l-5 36h449l-5 -40q-122 0 -122 -70q0 -18 274 -612q65 158 129 316
q105 259 105 284q0 90 -129 86l1 36h367zM856 1076l-48 -12l-254 195l-206 -207l-42 18l237 337l70 -12z" />
    <glyph glyph-name="Ydieresis" unicode="&#x178;" horiz-adv-x="1253" 
d="M1343 1418l-4 -41q-89 -4 -116 -21t-70 -92l-387 -671v-386q0 -103 53 -141q43 -30 152 -30v-35h-583v35q211 0 211 171v339l-425 722q-34 58 -71 79q-30 16 -104 26l-19 45h547l-9 -49q-190 -15 -190 -50q0 -15 388 -664l367 656q-1 54 -173 64l-28 43h461zM1015 1651
q0 -43 -30 -73.5t-73 -30.5t-73 30.5t-30 73.5t30 73t73 30t73 -30t30 -73zM667 1651q0 -43 -30.5 -73.5t-72.5 -30.5q-43 0 -73.5 30.5t-30.5 73.5t30.5 73t73.5 30q42 0 72.5 -30t30.5 -73z" />
    <glyph glyph-name="Zacute" unicode="&#x179;" horiz-adv-x="1199" 
d="M1162 372l-138 -372h-1005l-3 57l819 1272h-608q-55 0 -92 -110l-42 -158l-43 4l79 391l35 12q31 -50 74 -50h830q-4 -14 -16 -40l-846 -1284h745q45 0 106 117q37 81 74 161h31zM776 1790l-304 -372l-24 30l154 401z" />
    <glyph glyph-name="zacute" unicode="&#x17a;" horiz-adv-x="932" 
d="M837 266l-102 -266h-716l-3 57l579 770h-381q-55 0 -91 -85q-21 -68 -41 -136l-43 4l78 344l35 13q31 -50 74 -50h603q-7 -19 -16 -40l-607 -783h456q46 0 90 68q27 52 53 104h32zM659 1383l-304 -372l-24 30l154 401z" />
    <glyph glyph-name="Zdot" unicode="&#x17b;" horiz-adv-x="1189" 
d="M1162 372l-138 -372h-1005l-3 57l819 1272h-608q-55 0 -92 -110l-42 -158l-43 4l79 391l35 12q31 -50 74 -50h830q-4 -14 -16 -40l-846 -1284h745q45 0 106 117q37 81 74 161h31zM656 1652q0 -43 -30.5 -73.5t-73.5 -30.5q-42 0 -72.5 30.5t-30.5 73.5q0 42 30.5 72.5
t72.5 30.5q43 0 73.5 -30.5t30.5 -72.5z" />
    <glyph glyph-name="zdot" unicode="&#x17c;" horiz-adv-x="917" 
d="M837 266l-102 -266h-716l-3 57l579 770h-381q-55 0 -91 -85q-21 -68 -41 -136l-43 4l78 344l35 13q31 -50 74 -50h603q-7 -19 -16 -40l-607 -783h456q46 0 90 68q27 52 53 104h32zM559 1280q0 -43 -30.5 -73.5t-73.5 -30.5q-42 0 -72.5 30.5t-30.5 73.5q0 42 30.5 72.5
t72.5 30.5q43 0 73.5 -30.5t30.5 -72.5z" />
    <glyph glyph-name="Zcaron" unicode="&#x17d;" horiz-adv-x="1199" 
d="M1162 372l-138 -372h-1005l-3 57l819 1272h-608q-55 0 -92 -110l-42 -158l-43 4l79 391l35 12q31 -50 74 -50h830q-4 -14 -16 -40l-846 -1284h745q45 0 106 117q37 81 74 161h31zM897 1809l-242 -319l-71 -12l-236 337l42 17l206 -206l254 195z" />
    <glyph glyph-name="zcaron" unicode="&#x17e;" horiz-adv-x="938" 
d="M837 266l-102 -266h-716l-3 57l579 770h-381q-55 0 -91 -85q-21 -68 -41 -136l-43 4l78 344l35 13q31 -50 74 -50h603q-7 -19 -16 -40l-607 -783h456q46 0 90 68q27 52 53 104h32zM726 1401l-242 -319l-71 -12l-236 337l42 17l206 -206l254 195z" />
    <glyph glyph-name="longs" unicode="&#x17f;" horiz-adv-x="840" 
d="M813 1278q0 -40 -25 -68.5t-64 -28.5q-32 0 -53 42q-36 69 -43 78q-35 41 -97 41q-192 0 -192 -195v-975q0 -93 62 -116q30 -12 142 -11v-45h-487l-5 29q78 23 97 33q50 28 50 81v854q0 133 18 186q21 67 104 155q91 98 280 98q213 0 213 -158z" />
    <glyph glyph-name="bbar" unicode="&#x180;" horiz-adv-x="1089" 
d="M933 477q0 -229 -154 -363q-146 -126 -379 -126q-148 0 -327 45v1095h-124v94h124v36q0 45 -52 71q-46 23 -111 21q-5 0 -9 14t-11 19q166 17 327 92v-253h428v-94h-428v-341q144 85 170 98q99 47 188 47q170 0 270 -148q88 -129 88 -307zM772 431q0 144 -70 264
q-83 141 -216 141q-55 0 -144 -35q-94 -37 -125 -76v-524q0 -65 104 -111q86 -38 163 -38q139 0 219 125q69 107 69 254z" />
    <glyph glyph-name="Bhook" unicode="&#x181;" horiz-adv-x="1373" 
d="M1262 381q0 -204 -178 -303q-142 -78 -365 -78h-736v40q151 3 197 19q97 34 97 151v1019q0 137 -218 137q-167 0 -167 -87q0 -1 32 -26t32 -62q0 -25 -21.5 -45t-46.5 -20q-58 0 -58 117q0 113 68 147q77 39 766 39q200 0 342 -59q194 -82 194 -254q0 -271 -313 -317
q193 -42 279 -130q96 -98 96 -288zM1002 1067q0 308 -305 308h-248v-566h187q176 0 253 39q113 57 113 219zM1068 389q0 171 -81 269q-87 107 -255 107h-283v-565q0 -150 237 -150q160 0 267 89q115 94 115 250z" />
    <glyph glyph-name="Btopbar" unicode="&#x182;" horiz-adv-x="1328" 
d="M1227 381q0 -204 -178 -303q-141 -78 -365 -78h-701v40q139 2 179 19q80 33 80 151v1019q0 139 -234 137l8 52h1063l22 -284h-37q2 199 -176 199h-474v-524q30 0 94.5 1t98.5 1q289 0 424 -67q196 -98 196 -363zM1033 389q0 171 -81 269q-87 107 -255 107h-283v-565
q0 -150 237 -150q160 0 267 89q115 94 115 250z" />
    <glyph glyph-name="btopbar" unicode="&#x183;" horiz-adv-x="1035" 
d="M969 477q0 -229 -154 -363q-147 -126 -379 -126q-148 0 -327 45v1385h762l23 -284h-37q2 199 -176 199h-428v-546q138 82 170 97q100 48 188 48q169 0 270 -147q88 -130 88 -308zM808 431q0 144 -70 264q-83 141 -217 141q-55 0 -143 -35q-92 -36 -125 -76v-524
q0 -65 104 -111q86 -38 162 -38q140 0 220 125q69 107 69 254z" />
    <glyph glyph-name="Tonesix" unicode="&#x184;" horiz-adv-x="1298" 
d="M1176 381q0 -204 -179 -303q-142 -78 -365 -78h-678v40q130 1 167 19q69 32 69 151v891q-31 55 -174 152q184 62 346 203v-647q29 0 97 1q63 1 96 1q291 0 428 -69q193 -98 193 -361zM981 389q0 171 -81 269q-88 107 -255 107h-283v-565q0 -150 237 -150q159 0 267 89
q115 94 115 250z" />
    <glyph glyph-name="tonesix" unicode="&#x185;" horiz-adv-x="991" 
d="M969 470q0 -228 -154 -362q-147 -127 -379 -127q-148 0 -327 45v931q-48 86 -153 158q104 35 297 202v-537q138 83 170 98q100 48 188 48q169 0 270 -148q88 -130 88 -308zM808 431q0 144 -70 264q-83 141 -217 141q-55 0 -143 -35q-92 -36 -125 -76v-524q0 -66 104 -111
q86 -38 162 -38q140 0 220 125q69 107 69 254z" />
    <glyph glyph-name="Oopen" unicode="&#x186;" horiz-adv-x="1513" 
d="M1370 734q0 -321 -208 -544q-213 -228 -531 -228q-210 0 -376 77q-53 24 -68 24q-20 0 -29 -15l-32 2l-13 303h36q43 -160 181 -253q130 -87 301 -87q252 0 407 206q142 187 142 447q0 271 -153 468q-166 214 -429 214q-148 0 -285 -95q-133 -94 -191 -232l-41 11
q66 191 191 315q303 50 393 50q292 0 495 -184q210 -190 210 -479z" />
    <glyph glyph-name="Chook" unicode="&#x187;" horiz-adv-x="1365" 
d="M1550 1469q0 -92 -74 -92q-57 0 -71 64t-37 64q-39 0 -66 -68q-23 -56 -21 -101l14 -302h-37q-42 159 -181 252q-130 88 -300 88q-252 0 -408 -206q-142 -188 -142 -448q0 -271 153 -468q167 -214 430 -214q148 0 284 95q133 94 191 233l41 -12q-65 -190 -191 -315
q-301 -49 -393 -49q-292 0 -495 184q-209 190 -209 479q0 320 208 543q213 228 531 228q207 0 375 -77q17 -8 51 -22q19 273 221 273q56 0 91 -36.5t35 -92.5z" />
    <glyph glyph-name="chook" unicode="&#x188;" horiz-adv-x="913" 
d="M1097 885q0 -92 -74 -92q-58 0 -72.5 78.5t-38.5 78.5q-63 0 -90 -65q-18 -60 -35 -120q-26 -65 -89 -65q-55 0 -73 45l-32 84q-33 46 -126 46q-151 0 -236 -137q-71 -117 -71 -277q0 -134 94 -250q99 -123 230 -123q188 0 286 169q29 2 41 -11q-124 -264 -393 -264
q-173 0 -293 139q-115 133 -115 309q0 220 152 363q149 140 371 140q119 0 218 -78q71 96 98 124q63 64 119 64q49 0 89 -47.5t40 -110.5z" />
    <glyph glyph-name="Dbar" unicode="&#x189;" horiz-adv-x="1562" 
d="M1419 754q0 -328 -210 -541t-538 -213h-652v42q102 -1 144 31q49 37 49 135v503h-155v75h155v478q0 114 -132 114q-23 0 -52 -3v39q160 19 435 19q409 0 648 -132q308 -171 308 -547zM1199 716q0 671 -700 671q-49 0 -111 -4v-597h441v-75h-441v-524q0 -148 80 -148h203
q269 0 408 213q120 181 120 464z" />
    <glyph glyph-name="Dhook" unicode="&#x18a;" horiz-adv-x="1613" 
d="M1247 711q0 670 -700 670q-49 0 -111 -3v-1196q0 -149 80 -149h203q269 0 409 213q119 182 119 465zM1467 749q0 -328 -210 -541t-538 -213h-652v42q101 -1 144 31q49 37 49 135v1055q0 109 -130 109q-75 0 -143 -29q-86 -37 -86 -102q0 -1 34.5 -35t34.5 -78
q0 -31 -21 -57.5t-51 -26.5q-62 0 -62 150q0 154 146 210q91 35 278 35q543 0 790 -90q417 -151 417 -595z" />
    <glyph glyph-name="Dtopbar" unicode="&#x18b;" horiz-adv-x="1482" 
d="M1364 0h-736q-223 0 -365 78q-178 99 -178 303q0 265 196 363q135 67 423 67q35 0 100.5 -1t93.5 -1v524h-474q-178 0 -176 -199h-37l22 284h1063l9 -52q-235 2 -235 -137v-1019q0 -117 98 -151q49 -17 196 -19v-40zM898 200v565h-283q-167 0 -255 -107q-81 -98 -81 -269
q0 -156 115 -251q108 -88 267 -88q237 0 237 150z" />
    <glyph glyph-name="dtopbar" unicode="&#x18c;" horiz-adv-x="1115" 
d="M1047 98l-140 -50q-79 -30 -135 -62q-10 -6 -19 -6q-24 0 -25 74q0 -51 4 93q-85 -52 -169 -105q-93 -52 -193 -52q-159 0 -263 150q-93 134 -93 299q0 215 126 346q148 153 339 153q158 0 253 -54v449h-416q-178 0 -175 -199h-37l22 284h742v-1225q0 -25 20 -46.5
t44 -21.5q20 0 58.5 4t56.5 4v-35zM732 186v515q-68 97 -128 133q-67 38 -180 38q-143 0 -208 -151q-48 -111 -48 -275q0 -128 79 -239q87 -121 210 -121q86 0 275 100z" />
    <glyph glyph-name="deltaturn" unicode="&#x18d;" horiz-adv-x="1008" 
d="M960 473q0 -210 -122 -344q-124 -138 -332 -142q86 -52 173 -104q109 -79 109 -152q0 -104 -122 -179q-108 -67 -219 -67q-392 0 -392 215q0 42 26.5 71.5t68.5 29.5q28 0 56 -18q33 -19 33 -45q0 -13 -4.5 -38.5t-4.5 -38.5q0 -44 59 -83q55 -36 101 -36q78 0 145 45
q76 51 76 125q0 118 -153 214q-269 169 -284 183q-152 136 -152 350q0 208 133 338t341 130q188 0 326 -134t138 -320zM781 430q0 162 -78 291q-92 151 -244 151q-256 0 -256 -324q0 -198 62 -332q83 -178 257 -178q157 0 217 127q42 88 42 265z" />
    <glyph glyph-name="Eturn" unicode="&#x18e;" horiz-adv-x="1229" 
d="M1197 1387q-239 -3 -239 -136v-1078q0 -78 42 -106t172 -28v-35h-1057l-11 307h37q24 -231 150 -231h486v564h-387q-93 0 -120 -175h-34v432h34q32 -187 120 -187h387v519q0 111 -85 111h-423q-150 0 -198 -260l-41 3l41 337h1126v-37z" />
    <glyph glyph-name="Schwa" unicode="&#x18f;" horiz-adv-x="1357" 
d="M1266 715q0 -310 -176 -521q-188 -225 -491 -225q-243 0 -393 147t-150 389h996q7 65 7 133q0 230 -140 424q-154 213 -376 213q-291 0 -441 -260h-13q-33 -2 -52 17q192 407 608 407q266 0 449 -233q172 -218 172 -491zM1018 418h-727q6 -158 110 -257.5t262 -99.5
q132 0 234 116q88 101 121 241z" />
    <glyph glyph-name="Epsilonlatin" unicode="&#x190;" horiz-adv-x="1215" 
d="M1100 384q-169 -412 -533 -412q-203 0 -355 80q-199 105 -199 311q0 252 255 375q-198 109 -198 269q0 237 193 356q152 93 377 93q119 0 251 -46q177 -62 177 -166q0 -149 -121 -149q-63 0 -98 71q-31 65 -63 131q-51 71 -153 71q-150 0 -269 -82q-139 -97 -139 -259
q0 -171 159 -248q146 41 373 41q121 0 121 -91q0 -82 -208 -82q-178 0 -273 28q-181 -74 -181 -303q0 -144 162 -209q112 -45 267 -45q255 0 399 284h11q29 2 45 -18z" />
    <glyph glyph-name="Fhook" unicode="&#x191;" horiz-adv-x="1054" 
d="M1018 1134h-36q0 199 -176 199h-451v-537h373q60 0 95 47q30 42 30 105h28v-390h-28q1 164 -125 164h-373v-543q0 -275 -100 -463q-118 -221 -337 -221q-211 0 -211 113q0 36 23 62.5t58 26.5q75 0 109.5 -51.5t123.5 -51.5q159 0 159 368l-1 1307q0 109 -166 108v43h981
z" />
    <glyph glyph-name="florin" unicode="&#x192;" horiz-adv-x="889" 
d="M941 1318l-101 -94q-31 142 -202 142q-98 0 -176 -60q-84 -64 -84 -159v-230h235v-78h-235v-941q0 -165 -109 -285q-112 -125 -275 -125q-177 0 -179 124q-1 24 25.5 55t51.5 31t79.5 -61.5t99.5 -61.5q69 0 120 69q47 63 47 136v1059h-30q-17 0 -145 16l-1 39q7 0 28 -1
h28q67 0 89 24h31v29q0 156 32 223q28 57 147 169q104 98 293 98q104 0 231 -118z" />
    <glyph glyph-name="Ghook" unicode="&#x193;" horiz-adv-x="1391" 
d="M1521 1469q0 -92 -74 -92q-56 0 -70.5 64t-36.5 64q-39 0 -67 -67q-22 -57 -21 -102l12 -330h-36q-27 180 -154 282q-123 97 -307 97q-275 0 -429 -221q-136 -194 -136 -481q0 -258 141 -442q155 -202 406 -202q227 0 340 93v361q0 72 -58 109q-49 32 -125 31v40h488v-40
q-60 1 -101 -33t-41 -93v-388q-260 -134 -550 -134q-294 0 -490 186q-199 189 -199 482q0 337 196 555q203 226 536 226q131 0 225 -29q102 -40 205 -80q18 273 220 273q56 0 91 -36.5t35 -92.5z" />
    <glyph glyph-name="Gammalatin" unicode="&#x194;" horiz-adv-x="1550" 
d="M1465 1418l-19 -35q-103 -7 -140 -46q-21 -22 -65 -133l-432 -1093q90 -215 104 -252q63 -171 63 -258q0 -102 -66 -177q-69 -78 -170 -78q-219 0 -219 274q0 112 136 395l-488 1196q-35 84 -69 115q-38 34 -123 51l-6 41h600l-25 -48q-209 -21 -209 -79q0 -22 42 -125
l375 -922l360 865q51 122 51 169q0 87 -190 102l-15 38h505zM825 -427q0 60 -41 156q-35 74 -69 149q-84 -203 -84 -263q0 -156 94 -156q40 0 70 37t30 77z" />
    <glyph glyph-name="hv" unicode="&#x195;" horiz-adv-x="1683" 
d="M1539 640q0 -292 -139 -464q-152 -186 -437 -186q-218 0 -218 297v316q0 85 -39 151q-47 79 -126 79q-104 0 -312 -143v-538q0 -99 154 -107l20 -45h-458l-3 8l5 31q85 -1 115 43q24 34 24 119v1066q0 38 -38 61q-31 19 -71 19l-51 -10q2 44 2 31q0 13 29 24
q59 18 117 36q64 20 113 54h42v-732q242 184 409 184q112 0 170 -107q46 -86 46 -208v-316q0 -85 56 -147t141 -62q172 0 259 133q74 112 74 293q0 95 -40 167q-20 37 -74 95q-39 44 -39 70q0 40 28 74t68 34q173 0 173 -320z" />
    <glyph glyph-name="Iotalatin" unicode="&#x196;" horiz-adv-x="637" 
d="M681 263q-47 -113 -122 -184q-85 -79 -182 -79q-94 0 -149 59q-58 61 -58 172v891q0 110 -89 110q-34 0 -79 -13l-30 59q234 80 353 169l45 -40v-1067q0 -193 114 -193q43 0 108 82.5l65 82.5q26 0 24 -49z" />
    <glyph glyph-name="Ibar" unicode="&#x197;" horiz-adv-x="746" 
d="M623 1385h-4q-201 0 -201 -171l-1 -396h171v-104h-171v-507q0 -99 48 -137q44 -34 157 -34v-35h-583v35h4q208 0 208 171v507h-159v104h159v396q0 99 -47 137q-45 34 -158 34v35h577v-35z" />
    <glyph glyph-name="Khook" unicode="&#x198;" horiz-adv-x="1575" 
d="M1267 1426q88 0 159 -53q79 -57 79 -142t-51 -150q-54 -69 -137 -69q-36 0 -72 23q-40 27 -40 61q0 21 25 42.5t46 21.5q16 0 42 -16.5t38 -16.5q68 0 68 84q0 55 -39.5 89.5t-95.5 34.5q-79 0 -217 -130q-81 -75 -245 -263q-149 -171 -200 -213q152 -91 345 -313
q83 -101 167 -201q127 -146 178 -163t119 -17q34 0 69 4v-37h-646l6 37q30 -7 61 -7q30 0 59 11q38 14 38 39q0 35 -227 258q-217 214 -379 296v-429q0 -99 55 -139q47 -34 150 -32v-35h-583v35h9q203 -2 203 171v1007q0 100 -55 139q-46 34 -150 32v35h577v-35h-9
q-196 2 -196 -171l-1 -509q114 55 281 248q250 289 278 317q161 156 291 156z" />
    <glyph glyph-name="khook" unicode="&#x199;" horiz-adv-x="1146" 
d="M1065 49l-4 -49h-475l4 49q105 15 105 45q0 24 -39 66l-370 397v-405q0 -98 154 -107l-6 -45h-432l-4 8l6 31q63 0 102 51q36 46 36 111v827q0 163 117 286.5t279 123.5q73 0 153 -45q92 -51 92 -118q0 -26 -25 -60t-50 -34q-61 0 -90 44l-46 82q-35 45 -111 45
q-70 0 -124 -69q-51 -65 -51 -136v-569l215 168q78 62 78 91q0 41 -113 41l10 39h424l2 -44q-53 0 -122 -17q-77 -20 -111 -48l-262 -214l432 -438q100 -102 226 -107z" />
    <glyph glyph-name="lbar" unicode="&#x19a;" horiz-adv-x="639" 
d="M492 45l-6 -45h-432l-4 8l6 31q63 0 101 51q35 46 35 111v1067q0 36 -38 60q-32 20 -71 20l-50 -10q0 5 1 15t1 16q0 14 29 24q78 24 230 90h44v-1331q0 -98 154 -107zM499 705h-467v94h467v-94z" />
    <glyph glyph-name="lambdabar" unicode="&#x19b;" horiz-adv-x="1184" 
d="M1069 36l-2 -32h-367l-1 36h9q119 -2 119 86q0 28 -104 285q-64 158 -129 315q-274 -592 -274 -612q0 -71 122 -70l4 -40h-449l5 36q70 16 107 49q32 30 65 99l342 733q-14 37 -43 112l-364 -197l-44 81l368 198q-55 94 -146 125q-138 46 -138 129q0 65 126 65
q74 0 138 -111q21 -35 80 -176l344 185l50 -76l-359 -194q74 -194 227 -583q36 -99 123 -291q81 -151 191 -152z" />
    <glyph glyph-name="mcapturn" unicode="&#x19c;" horiz-adv-x="2038" 
d="M1924 140q-24 -23 -143 -82q-133 -67 -162 -87l-43 40v270q-336 -279 -466 -279q-83 0 -152 101q-53 78 -77 178q-336 -279 -466 -279q-134 0 -208 163q-57 128 -57 281v777q0 126 -181 123l-7 73h359v-949q0 -116 42 -211q55 -122 157 -122q146 0 345 186v900
q0 126 -187 123l-7 73h359v-949q0 -118 36 -209q50 -124 149 -124q148 0 361 202v854q0 147 -176 159l-13 66l354 1v-1123q0 -130 116 -130q31 0 67 10v-36z" />
    <glyph glyph-name="Nhook" unicode="&#x19d;" horiz-adv-x="1577" 
d="M1562 1406q0 -17 -3 -37q-107 -13 -118 -17q-54 -21 -54 -98v-1254h-44l-1074 1204v-1171q0 -143 -50 -250q-66 -139 -193 -139q-59 0 -102 21q-56 27 -56 79q0 20 15 50q17 34 34 34q31 0 71.5 -49.5t86.5 -49.5q58 0 89 81q23 60 23 129v1322q0 50 -60 82
q-46 25 -105 32l6 43h318l953 -1116v952q0 61 -62 92q-51 26 -116 23v49h438z" />
    <glyph glyph-name="nleg" unicode="&#x19e;" horiz-adv-x="1110" 
d="M1097 -481h-451v45q138 0 138 135v936q0 87 -36 149q-44 74 -125 74q-129 0 -316 -135v-571q0 -98 154 -107l-6 -45h-432l-4 8l6 31q63 0 102 51q36 46 36 111v551q0 36 -63 57q-8 3 -96 22v25q45 6 143 48q92 40 123 65l37 -27v-180q295 186 407 186q109 0 169 -99
q51 -83 51 -198v-1001q0 -82 157 -82z" />
    <glyph glyph-name="Obar" unicode="&#x19f;" horiz-adv-x="1569" 
d="M1478 755q0 -329 -199 -545q-205 -222 -531 -222q-319 0 -524 179q-215 188 -215 502q0 329 197 544q204 223 530 223q319 0 525 -179q217 -188 217 -502zM1274 742q-18 255 -152 434q-153 203 -395 203q-256 0 -390 -198q-114 -171 -116 -439h1053zM1276 672h-1053
q16 -253 148 -427q150 -198 391 -198q258 0 393 190q119 167 121 435z" />
    <glyph glyph-name="Ohorn" unicode="&#x1a0;" horiz-adv-x="1643" 
d="M1700 1333q0 -109 -100 -178q-84 -58 -201 -69q79 -146 79 -331q0 -328 -199 -544q-206 -223 -531 -223q-319 0 -524 179q-215 188 -215 502q0 328 198 544q204 223 529 223q193 0 354 -71q176 -78 277 -227q54 7 102 31q64 32 64 76q0 17 -43.5 50.5t-43.5 75.5
q0 43 31.5 77t74.5 34q58 0 103 -45.5t45 -103.5zM1276 681q0 269 -137 470q-155 228 -412 228q-258 0 -392 -202q-114 -174 -114 -445q0 -268 133 -463q152 -222 408 -222q260 0 395 194q119 169 119 440z" />
    <glyph glyph-name="ohorn" unicode="&#x1a1;" horiz-adv-x="1299" 
d="M1245 822q0 -112 -103 -181q-86 -57 -206 -67q13 -57 13 -118q0 -208 -133 -338t-341 -130q-188 0 -326 133.5t-138 321.5q0 214 127 349.5t340 135.5q151 0 271 -80t171 -220q53 8 98 31q60 32 60 74q0 18 -43.5 51t-43.5 75q0 44 31.5 78t74.5 34q59 0 103.5 -45.5
t44.5 -103.5zM768 368q0 198 -62 331q-83 178 -258 178q-157 0 -217 -126q-42 -88 -42 -265q0 -163 79 -292q92 -151 244 -151q256 0 256 325z" />
    <glyph glyph-name="OI" unicode="&#x1a2;" horiz-adv-x="1924" 
d="M1924 -488l-550 3v35q186 -5 186 171v1109q0 500 -234 500q-101 0 -195 -105q160 -184 160 -470q0 -310 -162 -527q-179 -240 -479 -240q-295 0 -474 195q-174 189 -174 486q0 310 160 527q178 240 477 240q268 0 447 -165q131 172 313 172q209 0 290 -169
q55 -114 55 -332v-1224q0 -97 41 -135t139 -36v-35zM1113 681q0 255 -111 456q-135 242 -370 242q-236 0 -352 -217q-92 -172 -92 -430q0 -254 109 -449q131 -236 366 -236q237 0 355 209q95 168 95 425z" />
    <glyph glyph-name="oi" unicode="&#x1a3;" horiz-adv-x="1596" 
d="M1572 -436l-6 -45h-432l-4 8l6 31q63 0 101 45q35 43 35 106v885q0 101 -65 180q-70 84 -168 84q-99 0 -199 -91q109 -129 109 -311q0 -208 -132.5 -338t-341.5 -130q-188 0 -326 133.5t-138 321.5q0 215 125 348q129 137 342 137q185 0 315 -113q167 120 312 120
q136 0 227 -103q86 -99 86 -238v-934q0 -88 154 -96zM768 368q0 198 -62 331q-83 178 -258 178q-157 0 -217 -126q-42 -88 -42 -265q0 -162 79 -292q92 -151 244 -151q256 0 256 325z" />
    <glyph glyph-name="Phook" unicode="&#x1a4;" horiz-adv-x="1187" 
d="M1119 1038q0 -193 -171 -324q-158 -122 -356 -122q-70 0 -182 30l-1 -415q0 -91 71 -137q63 -42 156 -37l7 -28l-1 -10h-608l6 44h11q102 -1 142.5 39.5t40.5 142.5v1029q0 66 -53 101q-45 30 -114 30q-58 0 -109 -23q-66 -28 -66 -79l32 -26t32 -62q0 -25 -21 -45
t-47 -20q-58 0 -58 117q0 200 436 200q40 0 101.5 -1.5t79.5 -1.5q299 0 444 -59q228 -91 228 -343zM909 1038q0 144 -88 246q-93 106 -235 106q-34 0 -88 -7q-71 -10 -88 -12v-695q69 -19 201 -19q157 0 234 117q64 98 64 264z" />
    <glyph glyph-name="phook" unicode="&#x1a5;" horiz-adv-x="1088" 
d="M1257 1052q0 -35 -30.5 -69.5t-66.5 -34.5q-57 0 -71 64t-37 64q-63 0 -93 -128q-21 -86 -20 -187q65 -114 65 -241q0 -199 -146 -363q-152 -169 -348 -169q-104 0 -203 57v-325q0 -141 214 -156l-2 -49h-519l-12 31l8 14q167 4 167 98v1010q0 82 -28 108t-112 31l-11 49
q142 25 260 126l35 -12v-192q214 156 367 156q111 0 196 -83q22 318 238 318q60 0 104.5 -32t44.5 -85zM864 461q0 143 -75 257q-85 130 -221 130q-138 0 -261 -117v-536q128 -125 284 -125q50 0 113 45q54 39 88 87q72 104 72 259z" />
    <glyph glyph-name="YR" unicode="&#x1a6;" horiz-adv-x="1346" 
d="M1459 -243h-11q-101 -3 -218 59q-120 64 -171 150l-372 634q-48 -8 -95 -8q-78 0 -181 22l-2 -407q0 -90 71 -135q62 -39 156 -34l7 -28l-1 -10h-608l6 44h11q103 -1 143 37t40 140v1205q0 104 -45 140q-39 32 -146 32v35h577v-35q-205 0 -205 -170q31 10 191 10
q246 0 364 -74q149 -94 149 -326q0 -126 -79 -232q-73 -97 -193 -155l441 -717q77 -125 165 -126zM909 1038q0 144 -88 246q-93 106 -235 106q14 0 -171 -19l-4 -703q68 -11 200 -11q157 0 234 117q64 98 64 264z" />
    <glyph glyph-name="Tonetwo" unicode="&#x1a7;" horiz-adv-x="986" 
d="M870 355l-58 -351h-32q-19 19 -44 19q-55 0 -162.5 -20t-162.5 -20q-178 0 -289 87q-121 96 -121 269q0 185 181 338q167 115 335 229q180 127 180 247q0 97 -57.5 157t-153.5 60q-172 0 -264 -104q-72 -81 -119 -266h-44l64 422h38q16 -27 47 -27q38 0 110.5 19.5
t110.5 19.5q158 0 284 -72q150 -86 150 -232q0 -176 -183 -331q-171 -118 -342 -237q-184 -132 -184 -251t76 -197t193 -78q154 0 263 90t145 242z" />
    <glyph glyph-name="tonetwo" unicode="&#x1a8;" horiz-adv-x="809" 
d="M651 254l-10 -258l-39 -8q-13 39 -51 39q-36 0 -106.5 -13.5t-107.5 -13.5q-107 0 -196 69q-95 75 -95 180q0 141 126 225q5 3 234 110q126 59 126 140q0 66 -58 110q-53 42 -121 42q-106 0 -162 -68q-22 -27 -85 -161l-23 4l13 225q85 50 249 50q109 0 199 -63
q101 -70 101 -174q0 -144 -121 -217q-113 -49 -225 -97q-121 -56 -121 -157q0 -175 194 -175q168 0 256 215z" />
    <glyph glyph-name="Esh" unicode="&#x1a9;" horiz-adv-x="1189" 
d="M1127 372l-138 -372h-973l7 57l464 647q-124 184 -248 367q-200 301 -214 347h830q43 0 74 50l35 -12l78 -391l-42 -4l-42 158q-37 110 -92 110h-608l367 -562l-452 -615h786q45 0 84 88l52 132h32z" />
    <glyph glyph-name="eshlooprev" unicode="&#x1aa;" horiz-adv-x="798" 
d="M790 -388q0 -124 -179 -124q-163 0 -276 125q-109 121 -109 285v1083q-74 -74 -180 -74q-105 0 -180 75t-75 180q0 106 75 181t180 75q136 0 232 -130q88 -119 88 -260v-1248q0 -73 47 -136q50 -69 121 -69q45 0 98.5 61.5t79.5 61.5t52 -30t26 -56zM201 1162
q0 64 -45.5 109.5t-109.5 45.5q-63 0 -108.5 -45.5t-45.5 -109.5q0 -63 45.5 -108.5t108.5 -45.5q64 0 109.5 45.5t45.5 108.5z" />
    <glyph glyph-name="tpalatalhook" unicode="&#x1ab;" horiz-adv-x="708" 
d="M597 147q0 -229 -30 -330q-55 -186 -225 -186q-204 0 -204 94q0 88 101 88q13 0 65 -44t99 -44q93 0 123 149q14 69 14 220q-84 -94 -190 -94q-93 0 -156 58q-66 59 -66 151v627h-97l-15 49q107 40 159 124q38 61 66 193h35v-287h319l-42 -79h-277v-566
q0 -53 53.5 -112.5t106.5 -59.5q34 0 86.5 55.5t53.5 55.5q21 0 21 -62z" />
    <glyph glyph-name="Thook" unicode="&#x1ac;" horiz-adv-x="1341" 
d="M1289 1087l-44 -6q-21 120 -35 161q-36 108 -97 108h-382v-1162q0 -89 66 -119q43 -18 142 -17v-52h-604v39q214 -3 214 149v1162l-223 2q-76 0 -143 -29q-86 -37 -86 -103q0 1 34.5 -34.5t34.5 -78.5q0 -30 -21.5 -56.5t-51.5 -26.5q-62 0 -62 150q0 154 147 210
q91 34 278 34h657q59 0 113 45h13z" />
    <glyph glyph-name="thook" unicode="&#x1ad;" horiz-adv-x="708" 
d="M680 1275q0 -24 -18 -57q-20 -37 -42 -37q-57 0 -90.5 85.5t-108.5 85.5q-60 0 -105 -75q-40 -65 -40 -130v-232h319l-42 -79h-277v-566q0 -53 53 -111q55 -61 107 -61q35 0 87.5 55.5l52.5 55.5q21 0 19 -33q-89 -176 -245 -176q-93 0 -156 57q-66 60 -66 152v627h-97
l-31 81h128v111q0 147 103 275q108 135 252 135q64 0 129 -49q68 -52 68 -114z" />
    <glyph glyph-name="Trthook" unicode="&#x1ae;" horiz-adv-x="1341" 
d="M1289 1087l-44 -6q-21 119 -35 160q-36 109 -97 109h-382v-1331q0 -74 36 -133q43 -68 113 -68q45 0 98.5 61.5t79.5 61.5t52 -30t26 -56q0 -123 -179 -123q-163 0 -285.5 123.5t-122.5 286.5v1208h-377q-98 0 -131 -276h-32l32 389h18q39 -45 97 -45h957q59 0 113 45h13
z" />
    <glyph glyph-name="Uhorn" unicode="&#x1af;" horiz-adv-x="1681" 
d="M1744 1593q0 -123 -130 -191q-107 -56 -245 -55q-82 1 -82 -128v-791q0 -209 -184 -335q-162 -110 -381 -110q-247 0 -410 141q-173 149 -173 392v753q0 109 -163 100l13 49h489l-6 -49q-176 -14 -176 -113v-778q0 -150 169 -277q158 -118 314 -118q168 0 287 96
q127 104 127 268v734q0 193 -169 188l-13 49h458q36 0 72 26t36 60q0 18 -43.5 51.5t-43.5 74.5q0 44 31.5 78t74.5 34q59 0 103.5 -45.5t44.5 -103.5z" />
    <glyph glyph-name="uhorn" unicode="&#x1b0;" horiz-adv-x="1387" 
d="M1327 822q0 -120 -118 -190q-99 -59 -228 -59q-20 0 -69 9v-396q0 -75 84 -75q27 0 78 12l-2 -41l-303 -86v180q-187 -186 -407 -186q-218 0 -218 297v442q0 60 -44 97q-40 34 -102 34l-4 41l298 53v-651q0 -86 55 -146q56 -63 141 -63q86 0 281 142v550q0 77 -193 86v33
l336 62v-336q32 -6 61 -6q54 0 115 28q72 34 72 80q0 18 -43.5 51t-43.5 75q0 44 31.5 78t74.5 34q59 0 103.5 -45.5t44.5 -103.5z" />
    <glyph glyph-name="Upsilonlatin" unicode="&#x1b1;" horiz-adv-x="1450" 
d="M1288 755q0 -329 -175 -545q-180 -222 -465 -222q-280 0 -459 179q-189 188 -189 502q0 283 114 472v128q0 111 -143 100l11 49h429l-5 -49q-120 -11 -144 -76q-9 -25 -11 -186q-65 -159 -65 -375q0 -268 117 -464q133 -221 357 -221q228 0 347 194q104 169 104 440
q0 318 -73 458q0 108 -21 156q-33 77 -127 74l-11 49l404 -2l-1 -51l-2 -2q-139 -23 -139 -153q147 -181 147 -455z" />
    <glyph glyph-name="Vcursive" unicode="&#x1b2;" horiz-adv-x="1468" 
d="M1318 954q0 -401 -140 -650q-176 -312 -546 -312q-220 0 -359 154q-134 148 -134 370v753q0 106 -163 100l13 49h489l-6 -49q-176 -10 -176 -113v-778q0 -151 136 -265q130 -108 284 -108q238 0 366 236q104 191 104 451q0 224 -71 358q-6 12 -77 102q-50 62 -50 114
q0 82 153 82q177 0 177 -494z" />
    <glyph glyph-name="Yhook" unicode="&#x1b3;" horiz-adv-x="1295" 
d="M1343 1418l-4 -41q-86 -3 -114.5 -20.5t-71.5 -92.5l-387 -671v-386q0 -103 53 -141q45 -31 152 -30v-35h-583v35q211 0 211 171v339l-425 722q-41 70 -124 70q-117 0 -117 -102l34.5 -35.5t34.5 -77.5q0 -30 -23.5 -52t-53.5 -22q-39 0 -60 60q-15 43 -15 91
q0 116 69.5 180.5t186.5 64.5q144 0 222 -126q129 -222 388 -664l367 656q-2 55 -173 64l-28 43h461z" />
    <glyph glyph-name="yhook" unicode="&#x1b4;" horiz-adv-x="1084" 
d="M1393 1025q0 -27 -24 -59q-25 -35 -51 -35q-61 0 -76 37q-10 34 -21 69q-21 37 -96 37q-102 0 -186 -212l-487 -1223q-61 -152 -160 -152q-125 0 -125 65q0 88 138 129q90 27 149 130q20 36 79 189l-342 733q-33 70 -64 99q-37 33 -107 49l-5 36h449l-5 -40
q-122 1 -122 -70q0 -19 274 -612q7 16 234 600q71 184 120 248q90 117 237 117q72 0 126 -31q65 -37 65 -104z" />
    <glyph glyph-name="Zbar" unicode="&#x1b5;" horiz-adv-x="1193" 
d="M1162 372l-138 -372h-1005l-3 57l421 654h-236v93h296l338 525h-608q-55 0 -92 -110l-42 -158l-43 4l79 391l35 12q31 -50 74 -50h830q-4 -14 -16 -40l-378 -574h259v-93h-320l-407 -617h745q45 0 106 117q37 81 74 161h31z" />
    <glyph glyph-name="zbar" unicode="&#x1b6;" horiz-adv-x="973" 
d="M837 266l-102 -266h-716l-3 57l266 354h-134v95h205l242 321h-381q-55 0 -91 -86q-21 -68 -41 -135l-43 4l78 344l35 13q31 -50 74 -50h603q-7 -19 -16 -40l-287 -371h186v-95h-260l-246 -317h456q46 0 88 66q28 53 55 106h32z" />
    <glyph glyph-name="Yogh" unicode="&#x1b7;" horiz-adv-x="1017" 
d="M882 491q0 -221 -153 -364q-149 -139 -371 -139q-62 0 -151 39q-103 45 -103 98q0 95 89 95q55 0 72 -43.5t33 -85.5q33 -46 126 -46q151 0 226 134q61 107 61 270q0 144 -59 259q-71 140 -201 155q-42 5 -97 5q-112 0 -160 -28l-35 15l449 474h-382q-54 0 -91 -87
q-4 -11 -41 -134l-43 4l78 344l35 12q30 -50 74 -50h603l-3 -54l-419 -403q253 0 360 -113q103 -108 103 -357z" />
    <glyph glyph-name="Yoghrev" unicode="&#x1b8;" horiz-adv-x="909" 
d="M857 1112l-43 -4q-36 124 -41 134q-36 87 -91 87h-381l449 -474l-36 -15q-48 28 -160 28q-54 0 -97 -5q-129 -15 -201 -155q-59 -115 -59 -259q0 -163 61 -270q75 -134 226 -134q93 0 126 46q16 42 33 85.5t72 43.5q90 0 90 -95q0 -53 -104 -98q-88 -39 -151 -39
q-222 0 -371 139q-152 143 -152 364q0 249 102 357q107 113 361 113l-420 403l-3 54h603q44 0 74 50l35 -12z" />
    <glyph glyph-name="yoghrev" unicode="&#x1b9;" horiz-adv-x="975" 
d="M847 610l-42 -4l-41 134q-37 87 -92 87h-381l454 -601l-35 -15q-115 70 -225 70q-117 0 -217.5 -102.5t-100.5 -220.5q0 -161 72 -277q84 -137 235 -137q94 0 127 45q16 42 32.5 86t72.5 44q89 0 89 -95q0 -53 -103 -99q-89 -39 -151 -39q-222 0 -373 141.5t-151 361.5
q0 174 117 291.5t291 117.5q-112 131 -364 465l-4 54h604q43 0 73 50l36 -13z" />
    <glyph glyph-name="yoghtail" unicode="&#x1ba;" horiz-adv-x="994" 
d="M844 -281q-123 -218 -389 -218q-165 0 -238 40q-100 55 -100 206q0 168 143 240q133 42 266 83q143 46 143 149q0 133 -203 133q-127 0 -228 -40l-33 25l450 490h-441q-55 0 -86 -64q-9 -19 -34 -111l-43 4l66 298l35 13q29 -50 74 -50h603l-3 -54q-125 -164 -411 -438
q47 6 96 6q308 0 308 -191q0 -159 -147 -210q-137 -30 -274 -61q-147 -47 -147 -195q0 -187 256 -187q197 0 296 141q28 2 41 -9z" />
    <glyph glyph-name="twobar" unicode="&#x1bb;" horiz-adv-x="1105" 
d="M1007 285q-4 -45 -37 -142q-26 -71 -51 -143h-837l-19 59q396 320 560 614h-235v96h283q60 141 60 270q0 258 -234 258q-261 0 -396 -245l-44 19q54 149 184 252q136 107 290 107q141 0 237 -86q100 -90 100 -229q0 -169 -82 -346h208v-96h-258q-146 -250 -471 -539h547
q65 0 133 139l5 10q10 21 13 21q-1 0 44 -19z" />
    <glyph glyph-name="Tonefive" unicode="&#x1bc;" horiz-adv-x="964" 
d="M897 1178l-38 -12l-10 58q-8 41 -22 54h-557v-262q307 0 445 -103q167 -123 167 -436q0 -216 -161 -366q-157 -146 -375 -146q-100 0 -183 35q-109 45 -109 130q0 35 23.5 59t58.5 24q16 0 56 -44q52 -59 85 -83q60 -45 126 -45q123 0 229 160q96 145 96 275
q0 254 -167 350q-121 68 -380 68v384h-64v140h780v-240z" />
    <glyph glyph-name="tonefive" unicode="&#x1bd;" horiz-adv-x="723" 
d="M673 752l-28 -8q-6 48 -25 73h-417v-157q458 0 458 -350q0 -149 -129 -245q-118 -88 -272 -88q-73 0 -134 21q-86 29 -86 87q0 24 27 47.5t52 23.5q6 0 62.5 -64.5t121.5 -64.5q88 0 167 98q76 94 76 184q0 154 -140 208q-86 33 -270 33v267h-48v100h585v-165z" />
    <glyph glyph-name="glottalstopbarinv" unicode="&#x1be;" horiz-adv-x="784" 
d="M681 293q0 -134 -89 -216.5t-224 -82.5q-110 0 -212 65q-115 74 -115 178q0 76 60 76q44 0 63 -25q8 -11 26 -64q21 -61 61 -106q49 -54 105 -54q87 0 138 67q46 60 46 150q0 91 -18 134q-21 50 -90 108q-137 115 -146 125q-64 73 -64 179h-192v90h192v312h102v-312h241
v-90h-241q0 -85 92 -164l172 -144q93 -97 93 -226z" />
    <glyph glyph-name="wynn" unicode="&#x1bf;" horiz-adv-x="1088" 
d="M1004 711q0 -170 -123 -341q-94 -131 -278 -282q-148 -116 -296 -231v-137q0 -142 214 -156l-2 -49h-519l-12 31l8 14q167 3 167 98v1010q0 81 -28.5 108t-111.5 31l-11 49q142 26 260 126l35 -12v-192q213 156 367 156t225 -34q105 -50 105 -189zM864 651q0 129 -91 171
q-58 26 -205 26q-138 0 -261 -117v-810q211 137 362 312q195 225 195 418z" />
    <glyph glyph-name="pipe" unicode="&#x1c0;" horiz-adv-x="419" 
d="M242 0h-79v1418h79v-1418z" />
    <glyph glyph-name="pipedbl" unicode="&#x1c1;" horiz-adv-x="724" 
d="M242 0h-79v1418h79v-1418zM517 0h-79v1418h79v-1418z" />
    <glyph glyph-name="pipedblbar" unicode="&#x1c2;" horiz-adv-x="716" 
d="M609 540h-265v-540h-79v540h-265v83h265v173h-265v82h265v540h79v-540h265v-82h-265v-173h265v-83z" />
    <glyph glyph-name="exclamlatin" unicode="&#x1c3;" horiz-adv-x="463" 
d="M325 99q0 -49 -36 -85t-85 -36q-50 0 -86 36t-36 85q0 50 36 85.5t86 35.5q49 0 85 -35.5t36 -85.5zM318 1464q0 -197 -42 -520q-51 -391 -59 -518h-26q-9 127 -60 518q-42 323 -42 520q0 22 47 49q43 25 68 25q24 0 67 -25q47 -27 47 -49z" />
    <glyph glyph-name="DZhacek" unicode="&#x1c4;" horiz-adv-x="2753" 
d="M1419 754q0 -328 -210 -541t-538 -213h-652v42q102 -1 144 31q49 37 49 135v1056q0 114 -132 114q-23 0 -52 -3v39q160 19 435 19q409 0 648 -132q308 -171 308 -547zM1199 716q0 671 -700 671q-49 0 -111 -4v-1196q0 -148 80 -148h203q269 0 408 213q120 181 120 464z
M2640 372l-138 -372h-1005l-3 57l819 1272h-608q-55 0 -92 -110l-42 -158l-43 4l79 391l35 12q31 -50 74 -50h830q-4 -14 -16 -40l-846 -1284h745q45 0 106 117q37 81 74 161h31zM2375 1809l-242 -319l-71 -12l-236 337l42 17l206 -206l254 195z" />
    <glyph glyph-name="Dzhacek" unicode="&#x1c5;" horiz-adv-x="2427" 
d="M1419 754q0 -328 -210 -541t-538 -213h-652v42q102 -1 144 31q49 37 49 135v1056q0 114 -132 114q-23 0 -52 -3v39q160 19 435 19q409 0 648 -132q308 -171 308 -547zM1199 716q0 671 -700 671q-49 0 -111 -4v-1196q0 -148 80 -148h203q269 0 408 213q120 181 120 464z
M2336 266l-102 -266h-716l-3 57l579 770h-381q-55 0 -91 -85q-21 -68 -41 -136l-43 4l78 344l35 13q31 -50 74 -50h603q-7 -19 -16 -40l-607 -783h456q46 0 90 68q27 52 53 104h32zM2225 1401l-242 -319l-71 -12l-236 337l42 17l206 -206l254 195z" />
    <glyph glyph-name="dzhacek" unicode="&#x1c6;" horiz-adv-x="2090" 
d="M1047 98q-70 -24 -141 -49q-81 -31 -134 -63q-9 -6 -19 -6q-18 0 -23 38q-4 27 -2 75q4 66 4 54q-84 -52 -168 -105q-92 -52 -194 -52q-159 0 -263 150q-93 134 -93 299q0 215 126 346q148 153 339 153q158 0 253 -54v397q0 76 -111 76q-1 0 -65 -3v35q155 20 312 103
v-1299q0 -25 20 -46.5t44 -21.5q20 0 58 4t57 4v-35zM732 186v515q-69 98 -128 133q-66 38 -180 38q-143 0 -209 -153q-47 -110 -47 -273q0 -128 79 -239q87 -121 210 -121q85 0 275 100zM1973 266l-102 -266h-716l-3 57l579 770h-381q-55 0 -91 -85q-21 -68 -41 -136l-43 4
l78 344l35 13q31 -50 74 -50h603q-7 -19 -16 -40l-607 -783h456q46 0 90 68q27 52 53 104h32zM1862 1401l-242 -319l-71 -12l-236 337l42 17l206 -206l254 195z" />
    <glyph glyph-name="LJ" unicode="&#x1c7;" horiz-adv-x="1726" 
d="M1198 347l-79 -347h-1126v37q239 3 239 136v1076q0 91 -66 119q-38 15 -149 15v35h635v-32l-15 1q-77 1 -142 -30q-82 -39 -82 -109v-1057q0 -111 85 -111h423q98 0 163 90q53 72 73 181zM1669 1385q-96 0 -134 -37.5t-38 -133.5v-978q0 -271 -85 -471
q-114 -270 -350 -270q-210 0 -210 113q0 36 22.5 62.5t58.5 26.5q76 0 109.5 -51.5t123.5 -51.5q93 0 136 136q28 91 28 208v1276q0 103 -53 141q-43 30 -152 30v35h544v-35z" />
    <glyph glyph-name="Lj" unicode="&#x1c8;" horiz-adv-x="1962" 
d="M1198 347l-79 -347h-1126v37q239 3 239 136v1076q0 91 -66 119q-38 15 -149 15v35h635v-32l-15 1q-77 1 -142 -30q-82 -39 -82 -109v-1057q0 -111 85 -111h423q98 0 163 90q53 72 73 181zM1721 -102q0 -158 -131 -299q-103 -111 -260 -111q-81 0 -145 25q-88 33 -89 99
q-1 24 25.5 55t52.5 31q23 0 106 -61.5t127 -61.5q74 0 115 59q37 53 37 129v989q0 73 -72 73q-27 0 -63 -9l-25 40q189 53 285 113l37 -27v-1044zM1734 1280q0 -43 -30 -73.5t-73 -30.5t-73 30.5t-30 73.5t30 73t73 30t73 -30t30 -73z" />
    <glyph glyph-name="lj" unicode="&#x1c9;" horiz-adv-x="1217" 
d="M492 45l-6 -45h-432l-4 8l6 31q63 0 101 51q35 46 35 111v1067q0 36 -38 60q-32 20 -71 20l-50 -10q0 5 1 15t1 16q0 14 29 24q78 24 230 90h44v-1331q0 -98 154 -107zM942 -102q0 -158 -131 -299q-103 -111 -260 -111q-81 0 -145 25q-88 33 -89 99q-1 24 25.5 55
t52.5 31q23 0 106 -61.5t127 -61.5q74 0 115 59q37 53 37 129v989q0 73 -72 73q-27 0 -63 -9l-25 40q189 53 285 113l37 -27v-1044zM955 1280q0 -43 -30 -73.5t-73 -30.5t-73 30.5t-30 73.5t30 73t73 30t73 -30t30 -73z" />
    <glyph glyph-name="NJ" unicode="&#x1ca;" horiz-adv-x="2184" 
d="M1562 1406q0 -17 -3 -37q-109 -13 -119 -17q-53 -21 -53 -98v-1254h-44l-1074 1204v-1036q0 -130 171 -130q23 0 45 3v-41h-451l-12 41q165 0 165 83v1137q0 50 -60 82q-46 25 -105 32l6 43h318l953 -1116v952q0 61 -62 92q-50 25 -116 23v49h438zM2114 1385
q-96 0 -134 -37.5t-38 -133.5v-978q0 -271 -85 -471q-114 -270 -350 -270q-210 0 -210 113q0 36 22.5 62.5t58.5 26.5q76 0 109.5 -51.5t123.5 -51.5q93 0 136 136q28 91 28 208v1276q0 103 -53 141q-43 30 -152 30v35h544v-35z" />
    <glyph glyph-name="Nj" unicode="&#x1cb;" horiz-adv-x="2297" 
d="M1562 1406q0 -17 -3 -37q-109 -13 -119 -17q-53 -21 -53 -98v-1254h-44l-1074 1204v-1036q0 -130 171 -130q23 0 45 3v-41h-451l-12 41q165 0 165 83v1137q0 50 -60 82q-46 25 -105 32l6 43h318l953 -1116v952q0 61 -62 92q-50 25 -116 23v49h438zM2023 -102
q0 -158 -131 -299q-103 -111 -260 -111q-81 0 -145 25q-88 33 -89 99q-1 24 25.5 55t52.5 31q23 0 106 -61.5t127 -61.5q74 0 115 59q37 53 37 129v989q0 73 -72 73q-27 0 -63 -9l-25 40q189 53 285 113l37 -27v-1044zM2036 1280q0 -43 -30 -73.5t-73 -30.5t-73 30.5
t-30 73.5t30 73t73 30t73 -30t30 -73z" />
    <glyph glyph-name="nj" unicode="&#x1cc;" horiz-adv-x="1744" 
d="M1097 0h-451v45q138 0 138 135v455q0 87 -36 149q-44 74 -125 74q-129 0 -316 -135v-571q0 -98 154 -107l-6 -45h-432l-4 8l6 31q63 0 102 51q36 46 36 111v551q0 36 -63 57q-8 3 -96 22v25q45 6 143 48q92 40 123 65l37 -27v-180q295 186 407 186q109 0 169 -99
q51 -83 51 -198v-520q0 -82 157 -82zM1531 -102q0 -158 -131 -299q-103 -111 -260 -111q-81 0 -145 25q-88 33 -89 99q-1 24 25.5 55t52.5 31q23 0 106 -61.5t127 -61.5q74 0 115 59q37 53 37 129v989q0 73 -72 73q-27 0 -63 -9l-25 40q189 53 285 113l37 -27v-1044z
M1544 1280q0 -43 -30 -73.5t-73 -30.5t-73 30.5t-30 73.5t30 73t73 30t73 -30t30 -73z" />
    <glyph glyph-name="Ahacek" unicode="&#x1cd;" horiz-adv-x="1559" 
d="M1455 0h-586v45h144q65 0 65 70q0 47 -35 140l-105 279q-15 41 -43 41h-394q-31 0 -45 -37q-44 -108 -88 -217q-69 -176 -69 -206q0 -72 80 -72l2 2h131v-45h-494v45h69q85 0 142 150l443 1167q4 9 4 19q0 18 -11 27l6 10h121l476 -1258q29 -77 69 -98q32 -17 118 -17
v-45zM872 686q0 21 -1 26l-159 420q-4 11 -15 18q-10 0 -16 -18q-171 -450 -171 -454q0 -13 11 -13h331q20 0 20 21zM1010 1809l-242 -319l-71 -12l-236 337l42 17l206 -206l254 195z" />
    <glyph glyph-name="ahacek" unicode="&#x1ce;" horiz-adv-x="963" 
d="M912 100q-100 -73 -102 -75q-65 -40 -120 -40q-86 0 -118 131q-121 -88 -134 -95q-66 -37 -152 -37q-85 0 -143.5 58.5t-58.5 142.5q0 105 83 172q49 39 175 91l226 93v149q0 79 -56.5 133t-136.5 54q-127 0 -127 -135q0 -9 4 -24t4 -23q0 -37 -56 -66q-49 -26 -90 -26
q-17 0 -17 28q0 133 112 218q102 78 240 78t202 -51q71 -56 71 -190v-515q0 -86 59 -86q37 0 133 56zM569 183l-1 300l-203 -89q-137 -60 -137 -193q0 -57 37 -91t94 -34q59 0 114 33q24 15 96 74zM685 1401l-242 -319l-71 -12l-236 337l42 17l206 -206l254 195z" />
    <glyph glyph-name="Ihacek" unicode="&#x1cf;" horiz-adv-x="758" 
d="M623 1385q-206 0 -206 -171v-1007q0 -103 54 -141q44 -31 151 -30v-35h-583v35q212 0 212 171v1007q0 103 -53 141q-44 31 -152 30v35h577v-35zM620 1809l-242 -319l-71 -12l-236 337l42 17l206 -206l254 195z" />
    <glyph glyph-name="ihacek" unicode="&#x1d0;" horiz-adv-x="670" 
d="M502 0h-459l-4 8l6 31q71 0 101 20q37 25 37 96v597q0 73 -72 73q-27 0 -63 -9l-25 40q190 53 285 113l37 -27v-790q0 -98 153 -107zM553 1401l-242 -319l-71 -12l-236 337l42 17l206 -206l254 195z" />
    <glyph glyph-name="Ohacek" unicode="&#x1d1;" horiz-adv-x="1569" 
d="M1478 755q0 -329 -199 -545q-205 -222 -531 -222q-320 0 -524 179q-215 188 -215 502q0 329 197 545q204 222 530 222q320 0 526 -179q216 -188 216 -502zM1276 681q0 270 -136 470q-155 228 -413 228t-392 -202q-114 -173 -114 -445q0 -268 133 -463q152 -222 408 -222
q260 0 396 193q118 169 118 441zM1010 1809l-242 -319l-71 -12l-236 337l42 17l206 -206l254 195z" />
    <glyph glyph-name="ohacek" unicode="&#x1d2;" horiz-adv-x="963" 
d="M949 456q0 -208 -132.5 -338t-341.5 -130q-189 0 -326.5 133.5t-137.5 321.5q0 215 126.5 350t340.5 135q204 0 337.5 -134t133.5 -338zM768 368q0 198 -62 331q-83 178 -258 178q-157 0 -217 -126q-42 -88 -42 -265q0 -162 79 -292q92 -151 244 -151q256 0 256 325z
M764 1401l-242 -319l-71 -12l-236 337l42 17l206 -206l254 195z" />
    <glyph glyph-name="Uhacek" unicode="&#x1d3;" horiz-adv-x="1468" 
d="M1472 1416l-1 -51l-2 -2q-110 -17 -131 -28q-51 -27 -51 -116v-791q0 -210 -183 -335q-162 -110 -382 -110q-248 0 -411 141q-172 148 -172 392v753q0 104 -163 100l13 49h489l-6 -49q-176 -16 -176 -113v-778q0 -150 170 -277q158 -118 313 -118q170 0 288 96
q126 103 126 268v734q0 191 -169 188l-13 49zM1042 1809l-242 -319l-71 -12l-236 337l42 17l206 -206l254 195z" />
    <glyph glyph-name="uhacek" unicode="&#x1d4;" horiz-adv-x="1135" 
d="M1074 123l-2 -41l-303 -86v180q-187 -186 -407 -186q-218 0 -218 297v442q0 61 -42 96t-104 35l-4 41l298 53v-651q0 -86 55 -146q56 -63 141 -63t281 142v550q0 75 -193 86v33l336 62v-781q0 -75 84 -75q22 0 78 12zM781 1401l-242 -319l-71 -12l-236 337l42 17
l206 -206l254 195z" />
    <glyph glyph-name="Udieresismacron" unicode="&#x1d5;" horiz-adv-x="1469" 
d="M1473 1416l-1 -51l-2 -2q-110 -17 -131 -28q-51 -27 -51 -116v-791q0 -210 -183 -335q-162 -110 -382 -110q-248 0 -411 141q-172 148 -172 392v753q0 104 -163 100l13 49h489l-6 -49q-176 -16 -176 -113v-778q0 -150 170 -277q158 -118 313 -118q170 0 288 96
q126 103 126 268v734q0 191 -169 188l-13 49zM1036 1571q0 -43 -30 -73.5t-73 -30.5t-73 30.5t-30 73.5t30 73t73 30t73 -30t30 -73zM688 1571q0 -43 -30.5 -73.5t-72.5 -30.5q-43 0 -73.5 30.5t-30.5 73.5t30.5 73t73.5 30q42 0 72.5 -30t30.5 -73zM994 1746h-467v94h467
v-94z" />
    <glyph glyph-name="udieresismacron" unicode="&#x1d6;" horiz-adv-x="1131" 
d="M1074 123l-2 -41l-303 -86v180q-187 -186 -407 -186q-218 0 -218 297v442q0 61 -42 96t-104 35l-4 41l298 53v-651q0 -86 55 -146q56 -63 141 -63t281 142v550q0 75 -193 86v33l336 62v-781q0 -75 84 -75q22 0 78 12zM763 1197q0 -43 -30 -73.5t-73 -30.5t-73 30.5
t-30 73.5t30 73t73 30t73 -30t30 -73zM415 1197q0 -43 -30.5 -73.5t-72.5 -30.5q-43 0 -73.5 30.5t-30.5 73.5t30.5 73t73.5 30q42 0 72.5 -30t30.5 -73zM722 1435h-467v94h467v-94z" />
    <glyph glyph-name="Udieresisacute" unicode="&#x1d7;" horiz-adv-x="1469" 
d="M1473 1416l-1 -51l-2 -2q-110 -17 -131 -28q-51 -27 -51 -116v-791q0 -210 -183 -335q-162 -110 -382 -110q-248 0 -411 141q-172 148 -172 392v753q0 104 -163 100l13 49h489l-6 -49q-176 -16 -176 -113v-778q0 -150 170 -277q158 -118 313 -118q170 0 288 96
q126 103 126 268v734q0 191 -169 188l-13 49zM1063 1948l-298 -304l-23 24l151 329zM1036 1570q0 -42 -30 -72.5t-73 -30.5t-73.5 30.5t-30.5 72.5q0 43 30.5 73.5t73.5 30.5t73 -30.5t30 -73.5zM688 1570q0 -42 -30.5 -72.5t-73.5 -30.5q-42 0 -72.5 30.5t-30.5 72.5
q0 43 30.5 73.5t72.5 30.5q43 0 73.5 -30.5t30.5 -73.5z" />
    <glyph glyph-name="udieresisacute" unicode="&#x1d8;" horiz-adv-x="1132" 
d="M1074 123l-2 -41l-303 -86v180q-187 -186 -407 -186q-218 0 -218 297v442q0 61 -42 96t-104 35l-4 41l298 53v-651q0 -86 55 -146q56 -63 141 -63t281 142v550q0 75 -193 86v33l336 62v-781q0 -75 84 -75q22 0 78 12zM769 1202q0 -43 -30 -73.5t-73 -30.5t-73 30.5
t-30 73.5t30 73t73 30t73 -30t30 -73zM421 1202q0 -43 -30.5 -73.5t-72.5 -30.5q-43 0 -73.5 30.5t-30.5 73.5t30.5 73t73.5 30q42 0 72.5 -30t30.5 -73zM817 1687l-304 -372l-24 30l154 401z" />
    <glyph glyph-name="Udieresishacek" unicode="&#x1d9;" horiz-adv-x="1469" 
d="M1473 1416l-1 -51l-2 -2q-110 -17 -131 -28q-51 -27 -51 -116v-791q0 -210 -183 -335q-162 -110 -382 -110q-248 0 -411 141q-172 148 -172 392v753q0 104 -163 100l13 49h489l-6 -49q-176 -16 -176 -113v-778q0 -150 170 -277q158 -118 313 -118q170 0 288 96
q126 103 126 268v734q0 191 -169 188l-13 49zM1038 1909l-235 -249l-69 -9l-230 262l40 14l201 -161l247 152zM1036 1570q0 -42 -30 -72.5t-73 -30.5t-73.5 30.5t-30.5 72.5q0 43 30.5 73.5t73.5 30.5t73 -30.5t30 -73.5zM688 1570q0 -42 -30.5 -72.5t-73.5 -30.5
q-42 0 -72.5 30.5t-30.5 72.5q0 43 30.5 73.5t72.5 30.5q43 0 73.5 -30.5t30.5 -73.5z" />
    <glyph glyph-name="udieresishacek" unicode="&#x1da;" horiz-adv-x="1132" 
d="M1074 123l-2 -41l-303 -86v180q-187 -186 -407 -186q-218 0 -218 297v442q0 61 -42 96t-104 35l-4 41l298 53v-651q0 -86 55 -146q56 -63 141 -63t281 142v550q0 75 -193 86v33l336 62v-781q0 -75 84 -75q22 0 78 12zM781 1191q0 -43 -30 -73.5t-73 -30.5t-73 30.5
t-30 73.5t30 73t73 30t73 -30t30 -73zM433 1191q0 -43 -30.5 -73.5t-72.5 -30.5q-43 0 -73.5 30.5t-30.5 73.5t30.5 73t73.5 30q42 0 72.5 -30t30.5 -73zM793 1672l-242 -319l-71 -12l-236 337l42 17l206 -206l254 195z" />
    <glyph glyph-name="Udieresisgrave" unicode="&#x1db;" horiz-adv-x="1469" 
d="M1473 1416l-1 -51l-2 -2q-110 -17 -131 -28q-51 -27 -51 -116v-791q0 -210 -183 -335q-162 -110 -382 -110q-248 0 -411 141q-172 148 -172 392v753q0 104 -163 100l13 49h489l-6 -49q-176 -16 -176 -113v-778q0 -150 170 -277q158 -118 313 -118q170 0 288 96
q126 103 126 268v734q0 191 -169 188l-13 49zM811 1632l-24 -25l-306 320l175 51zM1036 1570q0 -42 -30 -72.5t-73 -30.5t-73.5 30.5t-30.5 72.5q0 43 30.5 73.5t73.5 30.5t73 -30.5t30 -73.5zM688 1570q0 -42 -30.5 -72.5t-73.5 -30.5q-42 0 -72.5 30.5t-30.5 72.5
q0 43 30.5 73.5t72.5 30.5q43 0 73.5 -30.5t30.5 -73.5z" />
    <glyph glyph-name="udieresisgrave" unicode="&#x1dc;" horiz-adv-x="1132" 
d="M1074 123l-2 -41l-303 -86v180q-187 -186 -407 -186q-218 0 -218 297v442q0 61 -42 96t-104 35l-4 41l298 53v-651q0 -86 55 -146q56 -63 141 -63t281 142v550q0 75 -193 86v33l336 62v-781q0 -75 84 -75q22 0 78 12zM817 1215q0 -43 -30 -73.5t-73 -30.5t-73 30.5
t-30 73.5t30 73t73 30t73 -30t30 -73zM469 1215q0 -43 -30.5 -73.5t-72.5 -30.5q-43 0 -73.5 30.5t-30.5 73.5t30.5 73t73.5 30q42 0 72.5 -30t30.5 -73zM596 1339l-24 -30l-303 372l174 59z" />
    <glyph glyph-name="eturn" unicode="&#x1dd;" horiz-adv-x="882" 
d="M29 677q124 264 394 264q172 0 291 -152q111 -140 111 -318q0 -201 -114 -337q-121 -146 -318 -146q-158 0 -255 95t-97 252h646q4 42 4 86q0 149 -91 275q-100 138 -243 138q-189 0 -286 -168l-9 -1q-21 0 -33 12zM193 279q4 -103 71.5 -167.5t170.5 -64.5q85 0 151 76
q58 65 78 156h-471z" />
    <glyph glyph-name="Adieresismacron" unicode="&#x1de;" horiz-adv-x="1559" 
d="M1011 1583q0 -43 -30 -73.5t-73 -30.5t-73 30.5t-30 73.5t30 73t73 30t73 -30t30 -73zM663 1583q0 -43 -30.5 -73.5t-72.5 -30.5q-43 0 -73.5 30.5t-30.5 73.5t30.5 73t73.5 30q42 0 72.5 -30t30.5 -73zM969 1746h-467v94h467v-94zM1455 0h-586v45h144q65 0 65 70
q0 47 -35 140l-105 279q-15 41 -43 41h-394q-31 0 -45 -37q-44 -108 -88 -217q-69 -176 -69 -206q0 -72 80 -72l2 2h131v-45h-494v45h69q85 0 142 150l443 1167q4 9 4 19q0 18 -11 27l6 10h121l476 -1258q29 -77 69 -98q32 -17 118 -17v-45zM872 686q0 21 -1 26l-159 420
q-4 11 -15 18q-10 0 -16 -18q-171 -450 -171 -454q0 -13 11 -13h331q20 0 20 21z" />
    <glyph glyph-name="adieresismacron" unicode="&#x1df;" horiz-adv-x="966" 
d="M912 100q-100 -73 -102 -75q-65 -40 -120 -40q-86 0 -118 131q-121 -88 -134 -95q-66 -37 -152 -37q-85 0 -143.5 58.5t-58.5 142.5q0 105 83 172q49 39 175 91l226 93v149q0 79 -56.5 133t-136.5 54q-127 0 -127 -135q0 -9 4 -24t4 -23q0 -37 -56 -66q-49 -26 -90 -26
q-17 0 -17 28q0 133 112 218q102 78 240 78t202 -51q71 -56 71 -190v-515q0 -86 59 -86q37 0 133 56zM569 183l-1 300l-203 -89q-137 -60 -137 -193q0 -57 37 -91t94 -34q59 0 114 33q24 15 96 74zM674 1214q0 -43 -30 -73.5t-73 -30.5t-73 30.5t-30 73.5t30 73t73 30
t73 -30t30 -73zM326 1214q0 -43 -30.5 -73.5t-72.5 -30.5q-43 0 -73.5 30.5t-30.5 73.5t30.5 73t73.5 30q42 0 72.5 -30t30.5 -73zM632 1469h-467v94h467v-94z" />
    <glyph glyph-name="Adotmacron" unicode="&#x1e0;" horiz-adv-x="1559" 
d="M969 1746h-467v94h467v-94zM1455 0h-586v45h144q65 0 65 70q0 47 -35 140l-105 279q-15 41 -43 41h-394q-31 0 -45 -37q-44 -108 -88 -217q-69 -176 -69 -206q0 -72 80 -72l2 2h131v-45h-494v45h69q85 0 142 150l443 1167q4 9 4 19q0 18 -11 27l6 10h121l476 -1258
q29 -77 69 -98q32 -17 118 -17v-45zM872 686q0 21 -1 26l-159 420q-4 11 -15 18q-10 0 -16 -18q-171 -450 -171 -454q0 -13 11 -13h331q20 0 20 21zM835 1579q0 -43 -30.5 -73.5t-73.5 -30.5q-42 0 -72.5 30.5t-30.5 73.5q0 42 30.5 72.5t72.5 30.5q43 0 73.5 -30.5
t30.5 -72.5z" />
    <glyph glyph-name="adotmacron" unicode="&#x1e1;" horiz-adv-x="962" 
d="M912 100q-100 -73 -102 -75q-65 -40 -120 -40q-86 0 -118 131q-121 -88 -134 -95q-66 -37 -152 -37q-85 0 -143.5 58.5t-58.5 142.5q0 105 83 172q49 39 175 91l226 93v149q0 79 -56.5 133t-136.5 54q-127 0 -127 -135q0 -9 4 -24t4 -23q0 -37 -56 -66q-49 -26 -90 -26
q-17 0 -17 28q0 133 112 218q102 78 240 78t202 -51q71 -56 71 -190v-515q0 -86 59 -86q37 0 133 56zM569 183l-1 300l-203 -89q-137 -60 -137 -193q0 -57 37 -91t94 -34q59 0 114 33q24 15 96 74zM523 1186q0 -43 -30.5 -73.5t-73.5 -30.5q-42 0 -72.5 30.5t-30.5 73.5
q0 42 30.5 72.5t72.5 30.5q43 0 73.5 -30.5t30.5 -72.5zM656 1463h-467v94h467v-94z" />
    <glyph glyph-name="AEmacron" unicode="&#x1e2;" horiz-adv-x="1734" 
d="M1614 335l-38 -337h-1057v37l45 2l2 8q177 -9 177 126v394q-4 10 -16 10h-282q-20 0 -42 -37q-228 -382 -228 -449q0 -47 41 -46l2 2h93l-12 -45h-352l12 45h49q61 0 141 150l591 1097q-10 62 -77 81q-36 10 -121 10v35h992l10 -307h-34q-23 232 -141 232h-456v-565h363
q87 0 113 175h31v-431h-31q-31 186 -113 186h-363v-519q0 -111 80 -111h397q141 0 186 261zM743 697l-4 453q-8 -2 -17 -18q-62 -105 -243 -454q0 -8 4 -13h237q23 0 23 32zM1160 1607h-467v94h467v-94z" />
    <glyph glyph-name="aemacron" unicode="&#x1e3;" horiz-adv-x="1406" 
d="M1321 246q-119 -264 -378 -264q-223 0 -324 164q-222 -162 -365 -162q-85 0 -144 58.5t-59 142.5q0 104 83 172q50 39 176 91l226 93v149q0 79 -56.5 133t-136.5 54q-127 0 -127 -135q0 -8 4 -23.5t4 -23.5q0 -37 -56 -67q-49 -25 -90 -25q-18 0 -18 20q0 138 110 224
q101 80 242 80q101 0 148 -24q55 -28 101 -115q136 147 311 147q153 0 245 -96.5t92 -251.5h-620q-4 -42 -4 -86q0 -146 86 -272q95 -141 235 -141q181 0 275 169h8q20 1 32 -11zM1163 644q-3 100 -67.5 165.5t-163.5 65.5q-83 0 -147 -77q-54 -65 -74 -154h452zM589 194
q-46 118 -50.5 141.5t-2.5 147.5l-203 -89q-138 -60 -138 -193q0 -57 37 -91t94 -34q119 0 263 118zM1014 1324h-640v94h640v-94z" />
    <glyph glyph-name="Gbar" unicode="&#x1e4;" horiz-adv-x="1470" 
d="M1476 341h-224v-222q-260 -134 -550 -134q-295 0 -490 186q-199 189 -199 482q0 337 196 555q203 226 536 226q174 0 319 -54q60 -23 101 -23q33 0 53 17h18l30 -368h-38q-27 180 -153 281q-123 98 -308 98q-275 0 -429 -221q-136 -194 -136 -481q0 -258 141 -443
q155 -201 406 -201q229 0 340 93v209h-401v105h401v47q0 140 -183 140v40h488v-40q-61 1 -100 -32q-42 -35 -42 -94v-61h224v-105z" />
    <glyph glyph-name="gbar" unicode="&#x1e5;" horiz-adv-x="1052" 
d="M1079 -258h-134q-58 -111 -243 -184q-161 -65 -307 -65q-135 0 -238 35q-147 51 -147 158q0 151 218 307q-6 10 -63 25q-66 17 -97 38q-50 34 -50 94t38 92q21 18 84 42.5t90 48.5q-199 64 -199 271q0 144 110 242q106 94 252 94q174 0 274 -92l304 20q1 -40 6 -115
l-242 26q55 -83 55 -187q0 -135 -129 -216q-111 -69 -254 -69q-65 0 -135 14q-134 -71 -134 -127q0 -63 214 -78q310 -21 398 -45q215 -60 217 -233h112v-96zM640 596q0 109 -68 196q-74 94 -180 94q-108 0 -165 -98q-47 -81 -47 -197q0 -231 231 -231q229 0 229 236z
M830 -162q-16 88 -148 123q-66 17 -209 24q-66 6 -199 12q-141 -112 -141 -272q0 -149 346 -149q85 0 186 47q106 51 147 119h-366v96h384z" />
    <glyph glyph-name="Ghacek" unicode="&#x1e6;" horiz-adv-x="1364" 
d="M1394 633q-61 1 -100 -32q-42 -35 -42 -94v-388q-260 -134 -550 -134q-295 0 -490 186q-199 189 -199 482q0 337 196 555q203 226 536 226q174 0 319 -54q60 -23 101 -23q33 0 53 17h18l30 -368h-38q-27 180 -153 281q-123 98 -308 98q-275 0 -429 -221
q-136 -194 -136 -481q0 -258 141 -443q155 -201 406 -201q229 0 340 93v361q0 140 -183 140v40h488v-40zM1038 1809l-242 -319l-71 -12l-236 337l42 17l206 -206l254 195z" />
    <glyph glyph-name="ghacek" unicode="&#x1e7;" horiz-adv-x="1046" 
d="M977 753l-242 26q55 -83 55 -187q0 -135 -129 -216q-110 -69 -254 -69q-64 0 -135 14q-134 -71 -134 -127q0 -64 215 -78q310 -21 399 -46q215 -60 215 -237q0 -153 -218 -255q-180 -85 -354 -85q-135 0 -238 35q-147 51 -147 158q0 151 218 307q-4 9 -60 24
q-67 17 -98 38q-52 35 -52 95q0 61 38 93q21 18 86 42q61 23 88 48q-199 65 -199 271q0 144 110 242q106 94 252 94q174 0 274 -92l304 20q1 -34 6 -115zM640 596q0 109 -68 196q-74 94 -180 94q-108 0 -165 -98q-47 -81 -47 -197q0 -231 231 -231q229 0 229 236zM832 -188
q0 104 -137 145q-72 21 -222 28q-66 6 -199 12q-141 -112 -141 -272q0 -149 346 -149q104 0 221 66q132 75 132 170zM712 1401l-242 -319l-71 -12l-236 337l42 17l206 -206l254 195z" />
    <glyph glyph-name="Khacek" unicode="&#x1e8;" horiz-adv-x="1574" 
d="M1505 2h-646l6 37q29 -7 61 -7q29 0 59 12q38 14 38 38q0 27 -98 130q-65 64 -129 128q-194 202 -379 296v-429q0 -102 54 -140q45 -32 151 -31v-35h-583v35q212 -2 212 171v1007q0 103 -53 141q-45 31 -152 30v35h577v-35q-205 2 -205 -171l-1 -509q140 66 273 219
q80 91 161 182q116 139 116 192q0 69 -165 84l7 37h520v-50l-94 -4q-47 -6 -88 -33q-65 -44 -165 -186q-129 -183 -155 -211q-67 -68 -200 -206q143 -84 345 -313q84 -100 167 -199q133 -152 178 -165q83 -24 188 -13v-37zM1038 1809l-242 -319l-71 -12l-236 337l42 17
l206 -206l254 195z" />
    <glyph glyph-name="khacek" unicode="&#x1e9;" horiz-adv-x="1152" 
d="M1065 49l-4 -49h-475l4 49q105 17 105 45q0 24 -39 66l-370 397v-405q0 -98 154 -107l-6 -45h-432l-4 8l6 31q63 0 102 51q36 46 36 111v1067q0 38 -37 61q-31 19 -72 19l-50 -10q0 5 1 15t1 16q0 14 29 24q58 20 117 39q67 24 113 51h42v-905l215 168q78 62 78 91
q0 41 -113 41l10 39h424l2 -44q-51 0 -122 -18q-78 -20 -111 -47l-262 -214l432 -438q100 -102 226 -107zM805 1631l-242 -319l-71 -12l-236 337l42 17l206 -206l254 195z" />
    <glyph glyph-name="Oogonek" unicode="&#x1ea;" horiz-adv-x="1569" 
d="M1478 755q0 -329 -199 -545q-205 -222 -531 -222q-320 0 -524 179q-215 188 -215 502q0 329 197 545q204 222 530 222q320 0 526 -179q216 -188 216 -502zM1276 681q0 270 -136 470q-155 228 -413 228t-392 -202q-114 -173 -114 -445q0 -268 133 -463q152 -222 408 -222
q260 0 396 193q118 169 118 441zM1094 -300q-108 -73 -225 -73q-99 0 -163 47q-72 53 -72 149q0 93 74 209l54 -7q-43 -66 -43 -128q0 -85 72 -137q65 -46 153 -46q60 0 117 22z" />
    <glyph glyph-name="oogonek" unicode="&#x1eb;" horiz-adv-x="976" 
d="M949 456q0 -208 -132.5 -338t-341.5 -130q-189 0 -326.5 133.5t-137.5 321.5q0 215 126.5 350t340.5 135q204 0 337.5 -134t133.5 -338zM768 368q0 198 -62 331q-83 178 -258 178q-157 0 -217 -126q-42 -88 -42 -265q0 -162 79 -292q92 -151 244 -151q256 0 256 325z
M735 -300q-108 -73 -225 -73q-99 0 -163 47q-72 53 -72 149q0 93 74 209l54 -7q-43 -66 -43 -128q0 -85 72 -137q65 -46 153 -46q60 0 117 22z" />
    <glyph glyph-name="Oogonekmacron" unicode="&#x1ec;" horiz-adv-x="1569" 
d="M1478 755q0 -329 -199 -545q-205 -222 -531 -222q-320 0 -524 179q-215 188 -215 502q0 329 197 545q204 222 530 222q320 0 526 -179q216 -188 216 -502zM1276 681q0 270 -136 470q-155 228 -413 228t-392 -202q-114 -173 -114 -445q0 -268 133 -463q152 -222 408 -222
q260 0 396 193q118 169 118 441zM1094 -300q-108 -73 -225 -73q-99 0 -163 47q-72 53 -72 149q0 93 74 209l54 -7q-43 -66 -43 -128q0 -85 72 -137q65 -46 153 -46q60 0 117 22zM985 1607h-467v94h467v-94z" />
    <glyph glyph-name="oogonekmacron" unicode="&#x1ed;" horiz-adv-x="977" 
d="M949 456q0 -208 -132.5 -338t-341.5 -130q-189 0 -326.5 133.5t-137.5 321.5q0 215 126.5 350t340.5 135q204 0 337.5 -134t133.5 -338zM768 368q0 198 -62 331q-83 178 -258 178q-157 0 -217 -126q-42 -88 -42 -265q0 -162 79 -292q92 -151 244 -151q256 0 256 325z
M722 -300q-108 -73 -225 -73q-99 0 -163 47q-72 53 -72 149q0 93 74 209l54 -7q-43 -66 -43 -128q0 -85 72 -137q65 -46 153 -46q60 0 117 22zM700 1324h-467v94h467v-94z" />
    <glyph glyph-name="Yoghhacek" unicode="&#x1ee;" horiz-adv-x="996" 
d="M882 491q0 -221 -153 -364q-149 -139 -371 -139q-62 0 -151 39q-103 45 -103 98q0 95 89 95q55 0 72 -43.5t33 -85.5q33 -46 126 -46q151 0 226 134q61 107 61 270q0 144 -59 259q-71 140 -201 155q-42 5 -97 5q-112 0 -160 -28l-35 15l449 474h-382q-54 0 -91 -87
q-4 -11 -41 -134l-43 4l78 344l35 12q30 -50 74 -50h603l-3 -54l-419 -403q253 0 360 -113q103 -108 103 -357zM723 1749l-242 -319l-71 -12l-236 337l42 17l206 -206l254 195z" />
    <glyph glyph-name="yoghhacek" unicode="&#x1ef;" horiz-adv-x="994" 
d="M869 -11q0 -220 -150.5 -361.5t-372.5 -141.5q-63 0 -151 39q-104 46 -104 99q0 95 90 95q55 0 72 -44t32 -86q33 -45 127 -45q151 0 236 137q71 116 71 277q0 118 -100.5 220.5t-217.5 102.5q-110 0 -224 -70l-36 15l454 601h-381q-55 0 -91 -87l-41 -134l-43 4l78 344
l35 13q30 -50 74 -50h603l-3 -54q-119 -158 -365 -465q174 0 291 -117.5t117 -291.5zM743 1401l-242 -319l-71 -12l-236 337l42 17l206 -206l254 195z" />
    <glyph glyph-name="jhacek" unicode="&#x1f0;" horiz-adv-x="692" 
d="M702 1401l-242 -319l-70 -12l-237 337l42 17l206 -206l254 195zM506 -102q0 -158 -130 -299q-103 -111 -260 -111q-78 0 -142 25q-84 33 -92 99q27 86 78 86q23 0 106 -61.5t127 -61.5q73 0 115 59q37 53 37 129v989q0 73 -72 73q-28 0 -63 -9l-25 40q189 53 285 113
l36 -27v-1044z" />
    <glyph glyph-name="u01F1" unicode="&#x1f1;" horiz-adv-x="2753" 
d="M1419 754q0 -328 -210 -541t-538 -213h-652v42q102 -1 144 31q49 37 49 135v1056q0 114 -132 114q-23 0 -52 -3v39q160 19 435 19q409 0 648 -132q308 -171 308 -547zM1199 716q0 671 -700 671q-49 0 -111 -4v-1196q0 -148 80 -148h203q269 0 408 213q120 181 120 464z
M2617 372l-138 -372h-1005l-3 57l819 1272h-608q-55 0 -92 -110l-42 -158l-43 4l79 391l35 12q31 -50 74 -50h830q-4 -14 -16 -40l-846 -1284h745q45 0 106 117q37 81 74 161h31z" />
    <glyph glyph-name="u01F2" unicode="&#x1f2;" horiz-adv-x="2427" 
d="M1419 754q0 -328 -210 -541t-538 -213h-652v42q102 -1 144 31q49 37 49 135v1056q0 114 -132 114q-23 0 -52 -3v39q160 19 435 19q409 0 648 -132q308 -171 308 -547zM1199 716q0 671 -700 671q-49 0 -111 -4v-1196q0 -148 80 -148h203q269 0 408 213q120 181 120 464z
M2292 266l-102 -266h-716l-3 57l579 770h-381q-55 0 -91 -85q-21 -68 -41 -136l-43 4l78 344l35 13q31 -50 74 -50h603q-7 -19 -16 -40l-607 -783h456q46 0 90 68q27 52 53 104h32z" />
    <glyph glyph-name="u01F3" unicode="&#x1f3;" horiz-adv-x="2090" 
d="M1047 98q-70 -24 -141 -49q-81 -31 -134 -63q-9 -6 -19 -6q-18 0 -23 38q-4 27 -2 75q4 66 4 54q-84 -52 -168 -105q-92 -52 -194 -52q-159 0 -263 150q-93 134 -93 299q0 215 126 346q148 153 339 153q158 0 253 -54v397q0 76 -111 76q-1 0 -65 -3v35q155 20 312 103
v-1299q0 -25 20 -46.5t44 -21.5q20 0 58 4t57 4v-35zM732 186v515q-69 98 -128 133q-66 38 -180 38q-143 0 -209 -153q-47 -110 -47 -273q0 -128 79 -239q87 -121 210 -121q85 0 275 100zM1954 266l-102 -266h-716l-3 57l579 770h-381q-55 0 -91 -85q-21 -68 -41 -136l-43 4
l78 344l35 13q31 -50 74 -50h603q-7 -19 -16 -40l-607 -783h456q46 0 90 68q27 52 53 104h32z" />
    <glyph glyph-name="u01F4" unicode="&#x1f4;" horiz-adv-x="1359" 
d="M1394 633q-61 1 -100 -32q-42 -35 -42 -94v-388q-260 -134 -550 -134q-295 0 -490 186q-199 189 -199 482q0 337 196 555q203 226 536 226q174 0 319 -54q60 -23 101 -23q33 0 53 17h18l30 -368h-38q-27 180 -153 281q-123 98 -308 98q-275 0 -429 -221
q-136 -194 -136 -481q0 -258 141 -443q155 -201 406 -201q229 0 340 93v361q0 140 -183 140v40h488v-40zM962 1790l-304 -372l-24 30l154 401z" />
    <glyph glyph-name="u01F5" unicode="&#x1f5;" horiz-adv-x="1037" 
d="M977 753l-242 26q55 -83 55 -187q0 -135 -129 -216q-110 -69 -254 -69q-64 0 -135 14q-134 -71 -134 -127q0 -64 215 -78q310 -21 399 -46q215 -60 215 -237q0 -153 -218 -255q-180 -85 -354 -85q-135 0 -238 35q-147 51 -147 158q0 151 218 307q-4 9 -60 24
q-67 17 -98 38q-52 35 -52 95q0 61 38 93q21 18 86 42q61 23 88 48q-199 65 -199 271q0 144 110 242q106 94 252 94q174 0 274 -92l304 20q1 -34 6 -115zM640 596q0 109 -68 196q-74 94 -180 94q-108 0 -165 -98q-47 -81 -47 -197q0 -231 231 -231q229 0 229 236zM832 -188
q0 104 -137 145q-72 21 -222 28q-66 6 -199 12q-141 -112 -141 -272q0 -149 346 -149q104 0 221 66q132 75 132 170zM635 1383l-304 -372l-24 30l154 401z" />
    <glyph glyph-name="u01F6" unicode="&#x1f6;" horiz-adv-x="2040" 
d="M1905 252q0 -126 -120 -195q-99 -57 -235 -57q-172 0 -290 69q-143 84 -143 244v354h-700v-460q0 -103 54 -141q45 -31 151 -30v-35h-583v35q212 -1 212 171v1007q0 103 -53 141q-44 31 -152 30v35h577v-35q-205 1 -205 -171l-1 -453h700v453q0 103 -53 141
q-45 31 -152 30v35h577v-35q-206 1 -206 -171v-972q0 -66 93 -116q81 -44 152 -44q90 0 150 36q71 43 71 128v489q0 67 -40.5 107t-104.5 40q-10 0 -21 -1v36h322v-665z" />
    <glyph glyph-name="u01F7" unicode="&#x1f7;" horiz-adv-x="1088" 
d="M1020 1194q0 -243 -264 -542q-157 -178 -457 -419v-59q0 -79 70 -105q33 -13 144 -20l-3 -49h-519l-11 31l8 14q167 3 167 99v1009q0 81 -29 108.5t-111 30.5l-12 49q142 26 261 126l35 -12v-144q148 109 366 109q158 0 237 -35q118 -52 118 -191zM855 1136
q0 129 -91 171q-57 26 -204 26q-188 0 -261 -70v-966q187 122 361 366q195 273 195 473z" />
    <glyph glyph-name="u01F8" unicode="&#x1f8;" horiz-adv-x="1577" 
d="M1562 1406q0 -17 -3 -37q-109 -13 -119 -17q-53 -21 -53 -98v-1254h-44l-1074 1204v-1036q0 -130 171 -130q23 0 45 3v-41h-451l-12 41q165 0 165 83v1137q0 50 -60 82q-46 25 -105 32l6 43h318l953 -1116v952q0 61 -62 92q-50 25 -116 23v49h438zM815 1448l-24 -30
l-303 372l174 59z" />
    <glyph glyph-name="u01F9" unicode="&#x1f9;" horiz-adv-x="1120" 
d="M1097 0h-451v45q138 0 138 135v455q0 87 -36 149q-44 74 -125 74q-129 0 -316 -135v-571q0 -98 154 -107l-6 -45h-432l-4 8l6 31q63 0 102 51q36 46 36 111v551q0 36 -63 57q-8 3 -96 22v25q45 6 143 48q92 40 123 65l37 -27v-180q295 186 407 186q109 0 169 -99
q51 -83 51 -198v-520q0 -82 157 -82zM542 1041l-24 -30l-303 372l174 59z" />
    <glyph glyph-name="Aringacute" unicode="&#x1fa;" horiz-adv-x="1562" 
d="M1457 0h-586v45h144q65 0 65 70q0 47 -35 140l-105 279q-15 41 -43 41h-394q-31 0 -45 -37q-44 -108 -88 -217q-69 -176 -69 -206q0 -72 80 -72l2 2h131v-45h-494v45h69q85 0 142 150l443 1167q4 9 4 19q0 18 -11 27l6 10h121l476 -1258q29 -77 69 -98q32 -17 118 -17
v-45zM874 686q0 21 -1 26l-159 420q-4 11 -15 18q-10 0 -16 -18q-171 -450 -171 -454q0 -13 11 -13h331q20 0 20 21zM926 1527q0 -82 -58 -140t-139 -58q-82 0 -140 58t-58 140t58 140t140 58q81 0 139 -58t58 -140zM855 1526q0 52 -37 89.5t-89 37.5q-53 0 -90 -37.5
t-37 -89.5q0 -53 37 -90t90 -37q52 0 89 37t37 90zM885 2055l-304 -372l-24 30l154 401z" />
    <glyph glyph-name="aringacute" unicode="&#x1fb;" horiz-adv-x="965" 
d="M912 100q-100 -73 -102 -75q-65 -40 -120 -40q-86 0 -118 131q-121 -88 -134 -95q-66 -37 -152 -37q-85 0 -143.5 58.5t-58.5 142.5q0 105 83 172q49 39 175 91l226 93v149q0 79 -56.5 133t-136.5 54q-127 0 -127 -135q0 -9 4 -24t4 -23q0 -37 -56 -66q-49 -26 -90 -26
q-17 0 -17 28q0 133 112 218q102 78 240 78t202 -51q71 -56 71 -190v-515q0 -86 59 -86q37 0 133 56zM569 183l-1 300l-203 -89q-137 -60 -137 -193q0 -57 37 -91t94 -34q59 0 114 33q24 15 96 74zM603 1252q0 -82 -58 -140t-139 -58q-82 0 -140 58t-58 140t58 140t140 58
q81 0 139 -58t58 -140zM532 1251q0 52 -37 89.5t-89 37.5q-53 0 -90 -37.5t-37 -89.5q0 -53 37 -90t90 -37q52 0 89 37t37 90zM614 1829l-304 -372l-24 30l154 401z" />
    <glyph glyph-name="AEacute" unicode="&#x1fc;" horiz-adv-x="1734" 
d="M1614 335l-38 -337h-1057v37l45 2l2 8q177 -9 177 126v394q-4 10 -16 10h-282q-20 0 -42 -37q-228 -382 -228 -449q0 -47 41 -46l2 2h93l-12 -45h-352l12 45h49q61 0 141 150l591 1097q-10 62 -77 81q-36 10 -121 10v35h992l10 -307h-34q-23 232 -141 232h-456v-565h363
q87 0 113 175h31v-431h-31q-31 186 -113 186h-363v-519q0 -111 80 -111h397q141 0 186 261zM743 697l-4 453q-8 -2 -17 -18q-62 -105 -243 -454q0 -8 4 -13h237q23 0 23 32zM1140 1829l-304 -372l-24 30l154 401z" />
    <glyph glyph-name="aeacute" unicode="&#x1fd;" horiz-adv-x="1355" 
d="M1321 246q-119 -264 -378 -264q-223 0 -324 164q-222 -162 -365 -162q-85 0 -144 58.5t-59 142.5q0 104 83 172q50 39 176 91l226 93v149q0 79 -56.5 133t-136.5 54q-127 0 -127 -135q0 -8 4 -23.5t4 -23.5q0 -37 -56 -67q-49 -25 -90 -25q-18 0 -18 20q0 138 110 224
q101 80 242 80q101 0 148 -24q55 -28 101 -115q136 147 311 147q153 0 245 -96.5t92 -251.5h-620q-4 -42 -4 -86q0 -146 86 -272q95 -141 235 -141q181 0 275 169h8q20 1 32 -11zM1163 644q-3 100 -67.5 165.5t-163.5 65.5q-83 0 -147 -77q-54 -65 -74 -154h452zM589 194
q-46 118 -50.5 141.5t-2.5 147.5l-203 -89q-138 -60 -138 -193q0 -57 37 -91t94 -34q119 0 263 118zM905 1383l-304 -372l-24 30l154 401z" />
    <glyph glyph-name="Oslashacute" unicode="&#x1fe;" horiz-adv-x="1548" 
d="M1468 755q0 -329 -199 -545q-205 -222 -531 -222q-269 0 -462 131l-138 -164l-58 51l135 160q-216 187 -216 503q0 329 197 544q204 223 530 223q264 0 456 -126l129 152l58 -45l-128 -151q227 -188 227 -511zM1091 1202q-149 177 -374 177q-258 0 -392 -202
q-114 -173 -114 -445q0 -246 115 -435zM1266 681q0 262 -130 461l-765 -910q148 -185 381 -185q260 0 396 194q118 169 118 440zM992 1829l-304 -372l-24 30l154 401z" />
    <glyph glyph-name="oslashacute" unicode="&#x1ff;" horiz-adv-x="1076" 
d="M949 456q0 -208 -132.5 -338t-341.5 -130q-143 0 -263 82l-115 -146l-68 25l130 163q-148 135 -148 331q0 215 125 348q129 137 342 137q152 0 270 -79l111 138l67 -18l-127 -160q150 -136 150 -353zM674 756q-82 121 -226 121q-157 0 -217 -126q-42 -88 -42 -265
q0 -139 61 -260zM768 368q0 194 -60 327l-420 -530q89 -122 224 -122q256 0 256 325zM704 1383l-304 -372l-24 30l154 401z" />
    <glyph glyph-name="aturn" unicode="&#x250;" horiz-adv-x="963" 
d="M-43 813q100 74 103 75q64 41 119 41q86 0 118 -132q121 88 134 96q66 37 152 37q85 0 143.5 -58.5t58.5 -143.5q0 -104 -83 -171q-49 -39 -175 -92l-226 -92v-149q0 -80 56.5 -133.5t136.5 -53.5q127 0 127 135q0 8 -4 23.5t-4 22.5q0 38 56 67q49 26 90 26q17 0 17 -28
q0 -133 -112 -218q-102 -78 -239 -78q-139 0 -203 51q-71 56 -71 190v515q0 85 -59 85q-37 0 -133 -56zM300 731l1 -301l203 89q137 61 137 194q0 57 -36.5 90.5t-94.5 33.5q-59 0 -114 -33q-23 -14 -96 -73z" />
    <glyph glyph-name="ascript" unicode="&#x251;" horiz-adv-x="1124" 
d="M1047 98q-70 -24 -141 -49q-81 -31 -134 -63q-9 -6 -19 -6q-18 0 -23 38q-4 27 -2 75q4 66 4 54q-84 -52 -168 -105q-92 -52 -194 -52q-159 0 -263 150q-93 134 -93 299q0 215 126 346q148 153 339 153q158 0 253 -54l136 75v-766q0 -25 20 -46.5t44 -21.5q20 0 58 4
t57 4v-35zM732 186v515q-69 98 -128 133q-66 38 -180 38q-143 0 -209 -153q-47 -110 -47 -273q0 -128 79 -239q87 -121 210 -121q85 0 275 100z" />
    <glyph glyph-name="ascriptturn" unicode="&#x252;" horiz-adv-x="1116" 
d="M1037 488q0 -215 -127 -346q-148 -153 -338 -153q-159 0 -253 54l-136 -75v766q0 25 -20 46.5t-45 21.5q-19 0 -57.5 -4t-56.5 -4v35q70 24 140 49q82 31 134 63q10 6 19 6q18 0 23 -38q4 -27 2 -75q-3 -66 -3 -55l168 106q92 52 194 52q158 0 262 -150q94 -134 94 -299z
M883 481q0 128 -79 239q-88 121 -211 121q-84 0 -274 -100v-515q68 -98 128 -133q65 -38 179 -38q144 0 209 152q48 111 48 274z" />
    <glyph glyph-name="bhook" unicode="&#x253;" horiz-adv-x="1105" 
d="M1018 477q0 -229 -154 -363q-146 -126 -379 -126q-148 0 -326 45v995q0 164 114.5 287t276.5 123q73 0 153 -45q92 -52 92 -118q0 -26 -25 -60t-50 -34q-62 0 -90 44l-46 82q-35 45 -111 45q-70 0 -122 -69q-49 -64 -49 -136v-360q139 82 170 97q101 48 188 48
q170 0 270 -147q88 -130 88 -308zM857 431q0 144 -70 264q-82 141 -216 141q-56 0 -144 -35q-92 -36 -125 -76v-524q0 -66 105 -111q85 -38 162 -38q139 0 219 125q69 107 69 254z" />
    <glyph glyph-name="cturn" unicode="&#x254;" horiz-adv-x="905" 
d="M52 668q125 264 394 264q173 0 293 -139q115 -133 115 -309q0 -221 -150.5 -362t-372.5 -141q-66 0 -154 40q-101 46 -101 97q0 96 90 96q56 0 73 -46q16 -42 31 -84q33 -45 127 -45q151 0 236 137q71 116 71 277q0 133 -94 249q-100 123 -230 123q-187 0 -286 -168
q-42 -2 -42 11z" />
    <glyph glyph-name="ccurl" unicode="&#x255;" horiz-adv-x="913" 
d="M788 795q0 -95 -90 -95q-56 0 -73 45l-32 84q-33 46 -126 46q-151 0 -236 -137q-71 -117 -71 -277q0 -129 89 -244q163 168 303 168q74 0 134 -37q70 -43 70 -112q0 -125 -112 -195q-95 -59 -226 -59q-118 0 -216 69q-3 -5 -112 -167l-57 49q43 74 113 165
q-136 137 -136 332q0 220 152 363q149 140 371 140q62 0 151 -39q104 -46 104 -99zM667 201q0 95 -108 95q-146 0 -264 -128q87 -80 189 -80q66 0 117 23q66 30 66 90z" />
    <glyph glyph-name="drthook" unicode="&#x256;" horiz-adv-x="1060" 
d="M1137 -256q0 -52 -56 -79q-44 -21 -102 -21q-151 0 -209 104q-42 75 -42 230q0 30 2 87.5t2 81.5q-85 -52 -170 -105q-94 -52 -192 -52q-159 0 -263 149q-93 135 -93 300q0 213 126 346q146 153 339 153q158 0 253 -54v397q0 77 -114 77q-19 0 -62 -4v35q156 20 312 103
v-1640q0 -123 62 -123q48 0 86.5 49.5t70.5 49.5q18 0 35 -34q15 -30 15 -50zM732 186v515q-68 97 -128 133q-67 38 -180 38q-143 0 -208 -151q-48 -111 -48 -275q0 -128 79 -239q87 -121 210 -121q86 0 275 100z" />
    <glyph glyph-name="dhook" unicode="&#x257;" horiz-adv-x="1060" 
d="M1288 1315q0 -26 -26 -56t-52 -30q-25 0 -79 61.5t-99 61.5q-70 0 -119 -70q-45 -62 -45 -135v-954q0 -25 20 -46.5t44 -21.5q20 0 58.5 4t56.5 4v-35l-140 -50q-79 -30 -135 -62q-10 -6 -19 -6q-24 0 -25 74q0 -51 4 93q-85 -52 -169 -105q-93 -52 -193 -52
q-159 0 -263 150q-93 134 -93 299q0 215 126 346q148 153 339 153q158 0 253 -54v144q0 165 105 285q110 125 272 125q179 0 179 -123zM732 186v515q-68 97 -128 133q-67 38 -180 38q-143 0 -208 -151q-48 -111 -48 -275q0 -128 79 -239q87 -121 210 -121q86 0 275 100z" />
    <glyph glyph-name="erev" unicode="&#x258;" horiz-adv-x="874" 
d="M825 451q0 -177 -111 -318q-119 -151 -291 -151q-270 0 -394 264q13 12 33 11h9q97 -169 286 -169q144 0 244 138q90 126 90 275q0 44 -4 86h-646q0 157 97.5 252.5t254.5 95.5q197 0 318 -146q114 -137 114 -338zM665 644q-21 91 -79 156q-66 75 -151 75
q-102 0 -170 -64.5t-71 -166.5h471z" />
    <glyph glyph-name="schwa" unicode="&#x259;" horiz-adv-x="882" 
d="M825 472q0 -200 -114 -337q-121 -146 -318 -146q-158 0 -255 95t-97 252h646q4 43 4 86q0 150 -91 275q-99 138 -243 138q-189 0 -286 -168l-9 -1q-21 0 -33 12q124 264 394 264q172 0 291 -152q111 -140 111 -318zM664 280h-471q4 -102 71.5 -166.5t170.5 -64.5
q85 0 151 75q57 65 78 156z" />
    <glyph glyph-name="schwahook" unicode="&#x25a;" horiz-adv-x="1165" 
d="M1102 609q-67 -152 -123 -152q-52 0 -117 221l-68 -34q31 -86 31 -172q0 -199 -114 -337q-122 -146 -318 -146q-156 0 -254 95.5t-98 251.5l597 300q-100 199 -281 199q-190 0 -286 -168l-9 -1q-20 0 -33 12q123 264 394 264q111 0 207 -70q87 -64 140 -170q76 35 112 84
q28 -117 35 -139q34 -101 73 -101q42 0 80 82zM691 422q0 77 -28 155l-496 -252q5 -105 83 -189q81 -87 185 -87q109 0 188 136q68 119 68 237z" />
    <glyph glyph-name="epsilonlatin" unicode="&#x25b;" horiz-adv-x="927" 
d="M811 246q-124 -264 -393 -264q-150 0 -262 51q-146 67 -146 199q0 161 188 240q-146 70 -146 172q0 151 142 227q112 60 278 60q88 0 185 -29q131 -40 131 -107q0 -95 -90 -95q-46 0 -72 45l-46 84q-38 46 -113 46q-111 0 -198 -53q-103 -62 -103 -166q0 -109 117 -158
q108 27 275 27q89 0 89 -59q0 -52 -153 -52q-131 0 -201 17q-133 -47 -133 -193q0 -92 119 -134q82 -29 197 -29q188 0 294 182h8q22 1 33 -11z" />
    <glyph glyph-name="epsilonlatinrev" unicode="&#x25c;" horiz-adv-x="929" 
d="M807 260q0 -133 -141 -213q-117 -65 -257 -65q-269 0 -394 264q12 12 33 11h9q106 -182 294 -182q115 0 197 29q119 42 119 134q0 146 -133 193q-71 -17 -201 -17q-154 0 -154 52q0 59 90 59q166 0 275 -27q117 49 117 158q0 104 -103 166q-87 53 -198 53q-75 0 -113 -46
q-23 -42 -47 -84q-26 -45 -72 -45q-89 0 -89 95q0 67 129 106q97 30 186 30q166 0 279 -60q142 -76 142 -227q0 -103 -146 -172q178 -75 178 -212z" />
    <glyph glyph-name="epsilonlatinrevhook" unicode="&#x25d;" horiz-adv-x="1155" 
d="M1100 676q-65 -153 -122 -153q-54 0 -118 222l-90 -49q5 -25 5 -52q0 -103 -146 -172q178 -74 178 -212q0 -132 -139 -211q-116 -67 -259 -67q-270 0 -394 264q13 12 33 11h9q105 -182 294 -182q115 0 197 29q119 42 119 134q0 147 -133 193q-71 -17 -201 -17
q-154 0 -154 52q0 59 90 59q166 0 275 -27q117 49 117 158q0 104 -103 166q-87 53 -198 53q-75 0 -113 -46q-23 -42 -47 -84q-26 -45 -72 -45q-89 0 -89 95q0 67 129 107q97 29 186 29q302 0 392 -168q103 48 134 90q56 -241 109 -241q43 0 80 83z" />
    <glyph glyph-name="epsilonlatinrevclosed" unicode="&#x25e;" horiz-adv-x="1009" 
d="M907 232q0 -132 -172 -197q-125 -47 -284 -47q-188 0 -325.5 133.5t-137.5 321.5q0 215 125 348q128 137 342 137q175 0 294 -54q158 -71 158 -221q0 -98 -178 -181q178 -74 178 -240zM768 238q0 147 -133 193q-70 -17 -151 -17q-154 0 -154 52q0 59 90 59q116 0 224 -27
q124 51 124 162q0 105 -107 162q-86 46 -200 46q-125 0 -215 -136q-80 -121 -80 -246q0 -163 78 -292q92 -151 244 -151q101 0 182 47q98 55 98 148z" />
    <glyph glyph-name="jdotlessbar" unicode="&#x25f;" horiz-adv-x="797" 
d="M668 0h-175v-102q0 -158 -131 -299q-103 -111 -260 -111q-78 0 -142 25q-84 33 -92 99q27 86 78 86q23 0 106 -61.5t127 -61.5q74 0 115 59q37 53 37 129v237h-183v123h183v629q0 73 -72 73q-27 0 -63 -9l-25 40q189 53 285 113l37 -27v-819h175v-123z" />
    <glyph glyph-name="ghook" unicode="&#x260;" horiz-adv-x="1050" 
d="M732 186v515q-68 97 -128 133q-67 38 -180 38q-143 0 -208 -151q-48 -111 -48 -275q0 -128 79 -239q87 -121 210 -121q86 0 275 100zM1177 1110q0 -21 -14 -51q-17 -34 -35 -34q-46 0 -73 77t-88 77q-51 0 -79 -66q-20 -50 -20 -111l1 -953q0 -557 -432 -557
q-375 0 -375 146q0 86 99 86q42 0 64 -40q31 -56 59 -75q59 -40 191 -40q113 0 189 113q68 101 68 220q0 256 0 245q-85 -52 -170 -105q-93 -52 -192 -52q-159 0 -263 149q-93 135 -93 300q0 214 126 346q147 153 339 153q158 0 253 -54q0 134 74 246q84 127 212 127
q54 0 106.5 -47t52.5 -100z" />
    <glyph glyph-name="gcursive" unicode="&#x261;" horiz-adv-x="1050" 
d="M475 -431q112 0 188 112q69 101 69 221q-3 169 0 245q-85 -52 -169 -105q-93 -52 -193 -52q-159 0 -263 150q-93 134 -93 299q0 215 126 346q148 153 339 153q158 0 253 -54l136 75l1 -910q0 -557 -432 -557q-375 0 -375 146q0 86 99 86q42 0 64 -40q30 -57 58 -75
q59 -40 192 -40zM732 186v515q-68 97 -128 133q-67 38 -180 38q-142 0 -208 -151q-48 -111 -48 -275q0 -128 79 -239q87 -121 210 -121q86 0 275 100z" />
    <glyph glyph-name="Gsmallcap" unicode="&#x262;" horiz-adv-x="1080" 
d="M1046 411q-107 1 -107 -82v-252q-195 -87 -413 -87q-221 0 -367 121q-149 123 -149 313q0 220 147 361q152 147 402 147q130 0 239 -35q45 -15 75 -15q25 0 41 11h13l22 -239h-28q-20 117 -115 183q-92 63 -231 63q-206 0 -322 -143q-102 -127 -102 -313q0 -168 106 -288
q116 -130 304 -130q172 0 256 60v235q0 90 -137 90v26h366v-26z" />
    <glyph glyph-name="gammalatin" unicode="&#x263;" horiz-adv-x="1047" 
d="M1047 915l-4 -36q-107 -2 -167 -140l-284 -647q129 -318 129 -407q0 -80 -51 -138q-53 -62 -132 -62q-171 0 -171 215q0 80 112 322l-319 737q-53 120 -176 120v36h456v-36q-146 1 -146 -54q0 -46 113 -309q74 -166 147 -332q261 559 261 605q0 96 -157 94l11 32h378z
M603 -337q0 75 -83 266q-67 -167 -67 -233q0 -122 73 -122q30 0 53.5 29t23.5 60z" />
    <glyph glyph-name="babygamma" unicode="&#x264;" horiz-adv-x="1047" 
d="M1047 915l-4 -36q-75 -1 -159 -87l-311 -317q180 -177 180 -257q0 -113 -68 -177.5t-182 -64.5q-103 0 -171 58q-72 62 -72 163q0 65 67 142q21 25 116 114l-310 351q-40 46 -63 59q-31 17 -86 16v36h456v-36h-15q-131 1 -131 -54q0 -52 229 -293q73 66 146 131
q113 105 113 135q0 87 -124 85l11 32h378zM649 163q0 98 -151 234q-116 -129 -116 -200q0 -63 44 -109t106 -46q50 0 83.5 35.5t33.5 85.5z" />
    <glyph glyph-name="hturn" unicode="&#x265;" horiz-adv-x="1108" 
d="M1079 -418q-2 -31 -2 -30q0 -13 -29 -25q-10 -4 -117 -37q-67 -21 -112 -53h-43v732q-242 -184 -409 -184q-111 0 -170 107q-48 87 -48 209v428q0 61 -41 96t-103 35l-3 41l297 53v-638q0 -84 40 -151q47 -78 126 -78q74 0 164 48q41 21 147 94v539q0 49 -73 79
q-54 22 -116 25v33l333 62v-1315q0 -38 37 -60q32 -20 72 -20q9 0 50 10z" />
    <glyph glyph-name="hhook" unicode="&#x266;" horiz-adv-x="1147" 
d="M1058 0h-451v45q138 -1 138 135v423q0 85 -39 151q-47 79 -126 79q-75 0 -165 -48q-41 -22 -147 -95v-538q0 -99 154 -107l20 -45h-458l-3 8l5 31q84 -1 114 43q25 35 25 119v827q0 164 114.5 287t276.5 123q72 0 153 -45q92 -52 92 -118q0 -26 -25 -60t-50 -34
q-62 0 -91 44q-22 41 -45 82q-34 45 -111 45q-69 0 -122 -69q-49 -65 -49 -136v-397q242 184 409 184q112 0 171 -107q47 -87 47 -208v-488q0 -84 158 -82z" />
    <glyph glyph-name="henghook" unicode="&#x267;" horiz-adv-x="1231" 
d="M937 -102q0 -160 -130 -299q-104 -111 -260 -111q-80 0 -145 25q-89 33 -89 99q0 25 26 55.5t51 30.5q26 0 107.5 -61.5t126.5 -61.5q73 0 115 59q37 53 37 129v989q0 73 -72 73q-15 0 -44 5t-43 5l-278 -1v-662q0 -92 62 -116q32 -12 142 -11v-45h-487l-5 29
q78 22 97 33q50 27 50 81v854q0 131 18 186q22 70 104 155q93 98 280 98q213 0 213 -158q0 -39 -25 -68t-64 -29q-31 0 -53 42q-36 69 -43 78q-35 41 -97 41q-192 0 -192 -195v-237h310q154 0 251 59l37 -27v-1044z" />
    <glyph glyph-name="ibar" unicode="&#x268;" horiz-adv-x="549" 
d="M361 1345q0 -43 -30.5 -73.5t-72.5 -30.5q-43 0 -73 30.5t-30 73.5q0 42 30 72.5t73 30.5q42 0 72.5 -30.5t30.5 -72.5zM514 447h-169v-295q0 -98 153 -107l4 -45h-459l-4 8l6 31q71 0 101 20q37 26 37 96v292h-183v100h183v205q0 73 -72 73q-27 0 -63 -9l-25 40
q189 53 285 113l37 -27v-395h169v-100z" />
    <glyph glyph-name="iotalatin" unicode="&#x269;" horiz-adv-x="577" 
d="M595 176q-89 -176 -245 -176q-167 0 -167 155v597q0 73 -72 73q-27 0 -63 -9l-25 40q189 53 285 113l37 -27v-714q0 -130 91 -130q35 0 87.5 55.5l52.5 55.5q21 0 19 -33z" />
    <glyph glyph-name="Ismallcap" unicode="&#x26a;" horiz-adv-x="631" 
d="M467 900q-154 0 -154 -111v-654q0 -71 46 -95q32 -17 108 -17v-22h-437v22q158 0 158 112v654q0 71 -46 95q-32 17 -107 16v23h432v-23z" />
    <glyph glyph-name="lmidtilde" unicode="&#x26b;" horiz-adv-x="794" 
d="M712 910q-38 -218 -160 -218q-37 0 -70 10v-550q0 -98 154 -107l-6 -45h-432l-4 8l6 31q62 0 101 51q35 46 35 111v593q-47 37 -86 37q-87 0 -108 -133l-41 22q38 218 161 218q39 0 74 -12v342q0 36 -37 60q-33 20 -72 20l-50 -10q2 44 2 31q0 13 29 24q79 24 230 90h44
v-651q44 -32 82 -32q86 0 107 132z" />
    <glyph glyph-name="lbelt" unicode="&#x26c;" horiz-adv-x="535" 
d="M608 704q-151 -151 -270 -169v-383q0 -99 154 -107l-6 -45h-432l-4 8l6 31q61 0 101 51q35 48 35 111v328q-287 40 -287 208q0 69 46 125q50 59 118 59q33 0 71 -19t52 -47v413q0 37 -37 60q-33 20 -72 20q-16 0 -50 -10q2 20 2 31t115 57q135 53 144 57h44v-881
q107 20 241 154zM192 599v178q-44 56 -107 56q-83 0 -83 -97q0 -56 62 -94q52 -34 128 -43z" />
    <glyph glyph-name="lrthook" unicode="&#x26d;" horiz-adv-x="535" 
d="M625 -399q0 -51 -56 -78q-44 -21 -102 -21q-191 0 -246 166q-29 84 -29 325v1275q0 36 -37 60q-33 20 -72 20l-50 -10q2 44 2 31q0 13 29 24q78 24 230 90h44v-1773q0 -45 18 -80q22 -44 62 -44q46 0 86 49.5t71 49.5q18 0 34 -32t16 -52z" />
    <glyph glyph-name="lyogh" unicode="&#x26e;" horiz-adv-x="1313" 
d="M1139 -11q0 -219 -153 -363q-149 -140 -370 -140q-63 0 -152 39q-103 45 -103 99q0 95 90 95q53 0 71 -44t35 -86q34 -45 125 -45q150 0 235 138q72 116 72 276q0 143 -74 241q-82 107 -221 107q-55 0 -116 -18l-36 15l325 524h-529v-675q0 -100 154 -107l-6 -45h-432
l-4 8l6 31q61 0 100 51q36 48 36 111v1067q0 37 -37 60q-33 20 -72 20q-19 0 -50 -10q2 20 2 31t115 56q139 56 144 58h44v-566h728l-4 -54l-265 -435q156 -3 254 -147q88 -129 88 -292z" />
    <glyph glyph-name="mturn" unicode="&#x26f;" horiz-adv-x="1817" 
d="M1664 63l-261 -112l-37 26v180q-288 -186 -398 -186q-67 0 -125 62q-49 53 -71 124q-289 -186 -399 -186q-106 0 -171 99q-56 86 -56 198v520q0 83 -154 82l-6 49h307v-635q0 -85 41 -149q48 -74 129 -74q124 0 295 125v602q0 83 -160 82l-6 49h307v-635q0 -85 36 -147
q43 -76 123 -76q126 0 308 135v572q0 98 -150 106l6 45h286v-751q0 -82 156 -80v-25z" />
    </font>
</defs>
</svg>
