<?xml version="1.0" encoding="utf-8"?>
<!-- Generator: Adobe Illustrator 24.0.3, SVG Export Plug-In . SVG Version: 6.00 Build 0)  -->
<svg version="1.1" id="Layer_1" xmlns="http://www.w3.org/2000/svg" xmlns:xlink="http://www.w3.org/1999/xlink" x="0px" y="0px"
	 viewBox="0 0 123 51" style="enable-background:new 0 0 123 51;" xml:space="preserve">
<style type="text/css">
	.st0{fill:#81693C;}
	.st1{fill:#B39C79;}
</style>
<g id="layer101">
	<path class="st0" d="M70.1,44.8c-1.2-1.2-2.4-3.2-2.7-4.4S66,38,64.9,37.7c-2.3-0.6-2.7-6.8-0.4-8.7c2-1.6,3.4-0.5,5.5,4.6
		c1.1,2.4,2.3,4.4,2.8,4.4c0.4,0,1.6-1.6,2.5-3.5c0.9-2,2.4-3.8,3.3-4.2c2.2-0.8,5.6,1.3,7.9,4.8c2.3,3.5,7.2,5.9,10.7,5.2
		c1.4-0.3,2.9,0,3.2,0.6c1,1.5-3.9,4.3-7.7,4.3c-3.8,0-10.3-3.8-11.1-6.6c-0.7-2.7-2.8-1.5-4.1,2.4c-0.6,1.8-2.1,4-3.2,4.7
		C72.4,47,72,46.9,70.1,44.8z"/>
	<path class="st0" d="M107.3,44.4c-0.3-0.8,0.2-2.3,1.1-3.2c1.5-1.5,1.7-1.5,3.3,0c1.3,1.4,1.4,2,0.3,3.2
		C110.4,46.4,108.1,46.4,107.3,44.4z"/>
	<path class="st0" d="M24.1,40.5c-2.8-5.9-3.2-10.8-0.9-11.3c1.2-0.2,2.3,0.8,3.4,3.5c0.9,2.1,2.3,5.3,3.2,7.1
		c1.4,2.9,1.4,3.5,0.1,4.3C27.3,45.7,26.2,45.1,24.1,40.5z"/>
	<path class="st0" d="M45,38.5c-1.7-2-0.6-4.3,2.5-5.1c3.5-0.9,4.2,0.2,2.5,3.3C48.1,40,46.7,40.5,45,38.5z"/>
	<path class="st0" d="M109,2.3c-5.5-1.5-10.4-1.8-32.5-1.7C49.5,0.7,34.7,1.9,19.8,5C9.3,7.3,5.9,8.9,2.5,13.4
		c-4.7,6.2-1.4,11.1,8.3,12.3c4.2,0.5,5.2,0.9,5.2,2.4c0,1.1,0.6,1.9,1.3,1.9c1.7-0.1,8.3-5.7,7.5-6.5c-0.3-0.3-2.6-0.7-5.4-1
		c-0.3,0-0.7,0-1,0c-0.2,0-0.4,0-0.6-0.1c0,0,0,0,0,0c0,0,0,0,0,0c-0.1,0-0.2,0-0.3,0c-0.2,0-0.3,0-0.4-0.1
		C5.6,21.1,2.5,18,7.3,12.4c1.9-2.2,4.2-3,13.7-5c9.1-1.9,20.8-3.1,32.8-3.8c0.1,0,0.2,0,0.3,0c0.1,0,0.1,0,0.2,0
		c27.8-1.4,57.2,0.5,60.1,5.3c1,1.5-0.4,1.9-13,3.6c-38.4,5.2-50.6,6-58.4,4.1c-3.3-0.8-6,0.8-4.2,2.6c2.5,2.5,18.6,2.1,43.2-1.1
		c30.2-4.1,37-5.7,37-9.1C119,6.3,115.9,4.2,109,2.3z"/>
</g>
<g id="layer102">
	<g id="XMLID_1_">
		<g>
			<path class="st1" d="M109,2.3c6.9,1.9,10,4,10,6.7c0,1.9-2,3.2-8.8,4.7l-0.4-2.4c4.8-0.8,5.3-1.3,4.6-2.4
				c-1.9-3.1-14.8-5-31.2-5.6l0.1-2.8C99.7,0.6,104.1,1,109,2.3z"/>
			<path class="st1" d="M111.7,41.2c1.3,1.4,1.4,2,0.3,3.2c-1.6,2-3.9,2-4.7,0c-0.3-0.8,0.2-2.3,1.1-3.2
				C109.9,39.7,110.1,39.7,111.7,41.2z"/>
			<path class="st1" d="M109.8,11.3l0.4,2.4c-5.6,1.2-14.5,2.6-28.2,4.4c-24.6,3.2-40.7,3.6-43.2,1.1c-1.8-1.8,0.9-3.4,4.2-2.6
				c7.8,1.9,20,1.1,58.4-4.1C105.1,12,107.8,11.6,109.8,11.3z"/>
			<path class="st1" d="M100.4,40.9c1,1.5-3.9,4.3-7.7,4.3c-3.8,0-10.3-3.8-11.1-6.6c-0.7-2.7-2.8-1.5-4.1,2.4
				c-0.6,1.8-2.1,4-3.2,4.7c-1.9,1.3-2.3,1.2-4.2-0.9c-1.2-1.2-2.4-3.2-2.7-4.4c-0.3-1.2-1.4-2.4-2.5-2.7c-2.3-0.6-2.7-6.8-0.4-8.7
				c2-1.6,3.4-0.5,5.5,4.6c1.1,2.4,2.3,4.4,2.8,4.4c0.4,0,1.6-1.6,2.5-3.5c0.9-2,2.4-3.8,3.3-4.2c2.2-0.8,5.6,1.3,7.9,4.8
				s7.2,5.9,10.7,5.2C98.6,40,100.1,40.3,100.4,40.9z"/>
			<path class="st1" d="M83.3,0.6l-0.1,2.8c-9-0.3-19-0.2-28.9,0.3c-0.1,0-0.1,0-0.2,0c0,0-0.1,0-0.1,0c0,0-0.1,0-0.1,0
				C41.8,4.3,30.1,5.5,21,7.4c-9.5,2-11.8,2.8-13.7,5c-4.8,5.6-1.7,8.7,9.8,9.8c0.1,0,0.3,0.1,0.4,0.1c0.1,0,0.2,0,0.3,0h0
				c0.2,0.1,0.4,0.1,0.6,0.1c0.3,0,0.6,0,0.9,0h0c2.9,0.3,5.3,0.7,5.5,1.1c0.8,0.8-5.8,6.4-7.5,6.5c-0.7,0-1.3-0.8-1.3-1.9
				c0-1.5-1-1.9-5.2-2.4c-9.7-1.2-13-6.1-8.3-12.3C5.9,8.9,9.3,7.3,19.8,5c14.9-3.1,29.7-4.3,56.7-4.4C79,0.6,81.2,0.6,83.3,0.6z"/>
			<path class="st1" d="M47.5,33.4c3.5-0.9,4.2,0.2,2.5,3.3c-1.9,3.3-3.3,3.8-5,1.8S44.4,34.2,47.5,33.4z"/>
			<path class="st1" d="M29.8,39.8c1.4,2.9,1.4,3.5,0.1,4.3c-2.6,1.6-3.7,1-5.8-3.6c-2.8-5.9-3.2-10.8-0.9-11.3
				c1.2-0.2,2.3,0.8,3.4,3.5C27.5,34.8,28.9,38,29.8,39.8z"/>
		</g>
		<g>
		</g>
	</g>
</g>
<g id="layer103">
	<g id="XMLID_2_">
		<g>
			<path class="st1" d="M18,22.8c-1.9,0-2.7-0.2-1.7-0.5c0.2,0,0.4-0.1,0.7-0.1c0.2,0.1,0.3,0.1,0.5,0.1c0.1,0,0.2,0,0.3,0h0
				c0.2,0.1,0.4,0.1,0.6,0.1c0.5,0,1,0,1.4,0.1c0,0,0.1,0,0.1,0c0.1,0,0.2,0,0.2,0C20.3,22.7,19.5,22.8,18,22.8z"/>
		</g>
		<g>
		</g>
	</g>
	<path class="st1" d="M54,3.6C54,3.6,54,3.6,54,3.6c0.8,0,1.5,0,2.2,0c0.7-0.1,1.3-0.1,1.9-0.1c0-0.1-0.1-0.1-0.3-0.2
		c-1-0.2-2.6-0.2-3.5,0C53.9,3.4,53.8,3.5,54,3.6z"/>
	<path class="st1" d="M74,0.6c-1.2,0.2-2.5,0-3.7,0c-0.1,0-0.2,0-0.3,0l-0.1,0c0.2,0.1,0.9,0.2,2.1,0.2c1.1,0,1.8-0.1,2.1-0.2
		C74,0.6,74,0.6,74,0.6z"/>
</g>
</svg>
